<svg width="137" height="23" viewBox="0 0 137 23" fill="none" xmlns="http://www.w3.org/2000/svg">
<path d="M49.5477 16.3489H46.9219L46.1912 14.4309H41.9442L41.1907 16.3489H38.6105L42.9488 6.66748H45.1865L49.5477 16.3489ZM45.8258 13.4718L44.0448 8.88232H43.9763L42.3095 13.4718H45.8258Z" fill="#002A4E"/>
<path d="M61.1947 16.1891C60.3727 16.3718 59.5735 16.4631 58.7515 16.4631C57.1304 16.4631 55.7147 16.1663 54.5273 15.5498C53.34 14.9561 52.7463 13.6775 52.7463 11.7823C52.7463 9.70444 53.34 8.3116 54.5273 7.58093C55.7147 6.85026 57.1532 6.50775 58.8429 6.50775C59.4822 6.50775 60.2585 6.55342 61.1947 6.66759V7.85492C60.5782 7.74076 60.0074 7.67226 59.4822 7.67226C58.4319 7.67226 57.5185 7.92343 56.7879 8.4486C56.0344 8.97376 55.669 9.97844 55.669 11.4854C55.669 12.3988 55.7604 13.0838 55.9202 13.609C56.08 14.1113 56.4682 14.5223 57.0619 14.8191C57.6555 15.116 58.3862 15.2758 59.2995 15.2758C59.8247 15.2758 60.4869 15.2073 61.2404 15.0475V16.1891H61.1947Z" fill="#002A4E"/>
<path d="M75.19 16.3489H72.3586L69.2076 11.805H68.9793V16.3489H66.2621V6.66748H70.0296C73.0893 6.66748 74.642 7.48948 74.642 9.15633C74.642 9.90983 74.4136 10.4807 73.957 10.846C73.5003 11.2342 72.7696 11.5082 71.7421 11.7137L75.19 16.3489ZM68.9564 10.9145C70.0068 10.9145 70.7603 10.7775 71.2398 10.5492C71.6965 10.3208 71.9476 9.90983 71.9476 9.29333C71.9476 8.72249 71.7421 8.28866 71.3083 8.03749C70.8744 7.78632 70.1438 7.67215 69.1163 7.67215H68.9564V10.9145Z" fill="#002A4E"/>
<path d="M80.2375 6.66748H82.9547V16.3489H80.2375V6.66748Z" fill="#002A4E"/>
<path d="M95.4911 7.92276C94.6006 7.69443 93.8014 7.58026 93.0936 7.58026C92.3857 7.58026 91.7921 7.69443 91.2897 7.9456C90.7874 8.19677 90.5362 8.47077 90.5362 8.8361C90.5362 9.08727 90.6961 9.33844 90.9929 9.61244C91.2897 9.88644 91.9747 10.3203 93.0022 10.9368C94.0297 11.5533 94.8517 12.0785 95.3997 12.5123C95.9477 12.969 96.2217 13.4713 96.2217 14.0421C96.2217 14.75 95.7651 15.3436 94.8746 15.8003C93.9612 16.257 92.7967 16.4625 91.3354 16.4625C90.5362 16.4625 89.5544 16.3483 88.3899 16.12V14.9783C88.4127 14.9783 88.4584 15.0011 88.4812 15.0011C88.641 15.0696 88.9607 15.1381 89.4859 15.2523C90.011 15.3665 90.4905 15.4121 90.9701 15.4121C91.7692 15.4121 92.4086 15.298 92.9337 15.024C93.4589 14.7728 93.7101 14.4531 93.7101 14.0421C93.7101 13.7681 93.5731 13.517 93.3219 13.2658C93.0707 13.0375 92.5912 12.7178 91.9062 12.3068L90.0795 11.2336C89.3717 10.8226 88.8465 10.4344 88.5269 10.0919C88.1844 9.74944 88.0245 9.33844 88.0245 8.85894C88.0245 8.1511 88.4584 7.58026 89.3032 7.14643C90.1709 6.71259 91.2669 6.48425 92.6369 6.48425C93.5959 6.48425 94.5549 6.59842 95.5139 6.82675L95.4911 7.92276Z" fill="#002A4E"/>
<path d="M110.788 14.0655C110.788 15.6867 109.281 16.4859 106.267 16.4859C102.956 16.4859 101.312 15.6867 101.312 14.0655V6.69031H104.006V13.5403C104.006 14.271 104.143 14.7733 104.394 15.0702C104.645 15.3442 105.239 15.504 106.107 15.504C106.997 15.504 107.545 15.3442 107.774 15.0702C108.002 14.7733 108.116 14.2482 108.116 13.4947V6.71314H110.81L110.788 14.0655Z" fill="#002A4E"/>
<path d="M124.783 16.3489H121.952L118.801 11.805H118.572V16.3489H115.855V6.66748H119.623C122.682 6.66748 124.212 7.48948 124.212 9.15633C124.212 9.90983 123.984 10.4807 123.527 10.846C123.07 11.2342 122.34 11.5082 121.312 11.7137L124.783 16.3489ZM118.572 10.9145C119.623 10.9145 120.376 10.7775 120.856 10.5492C121.312 10.3208 121.563 9.90983 121.563 9.29333C121.563 8.72249 121.358 8.28866 120.924 8.03749C120.49 7.78632 119.76 7.67215 118.732 7.67215H118.572V10.9145Z" fill="#002A4E"/>
<path d="M137 16.3489H129.831V6.66748H137V7.76348H132.525V10.8232H136.658V11.9192H132.525V15.2529H137V16.3489Z" fill="#002A4E"/>
<path d="M20.3665 3.37936C19.7271 4.9092 18.4028 6.1422 16.7816 6.7587C15.1605 6.1422 13.8589 4.9092 13.1968 3.37936C13.8361 1.84951 15.1605 0.616503 16.7816 0C18.4028 0.639337 19.7043 1.84951 20.3665 3.37936Z" fill="#39607A"/>
<path d="M14.0887 8.65412C13.5636 9.88713 12.5132 10.869 11.2346 11.3485C9.95588 10.869 8.90554 9.8643 8.38037 8.65412C8.90554 7.42112 9.95588 6.43928 11.2346 5.95978C12.5132 6.43928 13.5636 7.42112 14.0887 8.65412Z" fill="#39607A"/>
<path d="M25.2081 8.65412C24.683 9.88713 23.6554 10.869 22.3539 11.3485C21.0753 10.869 20.0249 9.8643 19.4998 8.65412C20.0249 7.42112 21.0753 6.43928 22.3539 5.95978C23.6326 6.43928 24.683 7.42112 25.2081 8.65412Z" fill="#39607A"/>
<path d="M19.2247 12.2156C18.7909 13.2659 17.8776 14.1108 16.7816 14.5218C15.6856 14.1108 14.795 13.2659 14.3384 12.2156C14.7722 11.1653 15.6856 10.3204 16.7816 9.90942C17.9004 10.3433 18.7909 11.1881 19.2247 12.2156Z" fill="#39607A"/>
<path d="M8.56373 13.7689C8.12989 14.8192 7.21655 15.6641 6.12055 16.0751C5.02454 15.6641 4.1112 14.8192 3.67737 13.7689C4.1112 12.7185 5.02454 11.8737 6.12055 11.4627C7.21655 11.8965 8.12989 12.7185 8.56373 13.7689Z" fill="#39607A"/>
<path d="M29.8888 13.7689C29.455 14.8192 28.5416 15.6641 27.4456 16.0751C26.3496 15.6641 25.4363 14.8192 25.0024 13.7689C25.4363 12.7185 26.3496 11.8737 27.4456 11.4627C28.5645 11.8965 29.455 12.7185 29.8888 13.7689Z" fill="#39607A"/>
<path d="M14.0654 15.6863C13.6772 16.5768 12.9237 17.2846 11.9875 17.65C11.0513 17.2846 10.275 16.5768 9.90967 15.6863C10.2978 14.7958 11.0513 14.0651 11.9875 13.7226C12.9237 14.0879 13.6772 14.8186 14.0654 15.6863Z" fill="#39607A"/>
<path d="M23.6802 15.6863C23.2921 16.5768 22.5386 17.2846 21.6024 17.65C20.6662 17.2846 19.8899 16.5768 19.5245 15.6863C19.9127 14.7958 20.6662 14.0651 21.6024 13.7226C22.5386 14.0879 23.2921 14.8186 23.6802 15.6863Z" fill="#39607A"/>
<path d="M18.4029 18.6777C18.106 19.3627 17.5124 19.9107 16.8045 20.1847C16.0738 19.9107 15.4802 19.3627 15.2062 18.6777C15.503 17.9927 16.0967 17.4447 16.8045 17.1707C17.5124 17.4219 18.106 17.9927 18.4029 18.6777Z" fill="#39607A"/>
<path d="M9.86554 19.1569C9.52303 19.956 8.83803 20.5954 7.99319 20.9379C7.14835 20.6182 6.46335 19.956 6.12085 19.1569C6.46335 18.3577 7.14835 17.7184 7.99319 17.3759C8.83803 17.7184 9.52303 18.3577 9.86554 19.1569Z" fill="#39607A"/>
<path d="M27.4483 19.1573C27.1058 19.9565 26.4208 20.5959 25.576 20.9384C24.7311 20.6187 24.0461 19.9565 23.7036 19.1573C24.0461 18.3582 24.7311 17.7188 25.576 17.3763C26.4208 17.7188 27.1058 18.3582 27.4483 19.1573Z" fill="#39607A"/>
<path d="M3.97302 18.4494C3.60769 19.2942 2.87702 19.9792 1.98651 20.3217C1.09601 19.9792 0.365335 19.2942 0 18.4494C0.365335 17.6045 1.09601 16.9195 1.98651 16.577C2.87702 16.9424 3.60769 17.6274 3.97302 18.4494Z" fill="#39607A"/>
<path d="M33.5435 18.4494C33.1781 19.2942 32.4474 19.9792 31.5569 20.3217C30.6664 19.9792 29.9358 19.2942 29.5704 18.4494C29.9358 17.6045 30.6664 16.9195 31.5569 16.577C32.4703 16.9424 33.1781 17.6274 33.5435 18.4494Z" fill="#39607A"/>
<path d="M14.6601 21.5544C14.4318 22.1024 13.9523 22.559 13.3586 22.7874C12.765 22.559 12.2855 22.1252 12.0571 21.5544C12.2855 21.0064 12.765 20.5497 13.3586 20.3214C13.9295 20.5497 14.409 21.0064 14.6601 21.5544Z" fill="#39607A"/>
<path d="M21.51 21.5545C21.2817 22.1025 20.8022 22.5592 20.2085 22.7875C19.6148 22.5592 19.1353 22.1253 18.907 21.5545C19.1353 21.0065 19.6148 20.5498 20.2085 20.3215C20.8022 20.5498 21.2817 21.0065 21.51 21.5545Z" fill="#39607A"/>
</svg>
