<svg width="110" height="35" viewBox="0 0 110 35" fill="none" xmlns="http://www.w3.org/2000/svg">
<path d="M21.3046 0.5C21.3046 9.63937 21.3046 18.7787 21.3046 27.9387C19.452 27.9181 18.5257 27.9181 16.6526 27.8769C13.0298 23.0808 9.55105 18.2024 6.19583 13.2004C6.19583 17.9965 6.19583 22.7926 6.19583 27.5888C4.13742 27.5064 2.05842 27.4035 0 27.28C0 18.3465 0 9.43353 0 0.5C1.85257 0.5 2.77886 0.5 4.65202 0.5C8.1925 5.62546 11.6301 10.8127 15.1088 15.9793C15.1088 10.8127 15.1088 5.66662 15.1088 0.5C17.1672 0.5 19.2462 0.5 21.3046 0.5Z" fill="#074C93"/>
<path d="M45.6163 8.48576C45.6163 14.8669 45.6163 21.2274 45.6163 27.6084C43.6814 27.6702 41.7465 27.7525 39.8116 27.7937C39.8116 27.1144 39.8116 26.7645 39.8116 26.0852C38.5354 27.5879 35.9418 28.473 34.048 28.4112C29.0255 28.2671 24.7852 23.9445 24.7852 18.8808C24.7852 13.7553 28.6344 8.42401 34.048 8.21817C35.9624 8.13584 38.5354 9.02095 39.8116 10.5442C39.8116 9.80315 39.8116 9.41205 39.8116 8.67102C41.7465 8.60927 43.6814 8.54752 45.6163 8.48576ZM39.8116 18.4897C39.8116 16.0196 37.6914 13.8994 35.2007 13.92C32.5866 13.9406 30.5899 16.2048 30.5899 18.7984C30.5899 21.3509 32.6895 23.3269 35.2007 23.2446C37.712 23.1623 39.8116 20.9598 39.8116 18.4897Z" fill="#074C93"/>
<path d="M68.2756 7.66433C65.9907 13.9013 63.8088 20.1589 61.6475 26.4371C60.1037 31.4596 56.0692 35.2059 50.6144 34.9178C50.6144 32.8388 50.6144 31.789 50.6144 29.6894C52.7963 29.7923 54.8341 28.5161 55.4516 26.3753C52.8786 20.3853 50.2644 14.4159 47.7532 8.42595C49.8733 8.34361 52.0141 8.26127 54.1343 8.19952C55.5546 12.0282 56.9955 15.8568 58.4364 19.6855C59.6302 15.7539 60.8447 11.8223 62.0797 7.91134C64.1382 7.80842 66.1966 7.72608 68.2756 7.66433Z" fill="#074C93"/>
<path d="M88.7993 7.47684C86.4527 13.5903 84.2707 19.745 82.1712 25.9614C80.7509 31.0251 76.634 35.1419 71.1381 34.9155C71.1381 32.9806 71.1381 31.0663 71.1381 29.1314C73.3817 29.2343 75.3784 27.8757 75.9753 25.6732C73.5258 19.6215 70.9322 13.6315 68.2769 7.66209C70.397 7.60034 72.5378 7.51801 74.6579 7.49742C76.1194 11.2643 77.5809 15.0106 78.96 18.7981C80.1127 14.9901 81.3272 11.2232 82.6034 7.45625C84.6618 7.45625 86.7203 7.45625 88.7993 7.47684Z" fill="#074C93"/>
<path d="M109.999 8.13877C109.999 14.5199 109.999 20.8804 109.999 27.2615C108.065 27.1585 106.13 27.0556 104.195 26.9733C104.195 26.2322 104.195 25.8617 104.195 25.1207C102.918 26.6233 100.304 27.4261 98.4311 27.3438C93.1204 27.1174 89.2094 21.4773 89.1683 16.5165C89.1271 11.5146 93.388 7.17131 98.4311 7.15073C100.345 7.13014 102.918 8.05643 104.195 9.60024C104.195 8.90038 104.195 8.55045 104.195 7.85059C106.13 7.93293 108.065 8.03585 109.999 8.13877ZM104.195 17.1546C104.174 14.6845 102.075 12.5232 99.5838 12.3585C97.1138 12.2144 94.9318 14.1493 94.973 16.64C95.0142 19.2542 96.9491 21.5596 99.5838 21.6831C102.054 21.8067 104.215 19.6041 104.195 17.1546Z" fill="#074C93"/>
</svg>
