<svg width="169" height="32" viewBox="0 0 169 32" fill="none" xmlns="http://www.w3.org/2000/svg">
<path fill-rule="evenodd" clip-rule="evenodd" d="M21.1119 4.69074V0.195312C21.1119 0.195312 10.0269 0.198469 9.92801 0.202679C8.81695 0.241367 7.72208 0.480949 6.69639 0.909825C5.2588 1.51605 3.99561 2.47213 3.02176 3.69106C2.05402 4.90587 1.38924 6.33353 1.08237 7.85607C0.791954 9.31433 0.831866 10.8191 1.19917 12.2599C1.5391 13.5856 2.15516 14.8245 3.00703 15.8956C3.89439 17.0121 5.02437 17.9118 6.31125 18.5264C7.70713 19.1928 9.25044 19.4906 10.7941 19.3914C11.8962 19.3156 12.9761 19.0448 13.9836 18.5916L14.0299 18.5706L14.0846 18.5443C14.447 18.3748 14.7981 18.1822 15.1359 17.9676C15.2064 17.9234 15.2748 17.8771 15.3442 17.8319L15.3653 17.8172L15.3674 17.8161L15.3884 17.8003C16.4252 17.0903 17.3114 16.1823 17.996 15.1285C18.1396 14.9082 18.273 14.6813 18.3959 14.4487C18.8797 13.5355 19.2184 12.5524 19.3998 11.5349C19.7087 9.78968 19.546 7.9936 18.9283 6.33233C18.7541 5.86045 18.54 5.40422 18.2885 4.96855C18.2475 4.8991 18.1412 4.75388 18.1033 4.68969H21.1119V4.69074ZM10.2269 14.9317H10.2216C7.47299 14.9317 5.24632 12.6388 5.24632 9.81124C5.24632 6.98266 7.47299 4.69074 10.2216 4.69074C10.2658 4.69074 10.3111 4.69074 10.3542 4.6939H10.3752C10.7794 4.70583 11.1804 4.76912 11.5685 4.88226C13.6626 5.48628 15.1969 7.46356 15.1969 9.81124C15.1969 12.4399 13.2712 14.6076 10.792 14.897L10.6625 14.9117H10.6594C10.5425 14.9226 10.4253 14.929 10.3079 14.9307L10.2269 14.9317Z" fill="#29AA6B"/>
<path fill-rule="evenodd" clip-rule="evenodd" d="M10.3525 31.7312C4.64486 31.7312 0 26.9517 0 21.0767C0 18.971 0.596655 17.0053 1.62686 15.3522C2.63707 17.0748 3.7746 18.0334 4.85953 18.6711C4.54304 19.4336 4.38067 20.2511 4.38178 21.0767C4.38178 24.4651 7.06094 27.2221 10.3525 27.2221C13.6462 27.2221 16.3233 24.4651 16.3233 21.0767C16.3262 19.9187 16.0062 18.7829 15.3994 17.7966C14.346 16.0846 12.4919 14.9428 10.382 14.9323H10.2999L10.1715 14.9344C8.06589 14.9144 6.27277 13.5496 5.56667 11.6323C7.03649 10.8371 8.68143 10.4212 10.3525 10.4221C11.9381 10.4208 13.5013 10.7951 14.9143 11.5144C16.2813 12.2094 17.4782 13.1975 18.4195 14.4082C19.9064 16.3125 20.7113 18.6607 20.7051 21.0767C20.7051 26.9517 16.0613 31.7312 10.3525 31.7312Z" fill="#008EB1"/>
<path fill-rule="evenodd" clip-rule="evenodd" d="M19.0943 6.82442C17.2359 5.95312 14.1527 5.24281 11.5724 4.88293C11.1822 4.76904 10.7791 4.70539 10.3728 4.69351L18.1009 4.69141C18.1398 4.75454 18.2451 4.90187 18.2861 4.97132C18.5386 5.40381 18.7491 5.86262 18.9259 6.33405C18.9859 6.4961 19.0416 6.66026 19.0943 6.82442ZM15.3986 17.7926C15.395 17.7961 15.3911 17.7992 15.387 17.802L15.3649 17.8178H15.3628L15.3407 17.8336C15.2712 17.8788 15.2039 17.9251 15.1323 17.9704C14.795 18.1845 14.4442 18.3768 14.0821 18.546C13.5728 17.3117 12.1912 15.7227 10.4117 14.9755L10.3086 14.9335C10.343 14.9324 10.3774 14.9324 10.4117 14.9335C12.5111 14.9513 14.3473 16.0878 15.3975 17.7926" fill="#0D7B4D"/>
<path fill-rule="evenodd" clip-rule="evenodd" d="M42.3811 14.9071V19.2552H47.5343C46.7808 21.344 44.7635 23.1045 41.8171 23.1045C37.6521 23.1045 35.0582 19.935 35.0582 16.2435C35.0582 11.6565 37.9404 8.82371 41.9813 8.82371C43.6492 8.82371 45.8085 9.30356 47.0839 11.3934H52.2444C50.6343 6.64229 46.3567 4.30408 41.915 4.30408C35.4749 4.30408 30.3796 9.1836 30.3796 16.2761C30.3796 22.4763 35.1203 27.6557 41.7866 27.6557C44.7909 27.6557 47.0397 26.6244 48.5476 24.986V27.1927H52.7958V14.9081H42.3811V14.9071ZM66.302 21.5523C65.2761 22.8393 64.0585 23.5307 62.9368 23.5307C60.8532 23.5307 59.6357 22.1795 59.6357 19.6729V11.3934H55.1803V20.1012C55.1803 24.6861 57.8721 27.6883 61.9097 27.6883C63.6408 27.6883 65.0509 27.0938 66.301 26.0709V27.1927H70.7554V11.3934H66.301V21.5523H66.302ZM84.6794 12.3184C83.4935 11.526 82.0518 11.0641 80.3208 11.0641C76.0906 11.0641 72.6611 14.6587 72.6611 19.3099C72.6611 23.8948 76.0906 27.5221 80.3208 27.5221C82.0518 27.5221 83.4935 27.0611 84.6794 26.2698V27.1927H89.1338V11.3934H84.6794V12.3174V12.3184ZM84.6794 21.8165C83.6861 23.1687 82.3717 23.6306 81.0574 23.6306C78.7181 23.6306 77.0839 21.6186 77.0839 19.3099C77.0839 16.9675 78.7181 14.9228 81.0574 14.9228C82.3728 14.9228 83.6861 15.3848 84.6794 16.7707V21.8165ZM96.3673 11.3934H91.9119V27.1927H96.3663V17.7588C97.648 16.3066 99.3475 15.5805 101.751 15.4827V11.1293C99.4748 11.1293 97.7448 11.8554 96.3663 13.175V11.3924L96.3673 11.3934ZM114.183 12.3184C112.997 11.526 111.555 11.0641 109.825 11.0641C105.595 11.0641 102.164 14.6924 102.164 19.2773C102.164 23.9274 105.595 27.5221 109.825 27.5221C111.555 27.5221 112.997 27.0611 114.184 26.2698V27.1927H118.638V4.62398H114.184V12.3174L114.183 12.3184ZM114.183 21.8165C113.189 23.2013 111.876 23.6633 110.562 23.6633C108.223 23.6633 106.587 21.6186 106.587 19.2773C106.587 16.9675 108.223 14.9565 110.562 14.9565C111.876 14.9565 113.189 15.4174 114.184 16.7707V21.8165H114.183ZM140.332 12.3184C139.146 11.526 137.704 11.0641 135.973 11.0641C131.743 11.0641 128.313 14.6587 128.313 19.3099C128.313 23.8948 131.743 27.5221 135.974 27.5221C137.704 27.5221 139.145 27.0611 140.331 26.2698V27.1927H144.786V11.3934H140.331V12.3174L140.332 12.3184ZM140.332 21.8165C139.338 23.1687 138.025 23.6306 136.71 23.6306C134.371 23.6306 132.736 21.6186 132.736 19.3099C132.736 16.9675 134.371 14.9228 136.71 14.9228C138.025 14.9228 139.338 15.3848 140.331 16.7707V21.8165H140.332ZM156.274 10.8988C154.543 10.8988 153.133 11.4923 151.883 12.5152V11.3924H147.428V27.1916H151.883V17.0327C152.909 15.7468 154.126 15.0544 155.248 15.0544C157.331 15.0544 158.549 16.4066 158.549 18.9132V27.1916H163.004V18.5175C163.004 13.899 160.311 10.8988 156.274 10.8988ZM121.769 27.1927H126.223V11.3924H121.769V27.1927ZM121.769 9.20885H126.223V4.62608H121.769V9.20885ZM168.221 10.258C168.221 11.1661 167.495 11.8449 166.632 11.8449C165.77 11.8449 165.045 11.1661 165.045 10.258C165.045 9.35091 165.77 8.66481 166.633 8.66481C167.496 8.66481 168.221 9.35091 168.221 10.258ZM167.867 10.258C167.869 9.92543 167.74 9.60551 167.507 9.3677C167.275 9.1299 166.958 8.99341 166.625 8.98787C165.965 8.98787 165.391 9.54559 165.391 10.258C165.391 10.9641 165.965 11.5155 166.625 11.5155C167.292 11.5155 167.867 10.9641 167.867 10.258ZM166.92 10.4474L167.305 10.9578H166.979L166.62 10.48H166.364V10.9578H166.11V9.48456H166.711C167.024 9.48456 167.26 9.6866 167.26 9.98966C167.26 10.218 167.123 10.379 166.92 10.4464V10.4474ZM166.704 10.238C166.875 10.238 166.992 10.137 166.992 9.9823C166.992 9.83497 166.875 9.73395 166.704 9.73395H166.364V10.2391H166.704V10.238Z" fill="#123F50"/>
</svg>
