<svg width="35" height="35" viewBox="0 0 35 35" fill="none" xmlns="http://www.w3.org/2000/svg">
<circle cx="17.5" cy="17.5" r="17.5" fill="#E97F5D"/>
<path d="M24.1348 25.6312H11.7811C11.1996 25.6312 10.7266 25.1581 10.7266 24.5766V24.2753C10.7266 23.6938 11.1996 23.2207 11.7811 23.2207H24.1348C24.7163 23.2207 25.1894 23.6938 25.1894 24.2753V24.5766C25.1894 25.1581 24.7163 25.6312 24.1348 25.6312Z" fill="#FFF8EC"/>
<path d="M17.6561 21.1706C17.4743 21.1706 17.3004 21.0961 17.1753 20.9648L12.5176 16.0853C12.113 15.6621 12.4138 14.9603 12.9984 14.9603H15.4382V9.85898C15.4382 9.24771 15.9359 8.75 16.5472 8.75H18.7651C19.3764 8.75 19.8741 9.24771 19.8741 9.85898V14.9603H22.3139C22.8985 14.9603 23.1993 15.6621 22.7947 16.0853L18.137 20.9648C18.0119 21.0961 17.838 21.1706 17.6561 21.1706Z" fill="url(#paint0_linear)"/>
<path d="M17.6561 8.75H16.5472C15.9359 8.75 15.4382 9.24771 15.4382 9.85898V14.9603H12.9984C12.4138 14.9603 12.113 15.6621 12.5176 16.0853L17.1753 20.9648C17.3004 21.0961 17.4743 21.1706 17.6561 21.1706V8.75Z" fill="url(#paint1_linear)"/>
<defs>
<linearGradient id="paint0_linear" x1="22.9803" y1="21.1706" x2="16.2623" y2="6.82206" gradientUnits="userSpaceOnUse">
<stop stop-color="#FFFBD8"/>
<stop offset="1" stop-color="#FDDAE0"/>
</linearGradient>
<linearGradient id="paint1_linear" x1="14.3078" y1="14.1143" x2="19.1815" y2="15.2592" gradientUnits="userSpaceOnUse">
<stop stop-color="#FFF5F7"/>
<stop offset="1" stop-color="#FFFBD8"/>
</linearGradient>
</defs>
</svg>
