<svg width="474" height="264" viewBox="0 0 474 264" fill="none" xmlns="http://www.w3.org/2000/svg">
<g opacity="0.42">
<path opacity="0.42" d="M380.86 142.006C379.504 147.611 378.944 153.378 379.195 159.139C379.214 161.758 379.693 164.354 380.61 166.808C381.078 168.034 381.785 169.154 382.689 170.105C383.593 171.056 384.677 171.819 385.877 172.348C390.455 174.132 395.591 171.159 398.682 167.331C401.724 163.553 403.6 158.971 404.08 154.145" stroke="#074C93" stroke-width="0.891728" stroke-miterlimit="10"/>
<path opacity="0.42" d="M388.246 173.228C388.631 173.843 388.836 174.554 388.836 175.279C388.836 176.004 388.631 176.715 388.246 177.33L389.293 176.141" stroke="#074C93" stroke-width="0.891728" stroke-miterlimit="10"/>
<path opacity="0.42" d="M397.946 168.056C397.295 169.425 396.912 170.906 396.817 172.419C396.7 173.172 396.874 173.942 397.304 174.571C397.417 174.719 397.561 174.84 397.726 174.925C397.891 175.01 398.074 175.057 398.259 175.063C398.445 175.068 398.63 175.032 398.8 174.958C398.97 174.883 399.121 174.771 399.242 174.631" stroke="#074C93" stroke-width="0.891728" stroke-miterlimit="10"/>
<path opacity="0.42" d="M354.548 149.377C354.252 147.683 354.555 145.939 355.404 144.443C355.526 144.197 355.71 143.988 355.939 143.836C356.533 143.492 357.318 144.027 357.508 144.692C357.624 145.379 357.541 146.084 357.27 146.726C357.008 147.369 356.975 148.082 357.175 148.747C357.476 149.246 357.848 149.699 358.281 150.09C358.587 150.477 358.813 150.921 358.945 151.396C359.077 151.872 359.114 152.368 359.052 152.858C358.99 153.347 358.831 153.819 358.584 154.246C358.337 154.674 358.008 155.047 357.615 155.346" stroke="#074C93" stroke-width="0.891728" stroke-miterlimit="10"/>
<path opacity="0.42" d="M348.508 153.825C349.021 154.764 349.764 155.558 350.666 156.133C351.568 156.709 352.6 157.048 353.668 157.118C354.264 157.174 354.863 157.054 355.392 156.774C355.654 156.633 355.87 156.418 356.011 156.156C356.153 155.894 356.215 155.596 356.189 155.299" stroke="#074C93" stroke-width="0.891728" stroke-miterlimit="10"/>
<path opacity="0.42" d="M352.633 156.677C355.677 164.858 354.381 174.512 358.923 181.943" stroke="#074C93" stroke-width="0.891728" stroke-miterlimit="10"/>
<path opacity="0.42" d="M358.556 154.978C358.556 154.74 358.199 155.085 358.27 155.323C359.985 161.989 362.215 168.512 364.94 174.834" stroke="#074C93" stroke-width="0.891728" stroke-miterlimit="10"/>
<path opacity="0.42" d="M363.977 171.873C370.212 175.093 377.091 176.873 384.106 177.081" stroke="#074C93" stroke-width="0.891728" stroke-miterlimit="10"/>
<path opacity="0.42" d="M357.805 179.624C363.991 183.799 371.215 186.174 378.671 186.484" stroke="#074C93" stroke-width="0.891728" stroke-miterlimit="10"/>
<path opacity="0.42" d="M387.531 176.677C387.238 177.441 387.046 178.241 386.96 179.055C386.881 179.884 387.128 180.712 387.649 181.361C388.672 182.55 390.479 182.396 391.93 181.896C393.85 181.214 395.557 180.041 396.882 178.493C398.207 176.945 399.102 175.077 399.48 173.074C399.542 172.865 399.56 172.645 399.533 172.428C399.507 172.211 399.436 172.002 399.325 171.814" stroke="#074C93" stroke-width="0.891728" stroke-miterlimit="10"/>
<path opacity="0.42" d="M397.973 174.369C399.485 175.457 401.218 176.2 403.05 176.545C404.543 176.703 406.024 176.957 407.484 177.306C409.286 177.897 410.795 179.151 411.705 180.813" stroke="#074C93" stroke-width="0.891728" stroke-miterlimit="10"/>
<path opacity="0.42" d="M379.716 183.382C378.662 188.2 378.093 193.111 378.016 198.042C378.016 200.622 378.111 203.368 379.549 205.52" stroke="#074C93" stroke-width="0.891728" stroke-miterlimit="10"/>
<path opacity="0.42" d="M407.329 183.12C405.067 187.77 403.325 192.654 402.133 197.685C400.933 202.743 401.176 208.036 402.834 212.963" stroke="#074C93" stroke-width="0.891728" stroke-miterlimit="10"/>
<path opacity="0.42" d="M402.687 213.605C402.377 214.973 402.449 215.829 401.093 216.162C399.589 217.685 397.773 218.865 395.77 219.62C393.767 220.375 391.624 220.688 389.489 220.537C383.889 220.109 378.99 216.53 373.462 215.543C374.602 214.724 375.554 213.669 376.253 212.451C376.953 211.233 377.383 209.879 377.516 208.481C377.754 205.698 377.59 202.895 377.029 200.158" stroke="#074C93" stroke-width="0.891728" stroke-miterlimit="10"/>
<path opacity="0.42" d="M410.121 177.973C416.033 182.979 420.981 189.023 424.722 195.807" stroke="#074C93" stroke-width="0.891728" stroke-miterlimit="10"/>
<path opacity="0.42" d="M404.521 188.364C404.593 188.364 404.45 188.257 404.426 188.364C404.402 188.471 404.485 188.495 404.545 188.53C409.209 191.154 413.372 194.584 416.839 198.66" stroke="#074C93" stroke-width="0.891728" stroke-miterlimit="10"/>
<path opacity="0.42" d="M419.001 195.176C416.623 196.686 415.28 199.29 413.829 201.668C412.378 204.045 410.5 206.423 407.789 207.196" stroke="#074C93" stroke-width="0.891728" stroke-miterlimit="10"/>
<path opacity="0.42" d="M425.291 198.291C423.864 200.503 422.334 202.639 420.702 204.7C419.568 206.213 418.25 207.579 416.778 208.766C415.289 209.951 413.47 210.648 411.57 210.763" stroke="#074C93" stroke-width="0.891728" stroke-miterlimit="10"/>
<path opacity="0.42" d="M413.797 213.118C413.552 211.607 412.911 210.187 411.94 209.003C410.969 207.819 409.702 206.913 408.268 206.377C407.864 206.222 407.079 207.625 406.639 207.649C405.758 207.686 404.895 207.904 404.103 208.291C403.311 208.678 402.608 209.224 402.038 209.896C401.477 210.579 401.118 211.405 401 212.281C400.883 213.156 401.011 214.047 401.372 214.854C401.761 215.647 402.409 216.283 403.209 216.657C404.009 217.031 404.913 217.121 405.771 216.911" stroke="#074C93" stroke-width="0.891728" stroke-miterlimit="10"/>
<path opacity="0.42" d="M379.207 142.397C380.509 147.284 383.527 151.539 387.708 154.382C389.721 155.9 392.192 156.684 394.711 156.606C395.964 156.54 397.161 156.068 398.122 155.261C399.083 154.455 399.756 153.358 400.038 152.135" stroke="#074C93" stroke-width="0.891728" stroke-miterlimit="10"/>
<path opacity="0.42" d="M387.887 147.867C388.925 149.964 390.543 151.719 392.55 152.922C394.557 154.126 396.867 154.728 399.206 154.656C401.001 154.561 403.153 153.586 403.118 151.802" stroke="#074C93" stroke-width="0.891728" stroke-miterlimit="10"/>
<path opacity="0.42" d="M401.011 159.722C401.041 159.005 401.331 158.324 401.829 157.807C402.326 157.29 402.995 156.973 403.71 156.916C404.191 156.958 404.651 157.131 405.041 157.416C405.43 157.701 405.735 158.087 405.921 158.533C406.286 159.433 406.332 160.432 406.052 161.362C405.618 162.888 404.651 164.207 403.327 165.08C402.002 165.953 400.408 166.321 398.835 166.118" stroke="#074C93" stroke-width="0.891728" stroke-miterlimit="10"/>
<path opacity="0.42" d="M381.953 137.072C384.913 134.361 389.479 133.921 393.295 135.169C397.072 136.608 400.419 138.986 403.021 142.077C408.312 147.856 407.611 156.083 411.118 162.86C411.77 164.251 412.668 165.512 413.769 166.582C414.322 167.113 414.977 167.528 415.694 167.799C416.412 168.071 417.176 168.195 417.943 168.163C416.92 170.541 412.913 171.302 410.44 172.075C407.933 172.72 405.347 173.004 402.76 172.919" stroke="#074C93" stroke-width="0.891728" stroke-miterlimit="10"/>
<path opacity="0.42" d="M387.09 170.125C385.292 171.672 382.967 172.465 380.599 172.338C378.231 172.212 376.003 171.177 374.38 169.448C375.39 168.925 376.674 169.686 377.352 168.782C374.974 161.113 372.596 152.814 375.212 145.24C375.355 144.605 375.644 144.011 376.057 143.508C376.47 143.004 376.995 142.604 377.59 142.339C377.756 139.093 382.251 135.122 385.485 135.205" stroke="#074C93" stroke-width="0.891728" stroke-miterlimit="10"/>
<path opacity="0.42" d="M386.031 160.126C385.703 160.15 385.387 160.26 385.114 160.445C384.841 160.629 384.621 160.881 384.475 161.177C384.33 161.472 384.264 161.801 384.285 162.129C384.306 162.458 384.412 162.776 384.593 163.051C384.826 163.292 385.112 163.476 385.428 163.587C385.745 163.698 386.083 163.733 386.415 163.691C386.748 163.648 387.066 163.528 387.344 163.341C387.622 163.153 387.853 162.903 388.017 162.611" stroke="#074C93" stroke-width="0.891728" stroke-miterlimit="10"/>
<path opacity="0.42" d="M386.344 166.713C387.427 167.058 388.579 167.13 389.697 166.922C390.815 166.715 391.864 166.235 392.752 165.524" stroke="#074C93" stroke-width="0.891728" stroke-miterlimit="10"/>
</g>
<path d="M282.983 7.52257C136.05 -15.5554 -1.1813 12.3736 0.00766981 120.475C1.11341 217.959 125.123 224.878 223.451 222.441C332.622 219.754 399.514 250.37 448.083 186.023C503.466 112.687 428.537 30.3746 282.983 7.52257Z" fill="#F4C8CF"/>
<path d="M246.127 174.121C247.435 174.739 248.077 175.405 247.899 176.285C247.72 177.165 246.71 177.807 245.426 177.866L246.127 174.121Z" fill="#074C93"/>
<path d="M321.636 152.239C334.54 129.923 302.272 120.884 298.705 135.442C296.085 146.217 320.91 130.385 299.869 120.769C281.502 112.331 263.174 136.726 263.174 136.726" stroke="#074C93" stroke-width="0.891728" stroke-miterlimit="10"/>
<path d="M59.1102 89.7867C54.8655 87.7654 55.674 78.86 61.1433 73.6999C66.6126 68.5398 79.0492 55.8653 80.4641 49.6113C81.879 43.3574 90.4871 35.6528 95.5403 40.2066C95.5403 40.2066 103.031 37.8286 107.18 46.2703C111.33 54.712 106.574 72.7844 108.797 78.6579C111.021 84.5314 116.086 86.2436 114.267 91.7366" fill="#074C93"/>
<path d="M59.1102 89.7867C54.8655 87.7654 55.674 78.86 61.1433 73.6999C66.6126 68.5398 79.0492 55.8653 80.4641 49.6113C81.879 43.3574 90.4871 35.6528 95.5403 40.2066C95.5403 40.2066 103.031 37.8286 107.18 46.2703C111.33 54.712 106.574 72.7844 108.797 78.6579C111.021 84.5314 116.086 86.2436 114.267 91.7366" stroke="#204484" stroke-width="0.891728" stroke-miterlimit="10"/>
<path d="M191.027 110.831C185.082 105.338 171.409 113.007 179.399 128.119C177.449 133.041 175.748 133.707 181.384 136.905C187.02 140.103 198.327 144.966 199.457 142.327C200.586 139.687 203.142 135.193 203.142 135.193C203.142 135.193 225.471 137.571 226.185 136.667C226.898 135.764 225.281 134.42 225.281 134.42L208.564 126.93C208.564 126.93 211.75 122.911 210.312 120.985C208.873 119.059 191.027 110.831 191.027 110.831Z" stroke="#204484" stroke-width="0.891728" stroke-miterlimit="10"/>
<path d="M175.07 115.896C178.542 116.146 177.686 112.329 179.279 112.543C181.275 113.036 183.364 113.004 185.343 112.448C188.054 111.58 182.965 109.761 178.102 108.477C173.239 107.193 170.207 108.905 167.52 110.855C164.833 112.805 133.896 117.252 133.896 117.252L122.684 106.634L114.659 116.253C114.468 116.467 128.106 128.939 131.483 128.678C134.859 128.416 169.827 118.821 169.827 118.821C169.827 118.821 178.649 122.923 180.98 121.116C183.31 119.309 186.77 113.792 185.343 112.401" fill="white"/>
<path d="M175.07 115.896C178.542 116.146 177.686 112.329 179.279 112.543C181.275 113.036 183.364 113.004 185.343 112.448C188.054 111.58 182.965 109.761 178.102 108.477C173.239 107.193 170.207 108.905 167.52 110.855C164.833 112.805 133.896 117.252 133.896 117.252L122.684 106.634L114.659 116.253C114.468 116.467 128.106 128.939 131.483 128.678C134.859 128.416 169.827 118.821 169.827 118.821C169.827 118.821 178.649 122.923 180.98 121.116C183.31 119.309 186.77 113.792 185.343 112.401" stroke="#204484" stroke-width="0.891728" stroke-miterlimit="10"/>
<path d="M122.769 254.625C122.769 254.625 122.769 187.437 119.725 169.424C116.681 151.411 104.268 139.366 104.268 139.366H73.4857C66.1022 145.941 59.0159 171.469 57.601 198.97C56.1862 226.471 47.2808 254.625 47.2808 254.625" fill="white"/>
<path d="M122.769 254.625C122.769 254.625 122.769 187.437 119.725 169.424C116.681 151.411 104.268 139.366 104.268 139.366H73.4857C66.1022 145.941 59.0159 171.469 57.601 198.97C56.1862 226.471 47.2808 254.625 47.2808 254.625" stroke="#204484" stroke-width="0.891728" stroke-miterlimit="10"/>
<path d="M80.8686 82.605C80.8686 82.605 61.8451 83.794 57.8026 93.1274C53.7601 102.461 50.0029 121.556 50.0029 121.556L66.6485 124.492C66.6485 124.492 68.6698 116.8 69.4783 115.789C70.2868 114.779 73.4257 139.366 73.4257 139.366H104.184C104.184 139.366 106.075 110.712 106.99 111.117C107.906 111.521 116.443 121.199 116.443 121.199L128.891 110.403C128.891 110.403 115.575 90.7851 111.532 88.3596C107.49 85.9341 96.8603 82.8903 96.8603 82.8903" fill="#AFDCE2"/>
<path d="M80.8686 82.605C80.8686 82.605 61.8451 83.794 57.8026 93.1274C53.7601 102.461 50.0029 121.556 50.0029 121.556L66.6485 124.492C66.6485 124.492 68.6698 116.8 69.4783 115.789C70.2868 114.779 73.4257 139.366 73.4257 139.366H104.184C104.184 139.366 106.075 110.712 106.99 111.117C107.906 111.521 116.443 121.199 116.443 121.199L128.891 110.403C128.891 110.403 115.575 90.7851 111.532 88.3596C107.49 85.9341 96.8603 82.8903 96.8603 82.8903" stroke="#204484" stroke-width="0.891728" stroke-miterlimit="10"/>
<path d="M95.3389 74.1041C94.7325 78.3487 96.0522 82.201 96.8607 82.9025C97.6692 83.604 94.4828 96.1595 91.7363 99.5481C81.8203 87.5038 80.5718 83.4613 80.8691 82.6528C81.1663 81.8443 85.1256 73.2362 83.247 63.9265" fill="white"/>
<path d="M95.3389 74.1041C94.7325 78.3487 96.0522 82.201 96.8607 82.9025C97.6692 83.604 94.4828 96.1595 91.7363 99.5481C81.8203 87.5038 80.5718 83.4613 80.8691 82.6528C81.1663 81.8443 85.1256 73.2362 83.247 63.9265" stroke="#204484" stroke-width="0.891728" stroke-miterlimit="10"/>
<path d="M103.842 64.7944C102.522 71.3694 98.3845 76.9338 91.9521 76.0302C85.5198 75.1266 83.3559 66.6135 82.7495 62.3689" fill="white"/>
<path d="M103.842 64.7944C102.522 71.3694 98.3845 76.9338 91.9521 76.0302C85.5198 75.1266 83.3559 66.6135 82.7495 62.3689" stroke="#204484" stroke-width="0.891728" stroke-miterlimit="10"/>
<path d="M82.7968 62.3691C81.9038 62.1746 81.0857 61.7269 80.4404 61.0796C79.7952 60.4322 79.3502 59.6127 79.1586 58.719C78.4452 55.5801 81.8813 53.4637 83.6053 57.102C86.1379 57.102 92.2016 49.1121 97.4687 45.6641C97.4687 45.6641 104.745 51.9537 105.15 59.7415C107.171 59.2302 108.716 63.8791 103.64 65.8052" fill="white"/>
<path d="M82.7968 62.3691C81.9038 62.1746 81.0857 61.7269 80.4404 61.0796C79.7952 60.4322 79.3502 59.6127 79.1586 58.719C78.4452 55.5801 81.8813 53.4637 83.6053 57.102C86.1379 57.102 92.2016 49.1121 97.4687 45.6641C97.4687 45.6641 104.745 51.9537 105.15 59.7415C107.171 59.2302 108.716 63.8791 103.64 65.8052" stroke="#204484" stroke-width="0.891728" stroke-miterlimit="10"/>
<path d="M63.6897 123.969L60.8837 135.93C60.6841 141.784 59.7779 147.593 58.1848 153.23C55.6047 161.885 50.0284 184.048 50.0284 184.048C50.0284 184.048 49.0178 195.426 50.0284 198.161C51.0391 200.895 47.6505 201.216 47.3057 196.972C46.9609 192.727 46.2951 192.537 45.332 193.833C44.3689 195.129 40.8496 204.236 39.4823 204.462C38.1149 204.688 41.1587 197.804 40.7782 196.996C40.3978 196.187 34.6313 204.688 33.6444 203.856C32.6576 203.024 38.4003 195.533 37.7464 194.974C37.0924 194.416 31.8015 201.882 30.7552 200.812C29.7089 199.742 35.844 193.904 35.0831 193.298C34.3221 192.692 30.9811 197.174 29.9943 196.187C29.0074 195.2 42.1456 183.739 43.6555 181.919C45.1655 180.1 47.6267 155.132 47.2225 150.804C46.8182 146.476 50.4327 134.337 50.4327 134.337L51.9783 121.912L63.6897 123.969Z" fill="white" stroke="#204484" stroke-width="0.891728" stroke-miterlimit="10"/>
<path d="M73.4861 139.367H104.245L104.459 136.335H73.0938L73.4861 139.367Z" fill="#074C93" stroke="#204484" stroke-width="0.891728" stroke-miterlimit="10"/>
<path d="M91.1072 75.8396C88.4083 76.6363 83.3789 73.8897 83.3789 73.8897L84.0566 67.6357C84.0566 67.6357 86.2205 74.829 91.1072 75.8396Z" fill="#074C93" stroke="#204484" stroke-width="0.891728" stroke-miterlimit="10"/>
<path d="M229.099 136.655C229.693 136.572 230.288 136.525 230.882 136.501" stroke="white" stroke-width="0.891728" stroke-miterlimit="10"/>
<path d="M234.602 136.751C244.292 138.427 253.542 147.25 257.002 152.671" stroke="white" stroke-width="0.891728" stroke-miterlimit="10" stroke-dasharray="3.75 3.75"/>
<path d="M257.93 154.312C258.206 154.838 258.384 155.411 258.453 156.001" stroke="white" stroke-width="0.891728" stroke-miterlimit="10"/>
<path d="M227.789 138.463C232.735 139.474 236.873 147.166 236.873 147.166" stroke="white" stroke-width="0.891728" stroke-miterlimit="10" stroke-dasharray="3.57 3.57"/>
<path d="M221.598 139.201C214.464 140.39 204.809 148.582 203.395 159.509" stroke="white" stroke-width="0.891728" stroke-miterlimit="10" stroke-dasharray="3.57 3.57"/>
<path d="M223.879 140.282C220.799 143.516 221.596 148.379 221.596 148.379" stroke="white" stroke-width="0.891728" stroke-miterlimit="10" stroke-dasharray="3.57 3.57"/>
<path d="M189.328 112.247C193.276 113.614 207.852 120.451 207.995 121.818C208.138 123.185 205.415 127.121 205.415 127.121L189.328 112.247Z" fill="#074C93"/>
<path d="M235.586 188.352C244.733 188.352 252.148 180.937 252.148 171.79C252.148 162.643 244.733 155.228 235.586 155.228C226.439 155.228 219.023 162.643 219.023 171.79C219.023 180.937 226.439 188.352 235.586 188.352Z" fill="#F4C8CF" stroke="#074C93" stroke-width="0.891728" stroke-miterlimit="10"/>
<path d="M239.325 161.899L239.134 162.897C240.494 163.273 241.78 163.876 242.939 164.681C243.135 164.819 243.3 164.996 243.422 165.201C243.545 165.406 243.624 165.635 243.653 165.873C243.682 166.11 243.661 166.351 243.592 166.58C243.522 166.809 243.405 167.021 243.248 167.202C242.979 167.52 242.603 167.727 242.19 167.784C241.777 167.841 241.358 167.744 241.013 167.511C240.237 166.971 239.393 166.536 238.504 166.215L237.696 170.531C240.918 171.72 243.213 173.61 242.559 176.678C241.857 180.007 238.992 181.338 235.71 181.196L235.484 182.385C235.404 182.776 235.173 183.119 234.842 183.342C234.51 183.564 234.105 183.647 233.713 183.574C233.321 183.491 232.977 183.257 232.755 182.924C232.533 182.591 232.45 182.184 232.524 181.79L232.738 180.684C231.084 180.241 229.524 179.5 228.136 178.497C227.942 178.349 227.781 178.161 227.665 177.947C227.548 177.732 227.478 177.495 227.458 177.252C227.439 177.008 227.472 176.764 227.554 176.534C227.636 176.303 227.766 176.093 227.934 175.917C228.236 175.593 228.649 175.396 229.091 175.365C229.532 175.334 229.968 175.472 230.312 175.75C231.239 176.457 232.275 177.007 233.38 177.379L234.188 173.027L234.046 172.968C230.835 171.779 228.707 169.936 229.385 166.738C230.063 163.54 232.785 162.172 236.198 162.339L236.388 161.304C236.468 160.911 236.701 160.565 237.035 160.343C237.369 160.12 237.777 160.038 238.171 160.115C238.558 160.204 238.895 160.439 239.111 160.773C239.326 161.106 239.403 161.51 239.325 161.899ZM234.795 169.449L235.496 165.727C234.176 165.787 233.273 166.31 233.118 167.285C232.964 168.26 233.534 168.866 234.795 169.449ZM237.018 174.121L236.317 177.867C237.624 177.867 238.576 177.296 238.79 176.285C239.004 175.275 238.326 174.704 237.018 174.121Z" fill="white"/>
<path d="M231.188 211.371C234.612 193.108 250.366 189.398 253.493 194.725C256.62 200.052 243.315 217.458 231.568 215.675" fill="white"/>
<path d="M231.188 211.371C234.612 193.108 250.366 189.398 253.493 194.725C256.62 200.052 243.315 217.458 231.568 215.675" stroke="#074C93" stroke-width="0.891728" stroke-miterlimit="10"/>
<path d="M232.465 233.45C228.066 217.672 208.186 212.048 207.734 222.571C207.282 233.093 228.28 241.951 233.357 240.964" fill="white"/>
<path d="M232.465 233.45C228.066 217.672 208.186 212.048 207.734 222.571C207.282 233.093 228.28 241.951 233.357 240.964" stroke="#074C93" stroke-width="0.891728" stroke-miterlimit="10"/>
<path d="M232.688 188.091C228.075 214.736 235.007 251.713 235.007 251.713" stroke="#074C93" stroke-width="0.891728" stroke-miterlimit="10"/>
<path d="M233.24 239.109C229.899 229.134 218.973 225.056 218.973 225.056L233.24 239.109Z" fill="white"/>
<path d="M233.24 239.109C229.899 229.134 218.973 225.056 218.973 225.056" stroke="#074C93" stroke-width="0.891728" stroke-miterlimit="10"/>
<path d="M231.262 213.94C234.674 205.153 248.609 197.9 248.609 197.9L231.262 213.94Z" fill="white"/>
<path d="M231.262 213.94C234.674 205.153 248.609 197.9 248.609 197.9" stroke="#074C93" stroke-width="0.891728" stroke-miterlimit="10"/>
<path d="M285.281 200.444C294.428 200.444 301.843 193.029 301.843 183.882C301.843 174.735 294.428 167.319 285.281 167.319C276.134 167.319 268.719 174.735 268.719 183.882C268.719 193.029 276.134 200.444 285.281 200.444Z" stroke="#074C93" stroke-width="0.891728" stroke-miterlimit="10"/>
<path d="M289.012 173.977L288.822 174.976C290.18 175.361 291.466 175.968 292.626 176.772C292.822 176.909 292.987 177.086 293.11 177.292C293.233 177.497 293.311 177.726 293.34 177.963C293.37 178.201 293.349 178.442 293.279 178.671C293.209 178.9 293.092 179.111 292.936 179.292C292.667 179.611 292.289 179.818 291.875 179.873C291.462 179.928 291.043 179.827 290.7 179.589C289.931 179.049 289.09 178.617 288.203 178.305L287.395 182.621C290.605 183.81 292.9 185.701 292.258 188.768C291.545 192.086 288.691 193.417 285.409 193.286L285.184 194.475C285.103 194.869 284.871 195.214 284.537 195.437C284.203 195.66 283.794 195.741 283.4 195.664C283.205 195.626 283.019 195.549 282.853 195.439C282.687 195.328 282.545 195.186 282.434 195.02C282.324 194.854 282.247 194.668 282.209 194.473C282.171 194.277 282.171 194.076 282.211 193.881L282.413 192.775C280.766 192.33 279.211 191.593 277.824 190.599C277.628 190.451 277.466 190.263 277.348 190.048C277.23 189.833 277.159 189.596 277.139 189.351C277.119 189.107 277.15 188.861 277.231 188.629C277.312 188.398 277.441 188.186 277.61 188.007C277.912 187.683 278.326 187.486 278.768 187.458C279.21 187.429 279.646 187.57 279.988 187.853C280.915 188.559 281.951 189.109 283.055 189.482L283.876 185.13L283.733 185.071C280.511 183.882 278.394 182.039 279.06 178.84C279.726 175.642 282.473 174.263 285.885 174.429L286.075 173.407C286.156 173.013 286.388 172.668 286.722 172.445C287.056 172.222 287.465 172.141 287.859 172.218C288.239 172.309 288.57 172.542 288.785 172.869C288.999 173.196 289.08 173.592 289.012 173.977ZM284.494 181.539L285.184 177.806C283.876 177.806 282.96 178.4 282.806 179.364C282.651 180.327 283.222 180.957 284.494 181.539ZM286.717 186.212L286.016 189.957C287.312 189.898 288.263 189.387 288.477 188.376C288.691 187.365 288.013 186.818 286.717 186.212Z" fill="white"/>
<path d="M280.891 223.451C284.303 205.2 300.069 201.479 303.184 206.805C306.299 212.132 293.018 229.55 281.271 227.767" fill="white"/>
<path d="M280.891 223.451C284.303 205.2 300.069 201.479 303.184 206.805C306.299 212.132 293.018 229.55 281.271 227.767" stroke="#074C93" stroke-width="0.891728" stroke-miterlimit="10"/>
<path d="M282.792 246.041C278.393 230.263 257.824 224.188 257.431 234.674C257.039 245.161 278.155 255.089 283.232 254.102" fill="white"/>
<path d="M282.792 246.041C278.393 230.263 257.824 224.188 257.431 234.674C257.039 245.161 278.155 255.089 283.232 254.102" stroke="#074C93" stroke-width="0.891728" stroke-miterlimit="10"/>
<path d="M282.222 200.158C277.609 226.791 284.707 263.804 284.707 263.804" stroke="#074C93" stroke-width="0.891728" stroke-miterlimit="10"/>
<path d="M283.351 253.056C280.01 243.08 269.024 239.002 269.024 239.002L283.351 253.056Z" fill="white"/>
<path d="M283.351 253.056C280.01 243.08 269.024 239.002 269.024 239.002" stroke="#074C93" stroke-width="0.891728" stroke-miterlimit="10"/>
<path d="M281.285 226.007C284.709 217.232 298.299 209.968 298.299 209.968L281.285 226.007Z" fill="white"/>
<path d="M281.285 226.007C284.709 217.232 298.299 209.968 298.299 209.968" stroke="#074C93" stroke-width="0.891728" stroke-miterlimit="10"/>
<path d="M330.531 191.789C339.678 191.789 347.093 184.374 347.093 175.226C347.093 166.079 339.678 158.664 330.531 158.664C321.384 158.664 313.969 166.079 313.969 175.226C313.969 184.374 321.384 191.789 330.531 191.789Z" stroke="#074C93" stroke-width="0.891728" stroke-miterlimit="10"/>
<path d="M334.267 165.322L334.029 166.38C335.393 166.76 336.683 167.367 337.845 168.175C338.04 168.314 338.204 168.492 338.326 168.697C338.448 168.903 338.525 169.132 338.553 169.37C338.581 169.607 338.559 169.848 338.488 170.076C338.418 170.305 338.3 170.516 338.143 170.696C337.871 171.01 337.493 171.214 337.081 171.268C336.67 171.323 336.252 171.225 335.907 170.993C335.138 170.453 334.298 170.021 333.411 169.709L332.602 174.013C335.812 175.202 338.107 177.092 337.465 180.16C336.752 183.489 333.898 184.821 330.616 184.69L330.391 185.879C330.307 186.271 330.074 186.615 329.741 186.837C329.408 187.059 329.001 187.142 328.607 187.068C328.215 186.985 327.872 186.752 327.649 186.418C327.427 186.085 327.344 185.678 327.418 185.284L327.62 184.179C325.973 183.734 324.418 182.997 323.031 182.003C322.835 181.855 322.673 181.667 322.555 181.452C322.437 181.237 322.366 180.999 322.346 180.755C322.326 180.51 322.357 180.264 322.438 180.033C322.519 179.801 322.648 179.589 322.817 179.411C323.118 179.087 323.532 178.89 323.973 178.859C324.414 178.829 324.851 178.966 325.195 179.245C326.119 179.955 327.156 180.506 328.262 180.873L329.083 176.522H328.94C325.73 175.333 323.602 173.49 324.267 170.28C324.933 167.069 327.68 165.714 331.092 165.88L331.282 164.858C331.363 164.465 331.595 164.119 331.929 163.896C332.263 163.674 332.672 163.592 333.066 163.669C333.434 163.749 333.76 163.961 333.981 164.266C334.203 164.571 334.304 164.947 334.267 165.322ZM329.748 172.884L330.45 169.15C329.13 169.15 328.215 169.745 328.013 170.708C327.81 171.671 328.488 172.325 329.748 172.884ZM331.972 177.556L331.27 181.301C332.566 181.23 333.518 180.731 333.732 179.72C333.946 178.709 333.268 178.163 331.972 177.556Z" fill="white"/>
<path d="M334.928 214.795C331.504 196.545 315.75 192.823 312.623 198.15C309.496 203.476 322.801 220.895 334.548 219.111" fill="white"/>
<path d="M334.928 214.795C331.504 196.545 315.75 192.823 312.623 198.15C309.496 203.476 322.801 220.895 334.548 219.111" stroke="#074C93" stroke-width="0.891728" stroke-miterlimit="10"/>
<path d="M333.014 237.373C337.425 221.595 357.983 215.519 358.387 225.994C358.791 236.469 337.663 246.421 332.574 245.434" fill="white"/>
<path d="M333.014 237.373C337.425 221.595 357.983 215.519 358.387 225.994C358.791 236.469 337.663 246.421 332.574 245.434" stroke="#074C93" stroke-width="0.891728" stroke-miterlimit="10"/>
<path d="M333.325 190.885C337.938 217.518 331.113 255.089 331.113 255.089" stroke="#074C93" stroke-width="0.891728" stroke-miterlimit="10"/>
<path d="M332.465 244.389C335.794 234.414 346.792 230.348 346.792 230.348L332.465 244.389Z" fill="white"/>
<path d="M332.465 244.389C335.794 234.414 346.792 230.348 346.792 230.348" stroke="#074C93" stroke-width="0.891728" stroke-miterlimit="10"/>
<path d="M334.525 217.351C331.113 208.577 317.511 201.312 317.511 201.312L334.525 217.351Z" fill="white"/>
<path d="M334.525 217.351C331.113 208.577 317.511 201.312 317.511 201.312" stroke="#074C93" stroke-width="0.891728" stroke-miterlimit="10"/>
<path d="M442.903 99.9876C429.991 100.059 430.859 111.877 432.916 113.375C432.131 106.658 421.252 109.987 422.298 115.753C415.842 115.123 397.33 120.949 409.814 121.579C422.298 122.209 462.247 121.579 468.906 121.579C475.564 121.579 473.662 118.25 466.409 117.418C466.727 116.087 466.616 114.69 466.093 113.426C465.57 112.162 464.661 111.096 463.496 110.379C459.334 107.633 456.635 113.328 456.635 113.328C456.635 113.328 455.589 99.9162 442.903 99.9876Z" fill="white"/>
<path d="M26.521 103.686C17.4967 103.686 18.103 112.008 19.5417 113.043C18.9948 108.346 11.3972 110.665 12.1225 114.743C7.61632 114.303 -5.33158 118.369 3.39547 118.809C12.1225 119.249 40.0396 118.809 44.7003 118.809C49.3611 118.809 48.0413 116.431 42.9525 115.896C43.1741 114.968 43.0969 113.993 42.7318 113.112C42.3667 112.23 41.7324 111.486 40.9194 110.986C38.0064 109.06 36.1635 113.043 36.1635 113.043C36.1635 113.043 35.3907 103.638 26.521 103.686Z" fill="white"/>
<path d="M218.911 173.573C210.885 190.873 231.989 193.298 231.989 193.298L232.584 188.067C232.584 188.067 220.409 185.106 218.911 173.573Z" fill="#074C93"/>
<path d="M268.632 185.844C260.654 203.143 281.711 205.616 281.711 205.616L282.305 200.385C282.305 200.385 270.178 197.377 268.632 185.844Z" fill="#074C93"/>
<path d="M182.574 200.444C191.721 200.444 199.136 193.029 199.136 183.882C199.136 174.735 191.721 167.319 182.574 167.319C173.427 167.319 166.012 174.735 166.012 183.882C166.012 193.029 173.427 200.444 182.574 200.444Z" stroke="#074C93" stroke-width="0.891728" stroke-miterlimit="10"/>
<path d="M186.294 173.977L186.116 174.976C187.474 175.361 188.76 175.968 189.921 176.772C190.117 176.909 190.282 177.086 190.405 177.292C190.528 177.498 190.606 177.727 190.634 177.965C190.662 178.203 190.639 178.445 190.568 178.673C190.496 178.902 190.377 179.113 190.218 179.292C189.951 179.61 189.575 179.817 189.164 179.872C188.752 179.927 188.335 179.826 187.994 179.589C187.22 179.049 186.376 178.617 185.486 178.305L184.677 182.621C187.899 183.81 190.194 185.701 189.54 188.768C188.839 192.086 185.973 193.417 182.692 193.286L182.466 194.475C182.385 194.869 182.153 195.214 181.819 195.437C181.485 195.66 181.076 195.741 180.682 195.664C180.29 195.581 179.947 195.348 179.724 195.015C179.502 194.681 179.419 194.275 179.493 193.881L179.695 192.775C178.048 192.328 176.494 191.592 175.106 190.599C174.911 190.45 174.75 190.262 174.633 190.046C174.517 189.831 174.446 189.593 174.427 189.348C174.408 189.104 174.441 188.858 174.523 188.627C174.605 188.396 174.735 188.185 174.904 188.007C175.204 187.68 175.619 187.482 176.062 187.453C176.505 187.424 176.942 187.567 177.282 187.853C178.211 188.556 179.246 189.106 180.349 189.482L181.17 185.13L181.027 185.071C177.817 183.882 175.689 182.039 176.366 178.84C177.044 175.642 179.767 174.263 183.179 174.429L183.369 173.407C183.45 173.013 183.682 172.668 184.016 172.445C184.35 172.222 184.759 172.141 185.153 172.218C185.532 172.309 185.863 172.542 186.075 172.87C186.287 173.197 186.366 173.594 186.294 173.977ZM181.776 181.539L182.478 177.806C181.158 177.806 180.254 178.4 180.1 179.364C179.945 180.327 180.516 180.957 181.836 181.539H181.776ZM183.999 186.212L183.298 189.957C184.606 189.898 185.545 189.387 185.771 188.376C185.997 187.365 185.307 186.818 183.999 186.212Z" fill="white"/>
<path d="M178.175 223.451C181.6 205.2 197.353 201.479 200.469 206.805C203.584 212.132 190.303 229.55 178.556 227.767" fill="white"/>
<path d="M178.175 223.451C181.6 205.2 197.353 201.479 200.469 206.805C203.584 212.132 190.303 229.55 178.556 227.767" stroke="#074C93" stroke-width="0.891728" stroke-miterlimit="10"/>
<path d="M180.089 246.041C175.678 230.263 155.121 224.188 154.717 234.674C154.312 245.161 175.44 255.089 180.529 254.102" fill="white"/>
<path d="M180.089 246.041C175.678 230.263 155.121 224.188 154.717 234.674C154.312 245.161 175.44 255.089 180.529 254.102" stroke="#074C93" stroke-width="0.891728" stroke-miterlimit="10"/>
<path d="M179.522 200.158C174.897 226.791 181.995 263.804 181.995 263.804" stroke="#074C93" stroke-width="0.891728" stroke-miterlimit="10"/>
<path d="M180.647 253.056C177.318 243.08 166.32 239.002 166.32 239.002L180.647 253.056Z" fill="white"/>
<path d="M180.647 253.056C177.318 243.08 166.32 239.002 166.32 239.002" stroke="#074C93" stroke-width="0.891728" stroke-miterlimit="10"/>
<path d="M178.57 226.007C181.995 217.232 195.584 209.968 195.584 209.968L178.57 226.007Z" fill="white"/>
<path d="M178.57 226.007C181.995 217.232 195.584 209.968 195.584 209.968" stroke="#074C93" stroke-width="0.891728" stroke-miterlimit="10"/>
<path d="M165.962 185.844C157.937 203.143 179.041 205.569 179.041 205.569L179.624 200.337C179.624 200.337 167.461 197.377 165.962 185.844Z" fill="#074C93"/>
<path d="M231.297 217.993C237.753 226.542 252.853 212.322 253.887 207.602C254.922 202.882 250.32 205.081 250.32 205.081C250.32 205.081 241.998 217.458 231.475 215.699L231.297 217.993Z" fill="#074C93"/>
<path d="M280.676 230.132C287.132 238.681 302.232 224.473 303.338 219.741C304.443 215.009 299.771 217.22 299.771 217.22C299.771 217.22 291.448 229.609 280.925 227.85L280.676 230.132Z" fill="#074C93"/>
<path d="M313.992 177.189C311.816 186.593 324.264 198.483 334.026 199.375C335.524 197.948 331.957 192.384 333.372 190.886C327.605 192.693 315.204 186.51 313.992 177.189Z" fill="#074C93"/>
<path d="M253 110.714L283.022 80.6922L302.824 100.494L362.297 41" stroke="white" stroke-miterlimit="10"/>
<path d="M384.844 171.553C380.694 171.41 367.639 169.543 365.404 167.986C360.125 164.169 355.262 157.677 354.049 156.001C353.586 153.112 354.168 149.569 352.861 149.01C351.553 148.451 351.16 150.888 351.16 150.888C350.789 149.07 349.776 147.445 348.307 146.311C345.75 144.242 338.308 149.569 348.307 157.701C348.687 158.89 358.044 171.85 359.757 173.693C361.469 175.536 381.705 182.016 381.705 182.016C387.9 180.839 390.052 171.731 384.844 171.553Z" fill="white" stroke="#074C93" stroke-width="0.891728" stroke-miterlimit="10"/>
<path d="M391.296 170.113C387.884 170.624 372.736 169.994 372.13 169.887C371.524 169.78 369.265 177.972 370.751 182.526C372.832 183.893 379.43 182.657 380.988 183.881C382.546 185.106 394.4 174.465 391.296 170.113Z" fill="#AFDCE2" stroke="#074C93" stroke-width="0.891728" stroke-miterlimit="10"/>
<path d="M391.487 225.662C392.212 223.771 393.128 218.611 395.803 215.9C398.478 213.189 384.853 203.487 379.157 206.757C377.433 213.558 375.27 227.921 375.27 227.921" fill="white"/>
<path d="M391.487 225.662C392.212 223.771 393.128 218.611 395.803 215.9C398.478 213.189 384.853 203.487 379.157 206.757C377.433 213.558 375.27 227.921 375.27 227.921" stroke="#074C93" stroke-width="0.891728" stroke-miterlimit="10"/>
<path d="M411.485 223.011C410.011 219.908 406.908 207.555 406.908 207.555C406.908 207.555 383.295 209.481 388.181 217.554C393.27 221.382 394.78 223.82 395.553 227.874" fill="white"/>
<path d="M411.485 223.011C410.011 219.908 406.908 207.555 406.908 207.555C406.908 207.555 383.295 209.481 388.181 217.554C393.27 221.382 394.78 223.82 395.553 227.874" stroke="#074C93" stroke-width="0.891728" stroke-miterlimit="10"/>
<path d="M401.215 169.946C401.215 169.946 409.538 170.933 410.346 174.702C411.155 178.471 410.109 189.945 408.515 195.2C406.922 200.455 410.346 215.674 410.346 215.674C410.346 215.674 395.853 218.694 388.184 217.6C383.782 217.029 379.486 215.828 375.426 214.033C377.347 209.661 378.937 205.15 380.182 200.539C381.087 195.807 381.323 190.973 380.884 186.176C380.313 179.708 381.93 178.4 381.93 178.4" fill="#AFDCE2"/>
<path d="M401.215 169.946C401.215 169.946 409.538 170.933 410.346 174.702C411.155 178.471 410.109 189.945 408.515 195.2C406.922 200.455 410.346 215.674 410.346 215.674C410.346 215.674 395.853 218.694 388.184 217.6C383.782 217.029 379.486 215.828 375.426 214.033C377.347 209.661 378.937 205.15 380.182 200.539C381.087 195.807 381.323 190.973 380.884 186.176C380.313 179.708 381.93 178.4 381.93 178.4" stroke="#074C93" stroke-width="0.891728" stroke-miterlimit="10"/>
<path d="M391.299 170.113C388.314 170.339 386.15 170.957 384.391 172.741L391.299 170.113Z" fill="#AFDCE2"/>
<path d="M391.299 170.113C388.314 170.339 386.15 170.957 384.391 172.741" stroke="#074C93" stroke-width="0.891728" stroke-miterlimit="10"/>
<path d="M450.853 167.974C448.475 167.843 444.908 172.099 444.908 172.099C444.908 172.099 446.097 167.653 443.85 169.151C441.603 170.649 441.27 173.574 439.272 175.857C437.37 176.308 424.303 181.944 422.805 181.908C421.307 181.873 413.816 175.964 413.816 175.964C409.477 174.525 406.587 181.052 410.618 183.942C418.774 189.803 418.87 190.79 421.521 190.849C424.172 190.909 442.506 182.075 442.506 180.482C442.506 180.482 449.307 178.698 451.435 174.632C453.564 170.566 453.278 168.104 450.853 167.974Z" fill="white" stroke="#074C93" stroke-width="0.891728" stroke-miterlimit="10"/>
<path d="M405.91 185.844C410.666 189.268 410.535 191.479 412.711 191.789C413.841 191.943 415.208 188.364 417.36 185.844C419.334 183.537 422.116 182.277 421.866 181.54C421.26 179.946 413.841 175.999 407.67 171.79" fill="#AFDCE2"/>
<path d="M405.91 185.844C410.666 189.268 410.535 191.479 412.711 191.789C413.841 191.943 415.208 188.364 417.36 185.844C419.334 183.537 422.116 182.277 421.866 181.54C421.26 179.946 413.841 175.999 407.67 171.79" stroke="#074C93" stroke-width="0.891728" stroke-miterlimit="10"/>
<path d="M383.104 141.721C382.261 143.279 381.883 145.045 382.014 146.811C382.144 148.577 382.778 150.268 383.841 151.685C383.841 151.685 404.636 158.367 405.765 156.928C406.895 155.49 410.414 148.285 408.702 144.527C406.99 140.77 391.296 127.585 383.104 141.721Z" fill="#074C93" stroke="#204484" stroke-width="0.891728" stroke-miterlimit="10"/>
<path d="M390.441 167.176C392.462 168.508 391.784 170.743 390.048 171.73C388.312 172.717 386.208 178.234 391.867 178.436C397.527 178.638 403.686 171.231 401.593 170.113C399.501 168.996 398.24 165.084 399.81 163.11" fill="white"/>
<path d="M390.441 167.176C392.462 168.508 391.784 170.743 390.048 171.73C388.312 172.717 386.208 178.234 391.867 178.436C397.527 178.638 403.686 171.231 401.593 170.113C399.501 168.996 398.24 165.084 399.81 163.11" stroke="#074C93" stroke-width="0.891728" stroke-miterlimit="10"/>
<path d="M385.732 144.527C386.458 147.833 389.299 149.759 392.486 150.758C396.457 151.947 400.868 151.78 401.998 150.912C400.381 156.75 402.497 156.048 402.497 156.048L402.212 156.263C404.744 153.73 406.706 156.679 405.517 159.913C404.328 163.147 401.784 163.218 400.88 162.576L401.367 163.004C400.485 165.052 398.957 166.756 397.016 167.855C393.71 169.745 390.833 169.888 387.944 167.855C386.611 166.824 385.591 165.444 384.997 163.867C384.402 162.29 384.258 160.58 384.579 158.926C385.067 155.62 383.033 151.685 383.806 146.846L385.732 144.527Z" fill="white" stroke="#074C93" stroke-width="0.891728" stroke-miterlimit="10"/>
<path d="M150.376 233.676H128.892" stroke="#074C93" stroke-width="1.18897" stroke-miterlimit="10"/>
<path d="M435.252 233.676H357.458" stroke="#074C93" stroke-width="1.18897" stroke-miterlimit="10"/>
<path d="M173.403 42.8643H219.616C219.616 40.5133 220.55 38.2587 222.213 36.5963C223.875 34.9339 226.13 34 228.481 34H249.102C251.453 34 253.708 34.9339 255.37 36.5963C257.032 38.2587 257.966 40.5133 257.966 42.8643H260.247C261.444 42.8095 262.64 42.9979 263.762 43.4182C264.884 43.8385 265.909 44.4819 266.776 45.3096C267.642 46.1373 268.332 47.132 268.803 48.2337C269.274 49.3353 269.517 50.5211 269.517 51.7193C269.517 52.9175 269.274 54.1033 268.803 55.2049C268.332 56.3066 267.642 57.3013 266.776 58.129C265.909 58.9567 264.884 59.6001 263.762 60.0204C262.64 60.4407 261.444 60.6291 260.247 60.5743H245.412C245.412 62.9253 244.478 65.1799 242.815 66.8423C241.153 68.5047 238.898 69.4386 236.547 69.4386H186.477C185.314 69.4386 184.162 69.2092 183.088 68.7635C182.013 68.3178 181.037 67.6646 180.216 66.8412C179.394 66.0178 178.743 65.0405 178.299 63.9651C177.856 62.8898 177.629 61.7375 177.631 60.5743H173.459C171.181 60.47 169.03 59.4915 167.455 57.8423C165.879 56.1931 165 54.0001 165 51.7193C165 49.4385 165.879 47.2455 167.455 45.5963C169.03 43.9471 171.181 42.9686 173.459 42.8643H173.403Z" fill="white"/>
</svg>
