<svg width="498" height="253" viewBox="0 0 498 253" fill="none" xmlns="http://www.w3.org/2000/svg">
<path d="M201.88 216.595C372.695 218.682 507.772 216.727 497.445 107.64C487.556 3.19287 375.524 0.914468 271.277 0.55472C155.552 0.17099 96.0935 -8.16317 42.731 55.6561C-18.0544 128.373 45.7728 214.677 201.88 216.595Z" fill="#AFDCE2"/>
<path d="M353.887 56.1543H331.211V98.6249H353.887V56.1543Z" fill="#AFDCE2" stroke="#074C93" stroke-width="0.939615" stroke-miterlimit="10"/>
<path d="M388.676 28.1542H366V98.6378H388.676V28.1542Z" fill="#074C93" stroke="#074C93" stroke-width="0.939615" stroke-miterlimit="10"/>
<path d="M423.466 1.35681H400.79V98.6383H423.466V1.35681Z" fill="white" stroke="#074C93" stroke-width="0.939615" stroke-miterlimit="10"/>
<path d="M376.085 156.242C385.723 156.242 393.536 148.429 393.536 138.791C393.536 129.152 385.723 121.339 376.085 121.339C366.446 121.339 358.633 129.152 358.633 138.791C358.633 148.429 366.446 156.242 376.085 156.242Z" fill="#AFDCE2" stroke="#074C93" stroke-width="0.939615" stroke-miterlimit="10"/>
<path d="M380.017 128.417L379.816 129.469C381.25 129.869 382.605 130.509 383.825 131.361C384.033 131.505 384.208 131.691 384.339 131.907C384.469 132.124 384.553 132.365 384.584 132.616C384.614 132.867 384.592 133.121 384.517 133.363C384.443 133.604 384.318 133.827 384.151 134.017C383.864 134.348 383.467 134.562 383.033 134.62C382.599 134.678 382.159 134.575 381.796 134.33C380.985 133.761 380.099 133.306 379.165 132.977L378.3 137.512C381.695 138.765 384.113 140.757 383.437 143.989C382.685 147.497 379.678 148.9 376.208 148.763L375.983 150.015C375.898 150.43 375.653 150.794 375.301 151.029C374.949 151.263 374.518 151.35 374.103 151.268C373.689 151.184 373.325 150.939 373.09 150.587C372.855 150.235 372.769 149.804 372.851 149.389L373.076 148.224C371.336 147.756 369.693 146.98 368.228 145.931C368.023 145.774 367.853 145.575 367.73 145.348C367.607 145.121 367.532 144.871 367.512 144.613C367.492 144.356 367.527 144.097 367.613 143.853C367.7 143.61 367.836 143.387 368.015 143.2C368.333 142.859 368.768 142.652 369.233 142.619C369.698 142.586 370.158 142.731 370.52 143.025C371.494 143.773 372.587 144.353 373.753 144.741L374.617 140.156H374.454C371.072 138.903 368.842 136.961 369.543 133.578C370.245 130.196 373.126 128.768 376.722 128.943L376.935 127.853C377.019 127.441 377.263 127.079 377.612 126.845C377.961 126.61 378.388 126.523 378.801 126.6C379.196 126.693 379.541 126.932 379.766 127.269C379.992 127.607 380.081 128.017 380.017 128.417ZM375.243 136.385L375.983 132.451C374.604 132.451 373.64 133.077 373.414 134.092C373.189 135.107 373.915 135.708 375.243 136.335V136.385ZM377.599 141.308L376.86 145.255C378.225 145.18 379.227 144.653 379.453 143.588C379.678 142.524 378.964 141.897 377.599 141.258V141.308Z" fill="white"/>
<path d="M307.05 153.135C313.99 153.135 319.616 147.51 319.616 140.57C319.616 133.63 313.99 128.004 307.05 128.004C300.11 128.004 294.484 133.63 294.484 140.57C294.484 147.51 300.11 153.135 307.05 153.135Z" stroke="#074C93" stroke-width="0.939615" stroke-miterlimit="10"/>
<path d="M309.889 133.065L309.751 133.817C310.787 134.103 311.766 134.565 312.645 135.182C312.798 135.282 312.927 135.415 313.023 135.57C313.119 135.726 313.18 135.9 313.201 136.082C313.223 136.263 313.204 136.447 313.147 136.621C313.09 136.794 312.996 136.953 312.871 137.086C312.671 137.333 312.386 137.494 312.072 137.538C311.758 137.582 311.439 137.506 311.179 137.324C310.592 136.913 309.952 136.584 309.275 136.347L308.661 139.617C311.104 140.469 312.845 141.947 312.357 144.278C311.818 146.783 309.626 147.811 307.158 147.71L306.982 148.6C306.927 148.901 306.755 149.167 306.504 149.341C306.253 149.515 305.942 149.582 305.642 149.527C305.492 149.5 305.348 149.443 305.22 149.36C305.092 149.277 304.982 149.17 304.895 149.044C304.809 148.918 304.749 148.776 304.718 148.627C304.687 148.478 304.686 148.324 304.715 148.174L304.865 147.334C303.615 146.994 302.436 146.434 301.382 145.681C301.233 145.568 301.11 145.426 301.021 145.262C300.931 145.098 300.877 144.917 300.863 144.731C300.849 144.545 300.875 144.358 300.938 144.183C301.002 144.007 301.102 143.848 301.232 143.714C301.45 143.463 301.758 143.309 302.089 143.286C302.42 143.262 302.747 143.371 302.998 143.589C303.702 144.129 304.489 144.552 305.329 144.841L305.955 141.534H305.842C303.399 140.657 301.796 139.229 302.297 136.798C302.798 134.368 304.878 133.34 307.471 133.466L307.621 132.676C307.648 132.527 307.705 132.384 307.788 132.256C307.871 132.129 307.979 132.019 308.105 131.934C308.231 131.849 308.373 131.789 308.522 131.76C308.671 131.73 308.825 131.731 308.974 131.762C309.266 131.817 309.526 131.984 309.697 132.227C309.867 132.471 309.936 132.771 309.889 133.065ZM306.456 138.79L306.995 135.959C305.993 135.959 305.303 136.41 305.141 137.149C304.978 137.888 305.504 138.352 306.456 138.79ZM308.147 142.336L307.621 145.18C308.611 145.18 309.325 144.754 309.488 143.989C309.651 143.225 309.137 142.799 308.147 142.336Z" fill="white"/>
<path d="M280.654 169.673C271.246 165.714 260.359 169.359 260.246 171.677C260.133 173.995 266.836 180.359 266.836 180.359C266.836 180.359 262.313 189.893 262.075 191.973C261.837 194.053 257.277 195.017 256.375 195.731C255.473 196.445 260.847 212.469 262.313 212.356C263.779 212.244 266.473 209.299 267.938 211.868C269.404 214.436 274.904 220.299 276.37 221.026C275.267 225.548 274.666 228.731 276.006 228.969C277.347 229.207 286.643 229.708 287.37 228.969C288.096 228.229 289.449 222.366 290.79 222.366H307.665C307.665 222.366 306.563 228.731 307.54 228.856C308.517 228.981 318.703 228.856 318.703 228.856C318.703 228.856 331.118 215.551 334.413 200.379C338.434 181.85 319.529 146.37 280.654 169.673Z" fill="white" stroke="#074C93" stroke-width="0.939615" stroke-miterlimit="10"/>
<path d="M292.742 171.577C299.833 168.645 307.901 169.384 310.833 171.577H292.742Z" fill="white"/>
<path d="M292.742 171.577C299.833 168.645 307.901 169.384 310.833 171.577" stroke="#074C93" stroke-width="0.939615" stroke-miterlimit="10"/>
<path d="M270.021 190.407C270.699 190.407 271.249 189.857 271.249 189.179C271.249 188.501 270.699 187.951 270.021 187.951C269.343 187.951 268.793 188.501 268.793 189.179C268.793 189.857 269.343 190.407 270.021 190.407Z" fill="white" stroke="#074C93" stroke-width="0.939615" stroke-miterlimit="10"/>
<path d="M335.441 190.394C341.267 187.713 349.686 192.749 344.775 195.731C339.864 198.713 340.916 186.961 344.073 184.042" stroke="#074C93" stroke-width="0.939615" stroke-miterlimit="10"/>
<path d="M373.743 174.872C367.091 172.065 359.411 174.646 359.323 176.287C359.235 177.929 363.984 182.414 363.984 182.414C363.984 182.414 360.802 189.141 360.626 190.607C360.451 192.073 357.231 192.775 356.592 193.288C355.953 193.802 359.762 205.115 360.802 205.027C361.841 204.939 363.733 202.872 364.76 204.676C366.41 207.124 368.421 209.308 370.724 211.153C369.947 214.348 369.471 216.591 370.461 216.766C371.45 216.941 377.978 217.28 378.491 216.766C379.005 216.252 379.957 212.106 380.909 212.106H392.811C392.811 212.106 392.034 216.591 392.736 216.678C393.437 216.766 400.616 216.678 400.616 216.678C400.616 216.678 409.386 207.282 411.716 196.633C414.547 183.466 401.205 158.41 373.743 174.872Z" stroke="#074C93" stroke-width="0.939615" stroke-miterlimit="10"/>
<path d="M382.285 176.212C387.296 174.145 392.984 174.659 395.064 176.212H382.285Z" fill="white"/>
<path d="M382.285 176.212C387.296 174.145 392.984 174.659 395.064 176.212" stroke="#074C93" stroke-width="0.939615" stroke-miterlimit="10"/>
<path d="M366.239 189.505C366.717 189.505 367.104 189.118 367.104 188.641C367.104 188.163 366.717 187.776 366.239 187.776C365.762 187.776 365.375 188.163 365.375 188.641C365.375 189.118 365.762 189.505 366.239 189.505Z" fill="white" stroke="#074C93" stroke-width="0.939615" stroke-miterlimit="10"/>
<path d="M412.453 189.505C416.562 187.601 422.476 191.172 419.043 193.264C415.61 195.356 416.324 187.075 418.554 185.008" fill="white"/>
<path d="M412.453 189.505C416.562 187.601 422.476 191.172 419.043 193.264C415.61 195.356 416.324 187.075 418.554 185.008" stroke="#074C93" stroke-width="0.939615" stroke-miterlimit="10"/>
<path d="M216.739 170.662L225.133 152.797C225.294 152.399 225.356 151.968 225.312 151.54C225.269 151.113 225.121 150.703 224.883 150.346C224.644 149.989 224.322 149.696 223.944 149.492C223.566 149.288 223.144 149.18 222.715 149.176H214.784C214.362 149.17 213.946 149.285 213.587 149.507C213.227 149.729 212.938 150.049 212.755 150.429L206.152 164.448" fill="#AFDCE2"/>
<path d="M216.739 170.662L225.133 152.797C225.294 152.399 225.356 151.968 225.312 151.54C225.269 151.113 225.121 150.703 224.883 150.346C224.644 149.989 224.322 149.696 223.944 149.492C223.566 149.288 223.144 149.18 222.715 149.176H214.784C214.362 149.17 213.946 149.285 213.587 149.507C213.227 149.729 212.938 150.049 212.755 150.429L206.152 164.448" stroke="#074C93" stroke-width="0.939615" stroke-miterlimit="10"/>
<path d="M213.995 169.435C218.38 169.435 215.837 163.171 214.521 164.323C213.206 165.476 211.126 165.501 206.153 164.461C201.179 163.421 196.919 168.082 193.023 174.484C193.023 174.484 190.718 180.998 195.053 183.78C203.584 187.651 212.592 185.584 214.058 182.226C215.524 178.869 219.47 171.84 216.739 170.6C214.008 169.36 208.545 169.347 208.545 169.347" fill="white"/>
<path d="M213.995 169.435C218.38 169.435 215.837 163.171 214.521 164.323C213.206 165.476 211.126 165.501 206.153 164.461C201.179 163.421 196.919 168.082 193.023 174.484C193.023 174.484 190.718 180.998 195.053 183.78C203.584 187.651 212.592 185.584 214.058 182.226C215.524 178.869 219.47 171.84 216.739 170.6C214.008 169.36 208.545 169.347 208.545 169.347" stroke="#074C93" stroke-width="0.939615" stroke-miterlimit="10"/>
<path d="M135.508 204.739L153.486 203.136L188.152 200.217C197.26 199.703 201.144 201.645 202.346 210.552C204.113 223.695 197.047 226.563 197.047 226.563C197.047 226.563 156.393 242.737 127.039 246.609C97.6858 250.48 63.321 236.586 69.2969 203.123" fill="white"/>
<path d="M135.508 204.739L153.486 203.136L188.152 200.217C197.26 199.703 201.144 201.645 202.346 210.552C204.113 223.695 197.047 226.563 197.047 226.563C197.047 226.563 156.393 242.737 127.039 246.609C97.6858 250.48 63.321 236.586 69.2969 203.123" stroke="#074C93" stroke-width="0.939615" stroke-miterlimit="10"/>
<path d="M161.83 251.819H80.9479C79.8321 251.799 78.7632 251.367 77.9468 250.606C77.1304 249.845 76.6242 248.809 76.5255 247.698L76.1621 242.987C76.1113 242.464 76.1708 241.936 76.3368 241.437C76.5028 240.938 76.7716 240.48 77.1258 240.091C77.48 239.703 77.9117 239.393 78.3931 239.182C78.8746 238.971 79.3949 238.863 79.9206 238.865H160.803C161.918 238.886 162.987 239.318 163.804 240.079C164.62 240.84 165.126 241.875 165.225 242.987L165.588 247.698C165.639 248.221 165.58 248.749 165.414 249.248C165.248 249.747 164.979 250.205 164.625 250.593C164.271 250.982 163.839 251.292 163.357 251.503C162.876 251.714 162.356 251.822 161.83 251.819Z" fill="#074C93" stroke="#074C93" stroke-width="0.939615" stroke-miterlimit="10"/>
<path d="M134.99 145.293C146.855 140.081 176.684 141.372 182.973 136.072C189.262 130.773 209.358 99.615 209.859 96.8087C210.36 94.0024 200.337 86.0595 198.383 86.5481C196.429 87.0367 178.689 114.423 175.92 115.864C173.151 117.305 145.852 112.644 139.588 114.799C131.733 117.518 123.089 152.985 134.99 145.293Z" fill="#FFCCB8" stroke="#074C93" stroke-width="0.939615" stroke-miterlimit="10"/>
<path d="M151.388 94.9045C146.452 99.0639 147.066 113.246 146.114 113.246C145.162 113.246 123.926 109.199 123.926 109.199L133.398 84.6314L151.388 94.9045Z" fill="white" stroke="#074C93" stroke-width="0.939615" stroke-miterlimit="10"/>
<path d="M136.945 106.054C148.721 106.718 150.425 111.066 152.079 127.352C151.766 143 150.5 154 151.766 163.684C146.83 172.141 140.315 171.376 137.045 181.712C133.775 192.048 143.547 197.823 133.287 207.433C123.026 217.042 76.2582 209.587 69.3928 203.586C62.5273 197.585 80.2547 145.957 93.0335 125.461C105.812 104.964 136.945 106.054 136.945 106.054Z" fill="#FFCCB8" stroke="#074C93" stroke-width="0.939615" stroke-miterlimit="10"/>
<path d="M145.388 63.4839C164.494 87.7636 158.843 94.0152 149.597 95.2179C146.421 95.7415 143.164 95.4849 140.109 94.47C137.053 93.4551 134.29 91.7125 132.058 89.3923C129.164 86.4982 139.212 67.0921 145.388 63.4839Z" fill="white" stroke="#074C93" stroke-width="0.939615" stroke-miterlimit="10"/>
<path d="M123.39 130.922C122.012 162.656 124.041 188.928 132.16 192.135C140.278 195.342 194.563 188.289 194.801 186.372C195.039 184.455 197.757 170.988 193.548 170.349C189.338 169.71 153.37 168.194 152.092 166.503C150.814 164.811 153.783 125.761 150.025 113.383C146.266 101.005 132.147 106.668 132.147 106.668" fill="#FFCCB8"/>
<path d="M123.39 130.922C122.012 162.656 124.041 188.928 132.16 192.135C140.278 195.342 194.563 188.289 194.801 186.372C195.039 184.455 197.757 170.988 193.548 170.349C189.338 169.71 153.37 168.194 152.092 166.503C150.814 164.811 153.783 125.761 150.025 113.383C146.266 101.005 132.147 106.668 132.147 106.668" stroke="#074C93" stroke-width="0.939615" stroke-miterlimit="10"/>
<path d="M198.887 66.3526C198.301 64.4763 198.098 62.5016 198.289 60.5454C198.481 58.5892 199.063 56.6914 200.002 54.9644C200.935 53.2904 202.213 51.8331 203.75 50.6886C205.288 49.5442 207.05 48.7384 208.922 48.3245C212.87 47.4693 216.997 48.1885 220.423 50.329C223.955 52.4745 226.566 55.8536 227.752 59.8128C228.34 61.6887 228.544 63.6638 228.353 65.6203C228.161 67.5768 227.577 69.4748 226.637 71.201C225.706 72.8757 224.429 74.3329 222.891 75.4756C221.353 76.6184 219.589 77.4204 217.717 77.8284" stroke="white" stroke-width="0.939615" stroke-miterlimit="10"/>
<path d="M184.077 71.1261C182.707 67.3079 182.113 63.2552 182.328 59.2046C182.543 55.1541 183.564 51.1871 185.33 47.5355C187.081 44.0026 189.564 40.8828 192.614 38.3836C195.664 35.8844 199.211 34.063 203.02 33.0403C211.031 30.9329 219.549 32.0483 226.748 36.1473C234.182 40.2725 239.834 46.9949 242.621 55.0273C243.991 58.8475 244.586 62.9024 244.37 66.955C244.155 71.0076 243.135 74.9767 241.368 78.6304C239.618 82.1602 237.136 85.277 234.088 87.774C231.04 90.271 227.496 92.0909 223.691 93.113" stroke="white" stroke-width="1.5" stroke-miterlimit="10"/>
<path d="M152.242 132.062L174.567 138.99L152.242 141.5V132.062Z" fill="#074C93"/>
<path d="M123.891 169.359C124.079 185.12 125.256 202.647 137.158 203.186C137.974 201.566 138.332 199.754 138.193 197.945C138.054 196.137 137.423 194.401 136.369 192.925C136.369 192.925 135.041 194.04 130.593 191.284C126.146 188.528 123.891 169.359 123.891 169.359Z" fill="#074C93"/>
<path d="M145.252 57.5325C150.263 60.3013 146.041 71.2133 143.548 72.1655C141.055 73.1176 144.989 80.86 142.734 81.6368C140.479 82.4135 139.451 77.5651 135.555 79.4694C131.659 81.3737 136.006 88.6651 139.74 88.2391C143.473 87.8132 137.071 94.8039 132.649 94.2903C128.226 93.7766 117.615 84.1174 121.373 72.1529C125.132 60.1885 140.416 54.8765 145.252 57.5325Z" fill="#074C93"/>
<path d="M198.587 89.9059C200.641 83.4163 205.064 77.1647 207.194 73.6192C208.927 70.4211 210.341 67.0598 211.416 63.5842C212.205 61.4293 215.4 62.5067 213.545 68.0317C211.691 73.5566 210.351 76.2126 213.771 78.6055C217.191 80.9983 219.734 87.751 218.469 89.8808C217.204 92.0106 210.952 97.5731 208.02 97.2098" fill="white"/>
<path d="M198.587 89.9059C200.641 83.4163 205.064 77.1647 207.194 73.6192C208.927 70.4211 210.341 67.0598 211.416 63.5842C212.205 61.4293 215.4 62.5067 213.545 68.0317C211.691 73.5566 210.351 76.2126 213.771 78.6055C217.191 80.9983 219.734 87.751 218.469 89.8808C217.204 92.0106 210.952 97.5731 208.02 97.2098" stroke="#074C93" stroke-width="0.939615" stroke-miterlimit="10"/>
<path d="M79.9449 79.4585L79.9447 79.4565L79.9439 79.4469L79.9402 79.4053C79.9367 79.3679 79.9312 79.3112 79.923 79.2364C79.9067 79.0869 79.88 78.8655 79.839 78.5825C79.7568 78.0164 79.6171 77.2044 79.3876 76.229C78.9282 74.2762 78.1115 71.679 76.684 69.0889C73.8394 63.9277 68.5767 58.7919 58.7968 58.8223C53.7911 58.8502 50.1655 60.0198 47.5824 61.7571C45.0004 63.4937 43.4268 65.8199 42.5601 68.2188C41.6915 70.6232 41.5351 73.0971 41.7909 75.1035C41.7963 75.146 41.8019 75.1883 41.8077 75.2303C42.7201 76.2361 43.3478 77.6037 43.5558 79.3611L43.6885 80.4827L42.7689 79.8269C42.2554 79.4606 41.8348 78.818 41.5123 78.0495C41.2325 77.3826 41.0102 76.5818 40.866 75.6931C40.4512 75.2853 39.9793 74.9614 39.468 74.7128C37.8505 73.9263 35.7753 73.8646 33.741 74.4107C31.7102 74.9558 29.7771 76.0924 28.4576 77.6233C27.1445 79.1467 26.447 81.0463 26.8263 83.1654L26.9426 83.8151L26.2856 83.7511C23.8186 83.5108 20.1461 83.8878 16.3004 84.6225C12.4649 85.3552 8.50679 86.4339 5.48448 87.5692C3.97095 88.1378 2.71049 88.7137 1.82124 89.2584C1.37584 89.5312 1.04086 89.7858 0.815826 90.015C0.583705 90.2515 0.513485 90.4151 0.501931 90.5041C0.495339 90.5549 0.497469 90.633 0.637435 90.7604C0.794753 90.9037 1.0918 91.0709 1.59551 91.2329C2.59707 91.555 4.24055 91.8031 6.68963 91.9247C21.8287 92.6764 62.5934 92.2704 85.3592 92.0437C92.1665 91.9759 97.3644 91.9241 99.7869 91.9241C102.391 91.9241 104.076 91.5954 104.987 91.1369C105.44 90.9088 105.64 90.6795 105.713 90.5034C105.777 90.3499 105.776 90.1566 105.62 89.8894C105.456 89.6095 105.134 89.2807 104.618 88.9319C104.107 88.5865 103.431 88.239 102.593 87.9109C100.916 87.2549 98.627 86.6907 95.7965 86.3686L95.2352 86.3048L95.3668 85.7553C95.8447 83.7612 95.679 81.6669 94.8935 79.7727C94.108 77.8785 92.743 76.2816 90.9941 75.2108L90.9869 75.2064L90.9799 75.2018C89.4371 74.184 88.0703 73.9701 86.8881 74.1777C85.691 74.388 84.6271 75.0408 83.7271 75.8526C82.8284 76.6631 82.1183 77.6095 81.6306 78.3601C81.3877 78.734 81.2021 79.056 81.0779 79.2832C81.0159 79.3967 80.9693 79.4864 80.9386 79.5468C80.9232 79.577 80.9119 79.5998 80.9046 79.6147L80.8967 79.6309L80.895 79.6343L80.8949 79.6345L79.9449 79.4585ZM79.9449 79.4585L79.9449 79.4587L80.0898 81.3276L80.8948 79.6348L79.9449 79.4585Z" fill="white" stroke="#074C93"/>
<path d="M291.576 9.0003C278.234 9.07547 279.123 21.3406 281.253 22.844C280.451 15.8908 269.201 19.3361 270.278 25.3496C263.613 24.7107 244.458 30.7242 257.374 31.3757C270.291 32.0271 311.584 31.3757 318.474 31.3757C325.365 31.3757 323.423 27.9304 315.893 27.066C316.222 25.6911 316.107 24.2474 315.565 22.942C315.023 21.6365 314.081 20.5364 312.874 19.7996C308.577 16.9557 305.783 22.844 305.783 22.844C305.783 22.844 304.706 8.92513 291.576 9.0003Z" fill="white"/>
<path d="M424 153.778C444.145 172.056 460.582 140.748 446.4 133.883C435.877 128.797 446.676 157.874 461.246 138.343C473.962 121.305 453.028 97 453.028 97" stroke="#074C93" stroke-width="0.939615" stroke-miterlimit="10"/>
<path d="M462.657 233.153H197.047" stroke="#074C93" stroke-width="1.25282" stroke-miterlimit="10"/>
</svg>
