<svg width="31" height="31" viewBox="0 0 31 31" fill="none" xmlns="http://www.w3.org/2000/svg">
<rect width="31" height="31" rx="3.875" fill="url(#paint0_linear)"/>
<path d="M22.4773 6.97559C22.4773 12.9128 22.4773 18.85 22.4773 24.8006C21.2643 24.7872 20.6578 24.7872 19.4313 24.7605C17.0591 21.6448 14.7813 18.4756 12.5843 15.2262C12.5843 18.3419 12.5843 21.4576 12.5843 24.5733C11.2365 24.5198 9.87517 24.4529 8.52734 24.3727C8.52734 18.5692 8.52734 12.7791 8.52734 6.97559C9.74039 6.97559 10.3469 6.97559 11.5734 6.97559C13.8917 10.3052 16.1426 13.675 18.4204 17.0314C18.4204 13.675 18.4204 10.332 18.4204 6.97559C19.7682 6.97559 21.1295 6.97559 22.4773 6.97559Z" fill="#074C93"/>
<defs>
<linearGradient id="paint0_linear" x1="1.55" y1="1.55" x2="29.0625" y2="31" gradientUnits="userSpaceOnUse">
<stop stop-color="#F4C8CF"/>
<stop offset="0.96875" stop-color="#FFFBD8"/>
</linearGradient>
</defs>
</svg>
