<svg width="96" height="25" viewBox="0 0 96 25" fill="none" xmlns="http://www.w3.org/2000/svg">
<path d="M58.1581 6.96901C56.6241 6.96901 55.4173 7.29881 54.2106 7.96331C54.2106 4.42419 54.2106 1.21978 54.3229 0.117188L46.9652 1.44128V2.10579L47.7323 2.21408C48.7192 2.43559 49.0514 2.98688 49.2663 4.3159C49.4862 6.96901 49.3787 21.1206 49.2663 23.439C51.2401 23.882 53.3263 24.2118 55.4124 24.2118C61.2263 24.2118 64.739 20.5644 64.739 14.8151C64.739 10.2866 61.8858 6.96901 58.1581 6.96901ZM55.6323 23.0009C55.1926 23.0009 54.6454 23.0009 54.3132 22.8926C54.2008 21.347 54.0933 14.8201 54.2008 9.07575C54.8604 8.85425 55.3001 8.74596 55.8472 8.74596C58.2607 8.74596 59.5798 11.6206 59.5798 15.1548C59.5847 19.575 57.9383 23.0009 55.6323 23.0009ZM19.3128 0.560193H0V1.5545L1.09926 1.66279C2.52585 1.88429 3.07304 2.7703 3.29289 4.8672C3.62511 8.84933 3.51274 16.0359 3.29289 19.4569C3.07304 21.5587 2.52585 22.553 1.09926 22.6613L0 22.8877V23.7737H12.3996V22.8877L11.0805 22.6662C9.65394 22.5579 9.10675 21.5636 8.8869 19.4618C8.77453 18.0245 8.66705 15.7012 8.66705 12.8265L11.3004 12.9348C12.9468 12.9348 13.7139 14.2638 14.0412 16.1392H15.0281V8.29803H14.0412C13.709 10.1783 12.9419 11.5024 11.3004 11.5024L8.66705 11.6157C8.66705 7.85502 8.77453 4.32082 8.8869 2.219H12.727C15.6925 2.219 17.2266 4.09932 18.321 7.41694L19.4202 7.08715L19.3128 0.560193Z" fill="black"/>
<path d="M25.6066 6.74521C31.1039 6.74521 33.855 10.5055 33.855 15.4765C33.855 20.231 30.7759 24.2128 25.2786 24.2128C19.7814 24.2128 17.0352 20.4525 17.0352 15.4765C17.0303 10.727 20.1093 6.74521 25.6066 6.74521ZM25.2786 7.85263C22.8604 7.85263 22.1996 11.1699 22.1996 15.4815C22.1996 19.6798 23.301 23.1103 25.4989 23.1103C28.0248 23.1103 28.6857 19.793 28.6857 15.4815C28.6857 11.2782 27.5892 7.85263 25.2786 7.85263ZM66.2855 15.5897C66.2855 11.0567 69.1443 6.74521 74.7493 6.74521C79.3655 6.74521 81.5634 10.1708 81.5634 14.7038H71.3374C71.2248 18.7939 73.2073 21.7765 77.1626 21.7765C78.92 21.7765 79.8011 21.3335 80.9025 20.5608L81.3431 21.112C80.2417 22.6575 77.8235 24.2079 74.7493 24.2079C69.8052 24.2128 66.2855 20.674 66.2855 15.5897ZM71.3423 13.493L76.5116 13.3798C76.5116 11.1699 76.1836 7.85263 74.3136 7.85263C72.4437 7.85263 71.45 10.9485 71.3423 13.493ZM94.6531 7.63114C93.3314 7.0799 91.574 6.74521 89.5964 6.74521C85.5285 6.74521 82.9977 9.1766 82.9977 12.051C82.9977 14.9253 84.8627 16.141 87.5061 17.0269C90.2523 18.0211 91.0258 18.7939 91.0258 20.1228C91.0258 21.4517 90.0369 22.6624 88.2747 22.6624C86.1844 22.6624 84.6474 21.4467 83.4382 18.1294L82.6697 18.3509L82.7823 23.2137C84.104 23.7649 86.5222 24.2079 88.6076 24.2079C92.8957 24.2079 95.6468 21.998 95.6468 18.5724C95.6468 16.2493 94.4377 14.9253 91.5789 13.8179C88.4999 12.6022 87.4033 11.8295 87.4033 10.3923C87.4033 8.95512 88.3922 7.96091 89.7139 7.96091C91.6915 7.96091 93.0132 9.1766 94.002 12.1642L94.7706 11.9427L94.6531 7.63114ZM48.144 7.18818C46.2741 6.08569 42.9747 6.63693 41.2173 10.6138L41.325 6.74521L33.9627 8.18239V8.84684L34.7312 8.95512C35.7201 9.06832 36.1606 9.61957 36.2732 11.0567C36.4935 13.7096 36.3809 18.3509 36.2732 20.674C36.1606 21.998 35.725 22.6624 34.7312 22.7756L33.9627 22.8888V23.7748H44.1887V22.8888L42.867 22.7756C41.7656 22.6624 41.4376 22.0029 41.325 20.674C41.1048 18.5724 41.1048 14.3741 41.2173 11.7212C41.7656 10.9485 44.1838 10.284 46.3818 11.7212L48.144 7.18818Z" fill="black"/>
</svg>
