<svg width="52" height="25" viewBox="0 0 52 25" fill="none" xmlns="http://www.w3.org/2000/svg">
<path d="M24.9785 1.25067C24.9785 1.25067 32.2107 2.85691 32.2107 8.21104C32.2107 13.5652 24.9785 15.2126 24.9785 15.2126" stroke="#918280" stroke-width="0.750538"/>
<path d="M24.9373 15.2291C24.9373 15.2291 17.7051 13.5734 17.7051 8.26046C17.7051 3.10402 24.9373 1.25891 24.9373 1.25891" stroke="#918280" stroke-width="0.750538"/>
<path d="M24.9785 15.2208C30.4467 15.2208 34.8795 12.0935 34.8795 8.23575C34.8795 4.378 30.4467 1.25067 24.9785 1.25067C19.5104 1.25067 15.0775 4.378 15.0775 8.23575C15.0775 12.0935 19.5104 15.2208 24.9785 15.2208Z" stroke="#918280" stroke-width="0.750538"/>
<path d="M49.6898 17.1401C49.6898 16.5882 50.1264 16.1516 50.6783 16.1516C51.2302 16.1516 51.6667 16.5882 51.6667 17.1401C51.6667 17.692 51.2302 18.1285 50.6783 18.1285C50.1264 18.1285 49.6898 17.692 49.6898 17.1401ZM49.8463 17.1401C49.8463 17.6096 50.2252 17.9638 50.6783 17.9638C51.1313 17.9638 51.5102 17.6013 51.5102 17.1401C51.5102 16.6705 51.1313 16.3164 50.6783 16.3164C50.2252 16.3164 49.8463 16.6705 49.8463 17.1401ZM51.1313 17.7084H50.9501L50.6618 17.1977H50.4559V17.7084H50.2994V16.5964H50.7689C50.9666 16.5964 51.1478 16.6541 51.1478 16.893C51.1478 17.1154 50.9995 17.1895 50.8513 17.1977L51.1313 17.7084ZM50.4559 16.7529V17.033H50.6289C50.7771 17.033 50.983 17.0577 50.983 16.9094C50.983 16.7694 50.8677 16.7612 50.7277 16.7612H50.4559V16.7529Z" fill="#005097"/>
<path d="M14.9705 8.12866H20.4481" stroke="#918280" stroke-width="0.750538"/>
<path d="M29.583 8.12866H34.8877" stroke="#918280" stroke-width="0.750538"/>
<path d="M17.3097 12.6179C17.3097 12.6179 20.3245 10.2703 24.929 10.2703C29.5418 10.2703 32.7131 12.6179 32.7131 12.6179" stroke="#918280" stroke-width="0.750538"/>
<path d="M0.300049 16.6294H3.21599V22.3954H5.34117V24.2652H0.300049V16.6294Z" fill="#005097"/>
<path d="M13.1006 20.4761C13.1006 22.9143 11.2719 24.3805 9.03142 24.3805C6.78268 24.3805 4.96228 22.9143 4.96228 20.4761C4.96228 18.0874 6.78268 16.4647 9.01494 16.4647C11.2472 16.4647 13.1006 18.0874 13.1006 20.4761ZM7.97707 20.3938C7.97707 21.2587 8.21594 22.3871 9.02318 22.3871C9.83042 22.3871 10.0693 21.2669 10.0693 20.3938C10.0693 19.5865 9.8716 18.4416 9.02318 18.4416C8.17476 18.4416 7.97707 19.5865 7.97707 20.3938Z" fill="#005097"/>
<path d="M19.3772 18.804C18.9488 18.4416 18.504 18.2192 17.8286 18.3098C16.7166 18.458 16.14 19.4218 16.14 20.4102C16.14 21.4399 16.9802 22.3542 17.8286 22.4283C18.4464 22.5107 18.8912 22.4201 19.3772 22.0906V24.084C18.8912 24.2982 17.911 24.3888 17.3673 24.3888C15.0033 24.3888 13.1499 22.7002 13.1499 20.5256C13.1499 18.3015 15.0115 16.4647 17.4414 16.4647C18.1251 16.4647 18.7347 16.4647 19.3772 16.6706V18.804Z" fill="#005097"/>
<path d="M19.509 16.6212H22.4414V19.6771C22.4991 19.57 24.0724 16.6129 24.0724 16.6129H27.3425L25.0361 20.2702L27.4167 24.257H24.0147L22.4414 21.1433V24.2652H19.509V16.6212Z" fill="#005097"/>
<path d="M27.3838 16.6211H33.6193V18.631H31.9636L31.9554 24.2651H29.0147V18.631H27.3838V16.6211Z" fill="#005097"/>
<path d="M41.7493 16.6541H44.9453L46.6833 20.4432L46.6504 16.6541H49.5828V24.2982H46.3538L44.7476 20.6326V24.3064L41.7493 24.2982V16.6541Z" fill="#005097"/>
<path d="M41.6587 20.4515C41.6587 22.8896 39.7312 24.3888 37.433 24.3888C35.1349 24.3888 33.3309 22.8896 33.3309 20.4515C33.3309 18.0627 35.209 16.4647 37.4989 16.4647C39.7806 16.4565 41.6587 18.0627 41.6587 20.4515ZM36.4199 20.3856C36.4199 21.2505 36.667 22.3378 37.4907 22.3378C38.3226 22.3378 38.5615 21.2505 38.5615 20.3856C38.5615 19.5783 38.3556 18.4087 37.4907 18.4087C36.6258 18.4169 36.4199 19.5783 36.4199 20.3856Z" fill="#005097"/>
<path d="M24.9785 15.2208C24.9785 15.2208 29.5336 13.0215 29.5336 8.21927C29.5336 3.46646 24.9785 1.25067 24.9785 1.25067" stroke="#918280" stroke-width="0.750538"/>
<path d="M24.8962 1.25067C24.8962 1.25067 20.3411 3.52412 20.3411 8.25222C20.3411 12.9556 24.8962 15.2208 24.8962 15.2208" stroke="#918280" stroke-width="0.750538"/>
<path d="M29.2041 7.43676C29.303 8.19458 29.2124 8.91944 29.2124 8.91944H21.0741C20.0115 8.91944 20.0692 7.83215 20.0692 7.83215C20.4481 2.72513 24.9043 0.970626 24.9043 0.970626C25.2256 0.954151 25.9587 0.995337 25.9587 0.995337C25.9587 0.995337 22.1284 3.33468 21.7166 7.43676H29.2041Z" fill="#005097"/>
</svg>
