<svg width="100" height="47" viewBox="0 0 100 47" fill="none" xmlns="http://www.w3.org/2000/svg">
<path d="M48.0437 1.55273C48.0437 1.55273 62.1232 4.67973 62.1232 15.1031C62.1232 25.5264 48.0437 28.7336 48.0437 28.7336" stroke="#918280" stroke-width="1.46113"/>
<path d="M47.9633 28.7657C47.9633 28.7657 33.8838 25.5425 33.8838 15.1993C33.8838 5.16088 47.9633 1.56885 47.9633 1.56885" stroke="#918280" stroke-width="1.46113"/>
<path d="M48.0434 28.7496C58.6888 28.7496 67.3186 22.6614 67.3186 15.1512C67.3186 7.64096 58.6888 1.55273 48.0434 1.55273C37.3981 1.55273 28.7683 7.64096 28.7683 15.1512C28.7683 22.6614 37.3981 28.7496 48.0434 28.7496Z" stroke="#918280" stroke-width="1.46113"/>
<path d="M96.1516 32.4856C96.1516 31.4112 97.0015 30.5613 98.0759 30.5613C99.1503 30.5613 100 31.4112 100 32.4856C100 33.56 99.1503 34.4099 98.0759 34.4099C97.0015 34.4099 96.1516 33.56 96.1516 32.4856ZM96.4563 32.4856C96.4563 33.3996 97.1939 34.0892 98.0759 34.0892C98.9579 34.0892 99.6955 33.3836 99.6955 32.4856C99.6955 31.5715 98.9579 30.882 98.0759 30.882C97.1939 30.882 96.4563 31.5715 96.4563 32.4856ZM98.9579 33.5921H98.6051L98.0438 32.5978H97.6429V33.5921H97.3383V31.4272H98.2523C98.6372 31.4272 98.99 31.5395 98.99 32.0045C98.99 32.4375 98.7013 32.5818 98.4127 32.5978L98.9579 33.5921ZM97.6429 31.7319V32.2771H97.9797C98.2684 32.2771 98.6692 32.3252 98.6692 32.0366C98.6692 31.764 98.4447 31.7479 98.1721 31.7479H97.6429V31.7319Z" fill="#005097"/>
<path d="M28.5601 14.9426H39.2239" stroke="#918280" stroke-width="1.46113"/>
<path d="M57.0073 14.9426H67.3344" stroke="#918280" stroke-width="1.46113"/>
<path d="M33.1145 23.6823C33.1145 23.6823 38.9836 19.1121 47.9477 19.1121C56.9278 19.1121 63.1016 23.6823 63.1016 23.6823" stroke="#918280" stroke-width="1.46113"/>
<path d="M0 31.4915H5.6767V42.7166H9.81396V46.3567H0V31.4915Z" fill="#005097"/>
<path d="M24.9201 38.9801C24.9201 43.7268 21.3601 46.5811 16.9984 46.5811C12.6206 46.5811 9.07666 43.7268 9.07666 38.9801C9.07666 34.3297 12.6206 31.1707 16.9663 31.1707C21.312 31.1707 24.9201 34.3297 24.9201 38.9801ZM14.9458 38.8198C14.9458 40.5035 15.4108 42.7005 16.9823 42.7005C18.5539 42.7005 19.0189 40.5196 19.0189 38.8198C19.0189 37.2483 18.634 35.0193 16.9823 35.0193C15.3307 35.0193 14.9458 37.2483 14.9458 38.8198Z" fill="#005097"/>
<path d="M37.139 35.7248C36.3051 35.0193 35.4392 34.5863 34.1242 34.7627C31.9594 35.0513 30.8369 36.9275 30.8369 38.8518C30.8369 40.8563 32.4726 42.6363 34.1242 42.7806C35.3269 42.941 36.1929 42.7646 37.139 42.1232V46.0038C36.1929 46.4208 34.2846 46.5972 33.2262 46.5972C28.6239 46.5972 25.0159 43.3098 25.0159 39.0763C25.0159 34.7467 28.64 31.1707 33.3706 31.1707C34.7015 31.1707 35.8882 31.1707 37.139 31.5716V35.7248Z" fill="#005097"/>
<path d="M37.3958 31.4757H43.1045V37.4251C43.2168 37.2166 46.2796 31.4597 46.2796 31.4597H52.6459L48.1558 38.5796L52.7902 46.341H46.1674L43.1045 40.2795V46.357H37.3958V31.4757Z" fill="#005097"/>
<path d="M52.7261 31.4756H64.8652V35.3883H61.642L61.626 46.3569H55.9012V35.3883H52.7261V31.4756Z" fill="#005097"/>
<path d="M80.6926 31.5398H86.9146L90.2981 38.9163L90.234 31.5398H95.9428V46.4211H89.6567L86.5297 39.2851V46.4371L80.6926 46.4211V31.5398Z" fill="#005097"/>
<path d="M80.516 38.9321C80.516 43.6787 76.7636 46.5972 72.2896 46.5972C67.8156 46.5972 64.3037 43.6787 64.3037 38.9321C64.3037 34.2817 67.9599 31.1707 72.4179 31.1707C76.8598 31.1547 80.516 34.2817 80.516 38.9321ZM70.3172 38.8038C70.3172 40.4876 70.7982 42.6043 72.4018 42.6043C74.0215 42.6043 74.4865 40.4876 74.4865 38.8038C74.4865 37.2323 74.0856 34.9552 72.4018 34.9552C70.7181 34.9712 70.3172 37.2323 70.3172 38.8038Z" fill="#005097"/>
<path d="M48.0437 28.7496C48.0437 28.7496 56.9115 24.468 56.9115 15.1191C56.9115 5.86638 48.0437 1.55273 48.0437 1.55273" stroke="#918280" stroke-width="1.46113"/>
<path d="M47.8832 1.55273C47.8832 1.55273 39.0154 5.97864 39.0154 15.1832C39.0154 24.3397 47.8832 28.7496 47.8832 28.7496" stroke="#918280" stroke-width="1.46113"/>
<path d="M56.27 13.5957C56.4624 15.071 56.286 16.4822 56.286 16.4822H40.4426C38.3739 16.4822 38.4862 14.3655 38.4862 14.3655C39.2238 4.42322 47.8992 1.00757 47.8992 1.00757C48.5246 0.975501 49.9518 1.05568 49.9518 1.05568C49.9518 1.05568 42.4952 5.60987 41.6934 13.5957H56.27Z" fill="#005097"/>
</svg>
