<svg width="19" height="14" viewBox="0 0 19 14" fill="none" xmlns="http://www.w3.org/2000/svg">
<path d="M18.5407 13.2123C18.1649 13.7111 17.608 13.9996 17.0207 13.9998H1.97899C1.39169 13.9996 0.834829 13.7111 0.458984 13.2123L7.71859 6.52734L8.47068 7.0961C9.09023 7.5686 9.90949 7.5686 10.529 7.0961L11.2811 6.52734L18.5407 13.2123Z" fill="#F4C8CF"/>
<path d="M18.651 0.953802L11.2806 6.52751L10.5285 7.09627C9.90893 7.56876 9.08967 7.56876 8.47013 7.09627L7.71803 6.52751L0.347656 0.945025C0.718528 0.353952 1.32768 0.000973533 1.9785 3.01794e-05H17.0202C17.6739 -0.00378425 18.2861 0.354198 18.651 0.953802Z" fill="url(#paint0_linear)"/>
<path d="M7.71879 6.52775L0.45919 13.2127C0.162055 12.8202 -0.000521461 12.3245 3.51799e-05 11.8127V2.18779C-0.00237693 1.74388 0.119305 1.30994 0.348381 0.945312L7.71879 6.52775Z" fill="url(#paint1_linear)"/>
<path d="M19 2.18687V11.8118C19.0005 12.3236 18.838 12.8193 18.5409 13.2118L11.2812 6.52683L18.6517 0.953125C18.8796 1.31513 19.0012 1.74583 19 2.18687Z" fill="url(#paint2_linear)"/>
<defs>
<linearGradient id="paint0_linear" x1="7.14002" y1="3.21786" x2="13.4263" y2="11.6807" gradientUnits="userSpaceOnUse">
<stop stop-color="#FFF5F7"/>
<stop offset="1" stop-color="#FFFBD8"/>
</linearGradient>
<linearGradient id="paint1_linear" x1="7.71879" y1="13.2127" x2="-0.115282" y2="0.932139" gradientUnits="userSpaceOnUse">
<stop stop-color="#FFFBD8"/>
<stop offset="1" stop-color="#FDDAE0"/>
</linearGradient>
<linearGradient id="paint2_linear" x1="19" y1="13.2118" x2="11.1739" y2="0.934932" gradientUnits="userSpaceOnUse">
<stop stop-color="#FFFBD8"/>
<stop offset="1" stop-color="#FDDAE0"/>
</linearGradient>
</defs>
</svg>
