<svg width="20" height="20" viewBox="0 0 20 20" fill="none" xmlns="http://www.w3.org/2000/svg">
<path d="M2.89888 5.09019C2.92238 4.85093 2.83385 4.61444 2.66049 4.45341L0.89464 2.26108V1.93359H6.37761L10.6157 11.5125L14.3416 1.93359H19.5685V2.26108L18.0587 3.75296C17.9286 3.85521 17.864 4.02327 17.891 4.1896V15.1513C17.864 15.3176 17.9286 15.4857 18.0587 15.5879L19.5332 17.0798V17.4073H12.1166V17.0798L13.6441 15.5515C13.7942 15.3969 13.7942 15.3514 13.7942 15.1149V6.25458L9.54731 17.3709H8.97341L4.02903 6.25458V13.7049C3.9878 14.0181 4.08874 14.3335 4.30273 14.56L6.28932 17.0434V17.3709H0.65625V17.0434L2.64283 14.56C2.85527 14.3331 2.95032 14.0156 2.89888 13.7049V5.09019Z" fill="white"/>
</svg>
