<svg width="110" height="35" viewBox="0 0 110 35" fill="none" xmlns="http://www.w3.org/2000/svg">
<path d="M21.3046 0C21.3046 9.13937 21.3046 18.2787 21.3046 27.4387C19.452 27.4181 18.5257 27.4181 16.6526 27.3769C13.0298 22.5808 9.55105 17.7024 6.19583 12.7004C6.19583 17.4965 6.19583 22.2926 6.19583 27.0888C4.13742 27.0064 2.05842 26.9035 0 26.78C0 17.8465 0 8.93353 0 0C1.85257 0 2.77886 0 4.65202 0C8.1925 5.12546 11.6301 10.3127 15.1088 15.4793C15.1088 10.3127 15.1088 5.16662 15.1088 0C17.1672 0 19.2462 0 21.3046 0Z" fill="#074C93"/>
<path d="M45.6163 7.98576C45.6163 14.3669 45.6163 20.7274 45.6163 27.1084C43.6814 27.1702 41.7465 27.2525 39.8116 27.2937C39.8116 26.6144 39.8116 26.2645 39.8116 25.5852C38.5354 27.0879 35.9418 27.973 34.048 27.9112C29.0255 27.7671 24.7852 23.4445 24.7852 18.3808C24.7852 13.2553 28.6344 7.92401 34.048 7.71817C35.9624 7.63584 38.5354 8.52095 39.8116 10.0442C39.8116 9.30315 39.8116 8.91205 39.8116 8.17102C41.7465 8.10927 43.6814 8.04752 45.6163 7.98576ZM39.8116 17.9897C39.8116 15.5196 37.6914 13.3994 35.2007 13.42C32.5866 13.4406 30.5899 15.7048 30.5899 18.2984C30.5899 20.8509 32.6895 22.8269 35.2007 22.7446C37.712 22.6623 39.8116 20.4598 39.8116 17.9897Z" fill="#074C93"/>
<path d="M68.2763 7.16455C65.9915 13.4016 63.8096 19.6591 61.6482 25.9373C60.1044 30.9598 56.0699 34.7062 50.6151 34.418C50.6151 32.339 50.6151 31.2892 50.6151 29.1896C52.797 29.2925 54.8349 28.0163 55.4524 25.8756C52.8794 19.8856 50.2652 13.9162 47.7539 7.92617C49.8741 7.84383 52.0148 7.76149 54.135 7.69974C55.5553 11.5284 56.9962 15.357 58.4371 19.1857C59.631 15.2541 60.8454 11.3226 62.0805 7.41156C64.1389 7.30864 66.1973 7.2263 68.2763 7.16455Z" fill="#074C93"/>
<path d="M88.7998 6.97664C86.4532 13.0901 84.2712 19.2448 82.1716 25.4612C80.7513 30.5249 76.6345 34.6417 71.1385 34.4153C71.1385 32.4804 71.1385 30.5661 71.1385 28.6312C73.3822 28.7341 75.3789 27.3755 75.9758 25.173C73.5263 19.1213 70.9327 13.1313 68.2773 7.1619C70.3975 7.10014 72.5383 7.01781 74.6584 6.99723C76.1199 10.7641 77.5814 14.5104 78.9605 18.2979C80.1132 14.4899 81.3277 10.723 82.6039 6.95605C84.6623 6.95605 86.7208 6.95606 88.7998 6.97664Z" fill="#074C93"/>
<path d="M109.999 7.63877C109.999 14.0199 109.999 20.3804 109.999 26.7615C108.065 26.6585 106.13 26.5556 104.195 26.4733C104.195 25.7322 104.195 25.3617 104.195 24.6207C102.918 26.1233 100.304 26.9261 98.4311 26.8438C93.1204 26.6174 89.2094 20.9773 89.1683 16.0165C89.1271 11.0146 93.388 6.67131 98.4311 6.65073C100.345 6.63014 102.918 7.55643 104.195 9.10024C104.195 8.40038 104.195 8.05045 104.195 7.35059C106.13 7.43293 108.065 7.53585 109.999 7.63877ZM104.195 16.6546C104.174 14.1845 102.075 12.0232 99.5838 11.8585C97.1138 11.7144 94.9318 13.6493 94.973 16.14C95.0142 18.7542 96.9491 21.0596 99.5838 21.1831C102.054 21.3067 104.215 19.1041 104.195 16.6546Z" fill="#074C93"/>
</svg>
