<svg width="29" height="20" viewBox="0 0 29 20" fill="none" xmlns="http://www.w3.org/2000/svg">
<path d="M27.8686 0H1.13137C0.506539 0 0 0.497318 0 1.11077V18.8892C0 19.5026 0.506539 19.9999 1.13137 19.9999H27.8686C28.4935 19.9999 29 19.5026 29 18.8892V1.11077C29 0.497318 28.4935 0 27.8686 0Z" fill="white"/>
<path d="M27.8689 0H14.5664V20H27.8689C28.4937 20 29.0003 19.5027 29.0003 18.8892V1.11077C29.0003 0.497318 28.4938 0 27.8689 0Z" fill="#F4F1F1"/>
<path d="M24.8641 7.30156H17.6206C17.1225 7.30156 16.7188 6.90513 16.7188 6.41616C16.7188 5.92719 17.1225 5.53076 17.6206 5.53076H24.864C25.3621 5.53076 25.7658 5.92719 25.7658 6.41616C25.7658 6.90513 25.3621 7.30156 24.8641 7.30156Z" fill="#003140"/>
<path d="M24.8641 10.9871H17.6206C17.1225 10.9871 16.7188 10.5907 16.7188 10.1017C16.7188 9.61268 17.1225 9.21631 17.6206 9.21631H24.864C25.3621 9.21631 25.7658 9.61274 25.7658 10.1017C25.7659 10.5907 25.3621 10.9871 24.8641 10.9871Z" fill="#003140"/>
<path d="M24.8641 14.4686H17.6206C17.1225 14.4686 16.7188 14.0721 16.7188 13.5832C16.7188 13.0941 17.1225 12.6978 17.6206 12.6978H24.864C25.3621 12.6978 25.7658 13.0942 25.7658 13.5832C25.7659 14.0721 25.3621 14.4686 24.8641 14.4686Z" fill="#003140"/>
<path d="M11.6772 8.40272H9.82033C9.60495 8.40272 9.43038 8.23133 9.43038 8.01987V6.19682C9.43038 5.98536 9.25581 5.81396 9.04043 5.81396H6.56572C6.35034 5.81396 6.17577 5.98536 6.17577 6.19682V8.01987C6.17577 8.23133 6.00119 8.40272 5.78581 8.40272H3.92901C3.71363 8.40272 3.53906 8.57411 3.53906 8.78557V11.2152C3.53906 11.4267 3.71363 11.5981 3.92901 11.5981H5.78587C6.00125 11.5981 6.17582 11.7695 6.17582 11.9809V13.804C6.17582 14.0155 6.35039 14.1868 6.56577 14.1868H9.04049C9.25587 14.1868 9.43044 14.0155 9.43044 13.804V11.9809C9.43044 11.7695 9.60501 11.5981 9.82039 11.5981H11.6772C11.8926 11.5981 12.0672 11.4267 12.0672 11.2152V8.78557C12.0671 8.57411 11.8926 8.40272 11.6772 8.40272Z" fill="#FF4A4A"/>
</svg>
