<svg width="26" height="26" viewBox="0 0 26 26" fill="none" xmlns="http://www.w3.org/2000/svg">
<g clip-path="url(#clip0)">
<path d="M18.3615 25.5911C20.9967 25.5911 23.1331 23.4548 23.1331 20.8195C23.1331 18.1842 20.9967 16.0479 18.3615 16.0479C15.7262 16.0479 13.5898 18.1842 13.5898 20.8195C13.5898 23.4548 15.7262 25.5911 18.3615 25.5911Z" fill="#F9F3F1"/>
<path d="M21.7344 24.1933C19.871 26.0567 16.8501 26.0567 14.9867 24.1933C14.9197 24.1263 14.8548 24.0572 14.793 23.9871C16.6563 25.3132 19.2584 25.1405 20.9291 23.4698C22.7244 21.6745 22.7899 18.8038 21.1249 16.9299C21.3385 17.0817 21.5427 17.2535 21.7344 17.4451C23.5982 19.3085 23.5982 22.33 21.7344 24.1933Z" fill="#EFE2DD"/>
<path d="M12.5725 1.927C13.5061 0.161113 15.6944 -0.513536 17.4603 0.420145L24.0723 3.91593C25.8381 4.84957 26.5127 7.03792 25.5791 8.8038C24.6455 10.5696 22.4571 11.2443 20.6912 10.3106L14.0793 6.81481C12.3135 5.88123 11.6388 3.69283 12.5725 1.927Z" fill="#FEC165"/>
<path d="M25.5788 8.80416C25.5479 8.86281 25.5155 8.9204 25.4804 8.97693C25.8715 7.40153 25.1584 5.70415 23.6589 4.91147L17.0474 1.41563C15.3401 0.513006 13.2385 1.11352 12.2578 2.74966C12.3269 2.47008 12.4311 2.19364 12.5719 1.92715C13.5055 0.161169 15.694 -0.513176 17.4599 0.420353L24.072 3.91619C25.8375 4.84967 26.5124 7.03817 25.5788 8.80416Z" fill="#FDB441"/>
<path d="M17.3867 8.56293L20.7677 2.16821L24.0737 3.91613C25.8395 4.84976 26.5142 7.03811 25.5806 8.804C24.6469 10.5698 22.4586 11.2445 20.6927 10.3108L17.3867 8.56293Z" fill="#BB6BD9"/>
<path d="M25.5798 8.80379C25.5625 8.83677 25.5442 8.86925 25.5259 8.90172C25.5117 8.92684 25.4965 8.95201 25.4814 8.97662C25.8725 7.40122 25.1594 5.70383 23.6599 4.91116L20.2656 3.11641L20.7667 2.16821L24.073 3.91588C25.8385 4.84931 26.5133 7.03781 25.5798 8.80379Z" fill="#9B51E0"/>
<path d="M11.3944 9.53601C12.8191 10.9362 12.8389 13.226 11.4388 14.6507L6.19629 19.985C4.79615 21.4096 2.50626 21.4295 1.08161 20.0294C-0.343036 18.6292 -0.362876 16.3393 1.03722 14.9147L6.27971 9.58041C7.67985 8.15576 9.96978 8.13587 11.3944 9.53601Z" fill="#7ACAA6"/>
<path d="M1.08267 20.0297C1.03533 19.9834 0.989457 19.9358 0.945312 19.8859C2.34282 20.7117 4.17329 20.5144 5.3621 19.3047L10.6045 13.9707C11.9581 12.5933 11.9844 10.4078 10.6975 8.99976C10.9456 9.14604 11.1807 9.325 11.3957 9.53624C12.8205 10.9363 12.84 13.2262 11.44 14.651L6.19744 19.9854C4.79755 21.4097 2.50747 21.4298 1.08267 20.0297Z" fill="#57BE92"/>
<path d="M3.65849 12.2473L8.81756 17.3176L6.19629 19.9847C4.79615 21.4094 2.50626 21.4292 1.08161 20.0291C-0.343036 18.629 -0.362876 16.3391 1.03722 14.9145L3.65849 12.2473Z" fill="#E97F5D"/>
<path d="M1.08267 20.0296C1.05603 20.0036 1.03015 19.9767 1.00432 19.9499C0.984281 19.9291 0.964543 19.9074 0.945312 19.8858C2.34282 20.7115 4.17329 20.5143 5.3621 19.3045L8.05354 16.5662L8.81856 17.3177L6.19744 19.9852C4.79756 21.4095 2.50747 21.4296 1.08267 20.0296Z" fill="#E94444"/>
<path d="M20.0745 22.9123C19.9771 22.9123 19.8797 22.8752 19.8053 22.8008L16.381 19.3764C16.2324 19.2278 16.2324 18.9868 16.381 18.8383C16.5297 18.6897 16.7706 18.6897 16.9192 18.8383L20.3436 22.2627C20.4922 22.4113 20.4922 22.6523 20.3436 22.8008C20.2693 22.8751 20.1718 22.9123 20.0745 22.9123Z" fill="#CDBFBA"/>
</g>
<defs>
<clipPath id="clip0">
<rect width="26" height="26" fill="white"/>
</clipPath>
</defs>
</svg>
