<svg width="152" height="274" viewBox="0 0 152 274" fill="none" xmlns="http://www.w3.org/2000/svg">
<path d="M120.923 17.793H0V211.286H120.923V17.793Z" fill="#E0E0E0"/>
<path d="M81.4476 179.004C81.4476 179.004 37.2389 248.278 37.01 248.395C36.781 248.511 31.5273 241.639 31.5273 241.639C31.5273 241.639 42.0376 225.149 49.6907 206.493C57.3438 187.837 64.1971 179.01 64.1971 179.01L81.4476 179.004Z" fill="#EFAFA2"/>
<path d="M99.4976 175.225C98.8108 184.499 105.659 211.224 105.659 211.224C105.659 211.224 120.477 211.224 120.762 211.224L116.624 176.941C116.624 176.941 99.9526 169.956 99.4976 175.225Z" fill="#EFAFA2"/>
<path d="M31.5289 241.634C28.4457 240.832 24.5742 243.693 24.5742 243.693V273.579C24.5742 273.579 25.6029 275.069 28.0516 272.434C30.5002 269.8 31.9868 257.751 31.9868 257.751L37.0116 248.396L31.5289 241.634Z" fill="#074C93"/>
<path d="M96.4656 43.077C104.351 41.7031 109.442 45.087 107.767 51.3202C106.092 57.5535 106.225 60.0805 109.48 63.5195C112.734 66.9586 112.395 72.1084 112.395 72.1084H93.2114C93.2114 72.1084 85.7931 58.4946 88.0476 53.0368C90.302 47.5791 96.4656 43.077 96.4656 43.077Z" fill="black"/>
<path d="M101.433 44.681C104.519 49.7176 103.374 52.3521 104.62 53.8392C105.866 55.3264 107.362 55.672 106.678 56.8164C106.285 57.4885 105.824 57.6914 105.104 57.9858C105.104 57.9858 106.507 63.343 104.136 65.4053C103.423 66.007 102.584 66.4424 101.682 66.68C100.78 66.9176 99.837 66.9515 98.9204 66.7792L97.4367 78.9175L85.7137 76.4052L88.8485 66.7792C88.8485 66.7792 82.4638 56.8164 86.4685 51.3209C90.4733 45.8254 98.477 43.191 101.433 44.681Z" fill="#EFAFA2"/>
<path d="M101.903 54.7599C102.182 54.7886 102.443 54.4724 102.485 54.0536C102.528 53.6349 102.338 53.2721 102.059 53.2434C101.78 53.2147 101.52 53.5309 101.477 53.9496C101.434 54.3684 101.625 54.7312 101.903 54.7599Z" fill="black"/>
<path d="M99.553 60.7348C100.774 60.8607 101.866 59.9705 101.992 58.7465C102.117 57.5225 101.229 56.4281 100.008 56.3022C98.7868 56.1763 97.695 57.0665 97.5694 58.2905C97.4438 59.5145 98.3319 60.6088 99.553 60.7348Z" fill="#FF968C"/>
<path d="M104.779 60.3702C103.201 63.0944 101.172 59.6879 101.172 59.6879" stroke="black" stroke-width="0.7" stroke-miterlimit="10"/>
<path d="M98.9196 66.7782L94.9609 65.9727L98.0647 73.7696L98.9196 66.7782Z" fill="#49322E"/>
<path d="M90.125 57.5025C91.3797 56.8141 91.8376 58.5336 91.8376 58.5336L90.125 57.5025Z" fill="white"/>
<path d="M90.125 57.5025C91.3797 56.8141 91.8376 58.5336 91.8376 58.5336" stroke="#231F20" stroke-width="0.907557" stroke-miterlimit="10"/>
<path d="M96.4623 41.5325C104.347 43.4205 102.719 47.3707 95.5234 50.9782C88.3282 54.5857 98.8646 57.438 95.5234 61.5916C92.1823 65.7452 95.2684 63.6248 95.8624 73.7706C88.5774 74.1133 74.9201 72.1033 74.9201 72.1033C74.9201 72.1033 69.2085 38.7818 96.4623 41.5325Z" fill="black"/>
<path d="M120.739 47.542C120.739 27.5003 107.316 20.75 107.316 20.75" stroke="#219653" stroke-width="1.81511" stroke-miterlimit="10"/>
<path d="M86.2827 74.4062C78.6296 76.1258 50.7195 108.125 43.0664 123.125C45.5788 125.989 55.2893 133.087 55.2893 133.087L72.8673 111.788C72.8673 111.788 60.0852 166.293 58.6015 179.909C78.3644 179.68 117.774 177.963 117.774 177.963C117.774 177.963 104.523 95.6356 100.524 83.7267C96.5249 71.8179 98.4549 76.7122 97.4319 76.6686C96.409 76.625 86.2827 74.4062 86.2827 74.4062Z" fill="#F8D253"/>
<path d="M76.7417 97.1289C76.307 97.9277 72.8789 111.783 72.8789 111.783" stroke="white" stroke-width="0.907557" stroke-miterlimit="10"/>
<path d="M99.4957 110.875C99.0378 119.464 81.4453 154.272 81.4453 154.272" stroke="white" stroke-width="0.907557" stroke-miterlimit="10"/>
<path d="M103.493 132.055C103.838 136.992 92.0703 164.586 92.0703 164.586" stroke="white" stroke-width="0.907557" stroke-miterlimit="10"/>
<path d="M120.629 211.225V46.1797" stroke="#219653" stroke-width="1.81511" stroke-miterlimit="10"/>
<path d="M120.629 73.999C125.657 54.5934 134.051 47.207 134.051 47.207" stroke="#219653" stroke-width="1.81511" stroke-miterlimit="10"/>
<path d="M120.629 51.6776C125.828 22.3093 134.051 10.9727 134.051 10.9727" stroke="#219653" stroke-width="1.81511" stroke-miterlimit="10"/>
<path d="M134.049 47.5366C136.62 51.3126 152.384 44.3416 150.9 38.9506C149.416 33.5597 133.079 41.8117 134.049 47.5366Z" stroke="#219653" stroke-width="1.81511" stroke-miterlimit="10"/>
<path d="M134.049 11.3411C136.62 15.1171 152.384 8.14605 150.9 2.75222C149.416 -2.64161 133.079 5.61615 134.049 11.3411Z" stroke="#219653" stroke-width="1.81511" stroke-miterlimit="10"/>
<path d="M107.501 20.481C104.931 24.257 89.1668 17.286 90.6534 11.8921C92.1399 6.49831 108.472 14.7619 107.501 20.481Z" stroke="#219653" stroke-width="1.81511" stroke-miterlimit="10"/>
<rect width="23.8585" height="13.099" transform="matrix(0.785476 0.618893 -0.617055 0.78692 20.4688 144.113)" fill="white"/>
<path d="M33.301 158.121C32.1811 157.629 31.3905 156.859 30.6159 155.654C29.9914 154.683 29.2645 154.12 28.0899 154.139C27.791 154.144 27.8487 154.605 28.1448 154.6C29.9451 154.57 30.3139 156.44 31.3926 157.486C31.8779 157.957 32.4095 158.282 32.9835 158.526L32.7282 158.852C31.6082 158.36 30.8177 157.589 30.043 156.385C29.4185 155.413 28.6916 154.85 27.517 154.87C27.2181 154.875 27.2759 155.336 27.572 155.331C29.3723 155.301 29.7411 157.171 30.8197 158.217C31.3051 158.687 31.8366 159.013 32.4106 159.257L32.1553 159.583C31.0353 159.09 30.2449 158.32 29.4701 157.116C28.8456 156.144 28.1188 155.581 26.9441 155.6C26.6453 155.605 26.7031 156.067 26.9991 156.061C28.7994 156.032 29.1682 157.901 30.2468 158.948C30.7323 159.418 31.2638 159.744 31.8379 159.988L31.4414 160.493L34.0333 162.535L36.7859 159.025L34.1938 156.983L33.301 158.121ZM33.4114 158.69C33.532 158.733 33.6534 158.772 33.7776 158.809L33.5191 159.139C33.393 159.102 33.2747 159.059 33.1556 159.016L33.4114 158.69ZM32.8386 159.421C32.9594 159.463 33.0809 159.503 33.2049 159.539L32.9463 159.869C32.8203 159.832 32.7019 159.789 32.583 159.747L32.8386 159.421ZM32.2657 160.151C32.3865 160.193 32.508 160.233 32.6321 160.27L32.5067 160.43L33.8433 161.483L35.7214 159.088L34.3848 158.035L34.0916 158.408C33.9656 158.372 33.8473 158.328 33.7283 158.286L34.2677 157.598L36.1718 159.098L33.9601 161.919L32.0561 160.419L32.2657 160.151Z" fill="#074C93"/>
<path d="M21.4894 158.004L15.5 153.285L15.3012 153.539L21.2907 158.258L21.4894 158.004Z" fill="black"/>
<path d="M23.2856 157.574L16.3945 152.145L16.1958 152.398L23.0868 157.827L23.2856 157.574Z" fill="black"/>
<path d="M19.9967 151.285C20.9822 152.061 22.4082 151.89 23.1821 150.903C23.9562 149.916 23.7846 148.486 22.7996 147.71C21.8145 146.934 20.3881 147.105 19.6142 148.092C18.8401 149.079 19.0112 150.508 19.9967 151.285ZM22.4246 148.188C23.1451 148.756 23.2709 149.805 22.7048 150.527C22.1388 151.249 21.0921 151.374 20.3716 150.807C19.6512 150.239 19.5255 149.19 20.0915 148.468C20.6576 147.746 21.7042 147.621 22.4246 148.188Z" fill="#ED6F56"/>
<path d="M20.6439 150.457C21.1733 150.874 21.9396 150.783 22.3555 150.252C22.7714 149.722 22.6794 148.954 22.15 148.537C21.6206 148.119 20.8543 148.211 20.4384 148.742C20.0225 149.272 20.1145 150.04 20.6439 150.457Z" fill="#ED6F56"/>
<path d="M53 130.112C52.3886 130.925 36.5521 147.4 36.5521 147.4C36.5521 147.4 33.2716 154.266 32.9818 153.928L32.3243 153.434C32.3155 152.689 32.3243 151.751 32.3243 151.751C32.3243 151.751 27.398 157.935 26.6127 157.821C25.8274 157.708 28.0964 154.272 28.0964 154.272C28.0964 154.272 24.2133 158.85 23.4135 158.394C22.6137 157.938 26.6127 153.056 26.6127 153.056C26.6127 153.056 23.9583 156.674 23.286 156.218C22.6137 155.762 25.9201 152.317 25.9201 152.317C25.9201 152.317 23.1935 154.956 22.84 153.928C22.4864 152.9 30.1451 146.281 32.0895 144.263C34.034 142.244 45.799 123.809 45.799 123.809L53 130.112Z" fill="#EFAFA2"/>
</svg>
