<svg width="135" height="62" viewBox="0 0 135 62" fill="none" xmlns="http://www.w3.org/2000/svg">
<path d="M64.8594 0.854736C64.8594 0.854736 83.8668 5.0762 83.8668 19.1477C83.8668 33.2192 64.8594 37.5489 64.8594 37.5489" stroke="#918280" stroke-width="1.51228"/>
<path d="M64.7515 37.5921C64.7515 37.5921 45.7441 33.2407 45.7441 19.2774C45.7441 5.72548 64.7515 0.876221 64.7515 0.876221" stroke="#918280" stroke-width="1.51228"/>
<path d="M64.8594 37.5706C79.2307 37.5706 90.8809 29.3515 90.8809 19.2127C90.8809 9.07386 79.2307 0.854736 64.8594 0.854736C50.4881 0.854736 38.8379 9.07386 38.8379 19.2127C38.8379 29.3515 50.4881 37.5706 64.8594 37.5706Z" stroke="#918280" stroke-width="1.51228"/>
<path d="M129.805 42.6147C129.805 41.1642 130.952 40.0168 132.403 40.0168C133.853 40.0168 135 41.1642 135 42.6147C135 44.0651 133.853 45.2125 132.403 45.2125C130.952 45.2125 129.805 44.0651 129.805 42.6147ZM130.216 42.6147C130.216 43.8486 131.212 44.7795 132.403 44.7795C133.593 44.7795 134.589 43.827 134.589 42.6147C134.589 41.3807 133.593 40.4498 132.403 40.4498C131.212 40.4498 130.216 41.3807 130.216 42.6147ZM133.593 44.1084H133.117L132.359 42.7662H131.818V44.1084H131.407V41.1859H132.641C133.16 41.1859 133.636 41.3374 133.636 41.9652C133.636 42.5497 133.247 42.7446 132.857 42.7662L133.593 44.1084ZM131.818 41.5972V42.3332H132.273C132.662 42.3332 133.204 42.3982 133.204 42.0085C133.204 41.6405 132.9 41.6188 132.532 41.6188H131.818V41.5972Z" fill="#005097"/>
<path d="M38.5566 18.9312H52.9529" stroke="#918280" stroke-width="1.51228"/>
<path d="M76.9609 18.9312H90.9026" stroke="#918280" stroke-width="1.51228"/>
<path d="M44.7051 30.7296C44.7051 30.7296 52.6284 24.5598 64.7299 24.5598C76.8531 24.5598 85.1878 30.7296 85.1878 30.7296" stroke="#918280" stroke-width="1.51228"/>
<path d="M0 41.2725H7.66357V56.4264H13.2489V61.3406H0V41.2725Z" fill="#005097"/>
<path d="M33.6426 51.3822C33.6426 57.7901 28.8367 61.6436 22.9483 61.6436C17.0382 61.6436 12.2539 57.7901 12.2539 51.3822C12.2539 45.1041 17.0382 40.8394 22.905 40.8394C28.7717 40.8394 33.6426 45.1041 33.6426 51.3822ZM20.1773 51.1657C20.1773 53.4388 20.8051 56.4046 22.9266 56.4046C25.0482 56.4046 25.676 53.4604 25.676 51.1657C25.676 49.0441 25.1564 46.035 22.9266 46.035C20.6968 46.035 20.1773 49.0441 20.1773 51.1657Z" fill="#005097"/>
<path d="M50.1377 46.9875C49.012 46.035 47.843 45.4505 46.0678 45.6886C43.1453 46.0783 41.6299 48.6112 41.6299 51.209C41.6299 53.915 43.838 56.318 46.0678 56.5129C47.6915 56.7293 48.8605 56.4912 50.1377 55.6253V60.8642C48.8605 61.4271 46.2843 61.6652 44.8555 61.6652C38.6424 61.6652 33.7715 57.2273 33.7715 51.5121C33.7715 45.667 38.664 40.8394 45.0504 40.8394C46.8472 40.8394 48.4492 40.8394 50.1377 41.3806V46.9875Z" fill="#005097"/>
<path d="M50.4844 41.2506H58.1912V49.2822C58.3428 49.0008 62.4776 41.229 62.4776 41.229H71.0721L65.0105 50.8409L71.2669 61.3188H62.3261L58.1912 53.1357V61.3405H50.4844V41.2506Z" fill="#005097"/>
<path d="M71.1797 41.2507H87.5676V46.533H83.2162L83.1946 61.3405H75.4661V46.533H71.1797V41.2507Z" fill="#005097"/>
<path d="M108.936 41.3374H117.335L121.903 51.2957L121.816 41.3374H129.523V61.4272H121.037L116.816 51.7936V61.4489L108.936 61.4272V41.3374Z" fill="#005097"/>
<path d="M108.697 51.3173C108.697 57.7253 103.631 61.6653 97.5915 61.6653C91.5516 61.6653 86.8105 57.7253 86.8105 51.3173C86.8105 45.0392 91.7464 40.8394 97.7647 40.8394C103.761 40.8178 108.697 45.0392 108.697 51.3173ZM94.9287 51.1441C94.9287 53.4172 95.5782 56.2748 97.743 56.2748C99.9295 56.2748 100.557 53.4172 100.557 51.1441C100.557 49.0226 100.016 45.9485 97.743 45.9485C95.4699 45.9701 94.9287 49.0226 94.9287 51.1441Z" fill="#005097"/>
<path d="M64.8594 37.5706C64.8594 37.5706 76.831 31.7904 76.831 19.1694C76.831 6.67818 64.8594 0.854736 64.8594 0.854736" stroke="#918280" stroke-width="1.51228"/>
<path d="M64.6415 0.854736C64.6415 0.854736 52.6699 6.82972 52.6699 19.256C52.6699 31.6172 64.6415 37.5706 64.6415 37.5706" stroke="#918280" stroke-width="1.51228"/>
<path d="M75.9647 17.1127C76.2245 19.1043 75.9864 21.0094 75.9864 21.0094H54.5976C51.805 21.0094 51.9565 18.1518 51.9565 18.1518C52.9524 4.72975 64.6642 0.118621 64.6642 0.118621C65.5085 0.0753243 67.4352 0.183567 67.4352 0.183567C67.4352 0.183567 57.3687 6.33174 56.2862 17.1127H75.9647Z" fill="#005097"/>
</svg>
