<svg width="175" height="30" viewBox="0 0 175 30" fill="none" xmlns="http://www.w3.org/2000/svg">
<path d="M63.2911 20.8833H59.937L59.0036 18.4333H53.5786L52.6161 20.8833H49.3203L54.862 8.5166H57.7203L63.2911 20.8833ZM58.537 17.2083L56.262 11.3458H56.1745L54.0453 17.2083H58.537Z" fill="#002A4E"/>
<path d="M78.1667 20.6792C77.1167 20.9125 76.0958 21.0292 75.0458 21.0292C72.975 21.0292 71.1667 20.65 69.65 19.8625C68.1333 19.1042 67.375 17.4708 67.375 15.05C67.375 12.3958 68.1333 10.6167 69.65 9.68334C71.1667 8.75 73.0042 8.3125 75.1625 8.3125C75.9792 8.3125 76.9708 8.37084 78.1667 8.51667V10.0333C77.3792 9.8875 76.65 9.8 75.9792 9.8C74.6375 9.8 73.4708 10.1208 72.5375 10.7917C71.575 11.4625 71.1083 12.7458 71.1083 14.6708C71.1083 15.8375 71.225 16.7125 71.4292 17.3833C71.6333 18.025 72.1292 18.55 72.8875 18.9292C73.6458 19.3083 74.5792 19.5125 75.7458 19.5125C76.4167 19.5125 77.2625 19.425 78.225 19.2208V20.6792H78.1667Z" fill="#002A4E"/>
<path d="M96.0467 20.8833H92.4301L88.4051 15.0791H88.1134V20.8833H84.6426V8.5166H89.4551C93.3634 8.5166 95.3468 9.5666 95.3468 11.6958C95.3468 12.6583 95.0551 13.3874 94.4718 13.8541C93.8884 14.3499 92.9551 14.6999 91.6426 14.9624L96.0467 20.8833ZM88.0843 13.9416C89.4259 13.9416 90.3884 13.7666 91.0009 13.4749C91.5843 13.1833 91.9051 12.6583 91.9051 11.8708C91.9051 11.1416 91.6426 10.5874 91.0884 10.2666C90.5342 9.94577 89.6009 9.79993 88.2884 9.79993H88.0843V13.9416Z" fill="#002A4E"/>
<path d="M102.492 8.5166H105.963V20.8833H102.492V8.5166Z" fill="#002A4E"/>
<path d="M121.975 10.121C120.837 9.82929 119.817 9.68345 118.912 9.68345C118.008 9.68345 117.25 9.82929 116.608 10.1501C115.967 10.471 115.646 10.821 115.646 11.2876C115.646 11.6085 115.85 11.9293 116.229 12.2793C116.608 12.6293 117.483 13.1834 118.796 13.9709C120.108 14.7584 121.158 15.4293 121.858 15.9835C122.558 16.5668 122.908 17.2084 122.908 17.9376C122.908 18.8418 122.325 19.6001 121.188 20.1835C120.021 20.7668 118.533 21.0293 116.667 21.0293C115.646 21.0293 114.392 20.8835 112.904 20.5918V19.1335C112.933 19.1335 112.992 19.1626 113.021 19.1626C113.225 19.2501 113.633 19.3376 114.304 19.4835C114.975 19.6293 115.587 19.6876 116.2 19.6876C117.221 19.6876 118.038 19.5418 118.708 19.1918C119.379 18.871 119.7 18.4626 119.7 17.9376C119.7 17.5876 119.525 17.2668 119.204 16.946C118.883 16.6543 118.271 16.2459 117.396 15.7209L115.063 14.3501C114.158 13.8251 113.487 13.3293 113.079 12.8918C112.642 12.4543 112.438 11.9293 112.438 11.3168C112.438 10.4126 112.992 9.68345 114.071 9.12929C115.179 8.57512 116.579 8.28345 118.329 8.28345C119.554 8.28345 120.779 8.42928 122.004 8.72095L121.975 10.121Z" fill="#002A4E"/>
<path d="M141.516 17.9667C141.516 20.0376 139.591 21.0584 135.741 21.0584C131.512 21.0584 129.412 20.0376 129.412 17.9667V8.5459H132.854V17.2959C132.854 18.2292 133.029 18.8709 133.35 19.2501C133.67 19.6001 134.429 19.8042 135.537 19.8042C136.675 19.8042 137.375 19.6001 137.666 19.2501C137.958 18.8709 138.104 18.2001 138.104 17.2376V8.57506H141.545L141.516 17.9667Z" fill="#002A4E"/>
<path d="M159.396 20.8833H155.78L151.755 15.0791H151.463V20.8833H147.992V8.5166H152.805C156.713 8.5166 158.667 9.5666 158.667 11.6958C158.667 12.6583 158.376 13.3874 157.792 13.8541C157.209 14.3499 156.276 14.6999 154.963 14.9624L159.396 20.8833ZM151.463 13.9416C152.805 13.9416 153.767 13.7666 154.38 13.4749C154.963 13.1833 155.284 12.6583 155.284 11.8708C155.284 11.1416 155.021 10.5874 154.467 10.2666C153.913 9.94577 152.98 9.79993 151.667 9.79993H151.463V13.9416Z" fill="#002A4E"/>
<path d="M175 20.8833H165.842V8.5166H175V9.9166H169.283V13.8249H174.563V15.2249H169.283V19.4833H175V20.8833Z" fill="#002A4E"/>
<path d="M26.0158 4.31667C25.1991 6.27084 23.5074 7.84584 21.4366 8.63334C19.3658 7.84584 17.7033 6.27084 16.8574 4.31667C17.6741 2.36251 19.3658 0.7875 21.4366 0C23.5074 0.816667 25.1699 2.36251 26.0158 4.31667Z" fill="#39607A"/>
<path d="M17.9967 11.0542C17.3259 12.6292 15.9842 13.8834 14.3509 14.4959C12.7176 13.8834 11.3759 12.6 10.7051 11.0542C11.3759 9.47921 12.7176 8.22505 14.3509 7.61255C15.9842 8.22505 17.3259 9.47921 17.9967 11.0542Z" fill="#39607A"/>
<path d="M32.1999 11.0542C31.529 12.6292 30.2165 13.8834 28.554 14.4959C26.9207 13.8834 25.579 12.6 24.9082 11.0542C25.579 9.47921 26.9207 8.22505 28.554 7.61255C30.1874 8.22505 31.529 9.47921 32.1999 11.0542Z" fill="#39607A"/>
<path d="M24.5581 15.604C24.0039 16.9457 22.8372 18.0249 21.4372 18.5499C20.0372 18.0249 18.8997 16.9457 18.3164 15.604C18.8706 14.2624 20.0372 13.1832 21.4372 12.6582C22.8664 13.2124 24.0039 14.2915 24.5581 15.604Z" fill="#39607A"/>
<path d="M10.937 17.5874C10.3828 18.9291 9.21615 20.0083 7.81615 20.5333C6.41615 20.0083 5.24948 18.9291 4.69531 17.5874C5.24948 16.2458 6.41615 15.1666 7.81615 14.6416C9.21615 15.1958 10.3828 16.2458 10.937 17.5874Z" fill="#39607A"/>
<path d="M38.1792 17.5874C37.625 18.9291 36.4583 20.0083 35.0583 20.5333C33.6583 20.0083 32.4917 18.9291 31.9375 17.5874C32.4917 16.2458 33.6583 15.1666 35.0583 14.6416C36.4875 15.1958 37.625 16.2458 38.1792 17.5874Z" fill="#39607A"/>
<path d="M17.9665 20.0374C17.4707 21.1749 16.5082 22.0791 15.3124 22.5457C14.1165 22.0791 13.1249 21.1749 12.6582 20.0374C13.154 18.8999 14.1165 17.9666 15.3124 17.5291C16.5082 17.9957 17.4707 18.9291 17.9665 20.0374Z" fill="#39607A"/>
<path d="M30.2458 20.0374C29.75 21.1749 28.7875 22.0791 27.5917 22.5457C26.3958 22.0791 25.4042 21.1749 24.9375 20.0374C25.4333 18.8999 26.3958 17.9666 27.5917 17.5291C28.7875 17.9957 29.75 18.9291 30.2458 20.0374Z" fill="#39607A"/>
<path d="M23.5091 23.8584C23.1299 24.7334 22.3716 25.4333 21.4674 25.7833C20.5341 25.4333 19.7758 24.7334 19.4258 23.8584C19.8049 22.9834 20.5633 22.2833 21.4674 21.9333C22.3716 22.2542 23.1299 22.9834 23.5091 23.8584Z" fill="#39607A"/>
<path d="M12.5997 24.4708C12.1622 25.4916 11.2872 26.3083 10.2081 26.7458C9.12891 26.3375 8.25391 25.4916 7.81641 24.4708C8.25391 23.45 9.12891 22.6333 10.2081 22.1958C11.2872 22.6333 12.1622 23.45 12.5997 24.4708Z" fill="#39607A"/>
<path d="M35.0587 24.4708C34.6212 25.4916 33.7462 26.3083 32.6671 26.7458C31.5879 26.3375 30.7129 25.4916 30.2754 24.4708C30.7129 23.45 31.5879 22.6333 32.6671 22.1958C33.7462 22.6333 34.6212 23.45 35.0587 24.4708Z" fill="#39607A"/>
<path d="M5.075 23.5667C4.60833 24.6459 3.675 25.5209 2.5375 25.9584C1.4 25.5209 0.466667 24.6459 0 23.5667C0.466667 22.4876 1.4 21.6125 2.5375 21.175C3.675 21.6417 4.60833 22.5167 5.075 23.5667Z" fill="#39607A"/>
<path d="M42.8465 23.5667C42.3798 24.6459 41.4465 25.5209 40.309 25.9584C39.1715 25.5209 38.2382 24.6459 37.7715 23.5667C38.2382 22.4876 39.1715 21.6125 40.309 21.175C41.4757 21.6417 42.3798 22.5167 42.8465 23.5667Z" fill="#39607A"/>
<path d="M18.7254 27.5333C18.4337 28.2333 17.8212 28.8166 17.0629 29.1083C16.3046 28.8166 15.6921 28.2624 15.4004 27.5333C15.6921 26.8333 16.3046 26.2499 17.0629 25.9583C17.7921 26.2499 18.4046 26.8333 18.7254 27.5333Z" fill="#39607A"/>
<path d="M27.4754 27.5333C27.1837 28.2333 26.5712 28.8166 25.8129 29.1083C25.0546 28.8166 24.4421 28.2624 24.1504 27.5333C24.4421 26.8333 25.0546 26.2499 25.8129 25.9583C26.5712 26.2499 27.1837 26.8333 27.4754 27.5333Z" fill="#39607A"/>
</svg>
