<svg width="105" height="47" viewBox="0 0 105 47" fill="none" xmlns="http://www.w3.org/2000/svg">
<path d="M91.7538 42.9049V41.8059H92.572C93.1164 41.8059 93.2638 41.9715 93.2638 42.2928C93.2638 42.6218 93.1164 42.887 92.4752 42.9049H91.7538ZM92.3279 43.5755C92.563 43.5959 92.7893 43.5756 92.9599 43.7514C93.1552 43.9555 93.1552 44.2971 93.2043 44.6668C93.2353 44.9193 93.3038 45.1921 93.353 45.4344H94.2216C94.073 45.0468 94.0239 44.5981 93.9645 44.1901C93.8947 43.7233 93.8273 43.4608 93.225 43.3434V43.323C93.808 43.2058 94.1131 42.8182 94.1131 42.3209C94.1131 41.3494 93.2831 41.1352 92.4853 41.1352H91.0736V45.4344H91.7538V43.5755H92.3279ZM92.5438 47C94.5979 47 96.2436 45.3681 96.2436 43.3332C96.2436 41.3188 94.5979 39.6843 92.5438 39.6843C90.4816 39.6843 88.8242 41.3188 88.8242 43.3332C88.8242 45.3681 90.4816 47 92.5438 47ZM92.5438 46.36C90.8474 46.36 89.4772 45.006 89.4772 43.3332C89.4772 41.6809 90.8474 40.3269 92.5438 40.3269C94.2322 40.3269 95.5946 41.6809 95.5946 43.3332C95.5946 45.006 94.2322 46.36 92.5438 46.36Z" fill="#EE2722"/>
<path d="M86.2713 10.0741H80.3129V15.944H86.2713C87.6856 15.944 88.8233 17.0799 88.8233 18.4664C88.8233 19.8626 87.6856 20.9845 86.2713 20.9845H80.3129V26.8595H86.2713C90.9733 26.8595 94.782 23.0997 94.782 18.4664C94.782 13.832 90.9733 10.0741 86.2713 10.0741ZM52.315 41.1352C59.4473 41.1352 65.5943 37.0158 68.4659 31.0541H76.061V41.1352H80.3129V31.0541H86.2713C93.3263 31.0541 99.0416 25.4176 99.0416 18.4664C99.0416 11.5136 93.3263 5.875 86.2713 5.875H76.061V20.9845H70.0014C68.7657 12.4455 61.3179 5.875 52.315 5.875H31.3612L10.5182 41.1352H15.4903L21.4475 31.0541H42.8671V41.1352H52.315ZM105 18.4664C105 28.6636 96.6137 36.9291 86.2713 36.9291V47H70.1049V39.1437C65.7314 43.9656 59.3877 47 52.315 47H36.9087V36.9291H24.8676L18.9104 47H0L27.7965 0H52.315C59.3877 0 65.7314 3.04274 70.1049 7.86521V0H86.2713C96.6137 0 105 8.272 105 18.4664ZM36.9087 10.0741V20.9845H27.4047L23.9335 26.8595H42.8671V10.0741H36.9087ZM65.9358 23.5C65.9358 30.9176 59.8351 36.9291 52.315 36.9291H47.1216V31.0541H52.315C56.5488 31.0541 59.9797 27.6767 59.9797 23.5C59.9797 19.3321 56.5488 15.944 52.315 15.944H47.1216V10.0741H52.315C59.8351 10.0741 65.9358 16.0855 65.9358 23.5Z" fill="#EE2722"/>
<path d="M86.2713 10.0741H80.3129V15.944H86.2713C87.6856 15.944 88.8233 17.0799 88.8233 18.4664C88.8233 19.8626 87.6856 20.9845 86.2713 20.9845H80.3129V26.8595H86.2713C90.9733 26.8595 94.782 23.0997 94.782 18.4664C94.782 13.832 90.9733 10.0741 86.2713 10.0741ZM52.315 41.1352C59.4473 41.1352 65.5943 37.0158 68.4659 31.0541H76.061V41.1352H80.3129V31.0541H86.2713C93.3263 31.0541 99.0416 25.4176 99.0416 18.4664C99.0416 11.5136 93.3263 5.875 86.2713 5.875H76.061V20.9845H70.0014C68.7657 12.4455 61.3179 5.875 52.315 5.875H31.3612L10.5182 41.1352H15.4903L21.4475 31.0541H42.8671V41.1352H52.315ZM105 18.4664C105 28.6636 96.6137 36.9291 86.2713 36.9291V47H70.1049V39.1437C65.7314 43.9656 59.3877 47 52.315 47H36.9087V36.9291H24.8676L18.9104 47H0L27.7965 0H52.315C59.3877 0 65.7314 3.04274 70.1049 7.86521V0H86.2713C96.6137 0 105 8.272 105 18.4664ZM36.9087 10.0741V20.9845H27.4047L23.9335 26.8595H42.8671V10.0741H36.9087ZM65.9358 23.5C65.9358 30.9176 59.8351 36.9291 52.315 36.9291H47.1216V31.0541H52.315C56.5488 31.0541 59.9797 27.6767 59.9797 23.5C59.9797 19.3321 56.5488 15.944 52.315 15.944H47.1216V10.0741H52.315C59.8351 10.0741 65.9358 16.0855 65.9358 23.5Z" fill="#EE2722"/>
<path d="M86.2713 10.0741H80.3129V15.944H86.2713C87.6856 15.944 88.8233 17.0799 88.8233 18.4664C88.8233 19.8626 87.6856 20.9845 86.2713 20.9845H80.3129V26.8595H86.2713C90.9733 26.8595 94.782 23.0997 94.782 18.4664C94.782 13.832 90.9733 10.0741 86.2713 10.0741ZM52.315 41.1352C59.4473 41.1352 65.5943 37.0158 68.4659 31.0541H76.061V41.1352H80.3129V31.0541H86.2713C93.3263 31.0541 99.0416 25.4176 99.0416 18.4664C99.0416 11.5136 93.3263 5.875 86.2713 5.875H76.061V20.9845H70.0014C68.7657 12.4455 61.3179 5.875 52.315 5.875H31.3612L10.5182 41.1352H15.4903L21.4475 31.0541H42.8671V41.1352H52.315ZM105 18.4664C105 28.6636 96.6137 36.9291 86.2713 36.9291V47H70.1049V39.1437C65.7314 43.9656 59.3877 47 52.315 47H36.9087V36.9291H24.8676L18.9104 47H0L27.7965 0H52.315C59.3877 0 65.7314 3.04274 70.1049 7.86521V0H86.2713C96.6137 0 105 8.272 105 18.4664ZM36.9087 10.0741V20.9845H27.4047L23.9335 26.8595H42.8671V10.0741H36.9087ZM65.9358 23.5C65.9358 30.9176 59.8351 36.9291 52.315 36.9291H47.1216V31.0541H52.315C56.5488 31.0541 59.9797 27.6767 59.9797 23.5C59.9797 19.3321 56.5488 15.944 52.315 15.944H47.1216V10.0741H52.315C59.8351 10.0741 65.9358 16.0855 65.9358 23.5Z" fill="#EE2722"/>
</svg>
