<svg width="103" height="58" viewBox="0 0 103 58" fill="none" xmlns="http://www.w3.org/2000/svg">
<path d="M30.0442 6.16904C30.0442 6.16904 51.698 0.71843 59.5766 0.652362C68.0664 0.586294 71.4193 1.84159 73.038 5.57443C74.3098 8.51445 71.5515 11.1407 71.5515 11.1407C71.5515 11.1407 76.5231 12.3629 79.2319 14.4771C81.1478 15.9636 81.2635 17.7475 81.2635 17.7475C81.2635 17.7475 82.6674 18.9202 82.8656 19.3001C82.8821 19.3331 80.1073 18.8871 79.0997 18.7054C64.35 16.1949 42.0191 16.2114 26.3775 32.8605C25.3864 33.9176 26.2949 31.9025 30.5893 26.3033C42.0356 11.4049 60.6172 10.7277 60.6172 10.7277C60.6172 10.7277 59.8409 7.90332 51.5163 6.84624C46.3961 6.21859 30.0442 6.16904 30.0442 6.16904Z" fill="#0070B8"/>
<path d="M0.693968 56.3642H0.0498047V52.1523H1.00779C1.45375 52.1523 1.80061 52.1854 2.04836 52.3836C2.29612 52.5818 2.46129 52.9121 2.46129 53.3085C2.46129 53.9857 2.13095 54.3656 1.48678 54.4482L2.94028 56.3642H2.16398L0.760036 54.4812H0.67745L0.693968 56.3642ZM0.859138 53.9527C1.45375 53.9527 1.76757 53.8866 1.76757 53.3746C1.76757 52.8461 1.48678 52.747 0.859138 52.747H0.727002V53.9527H0.859138Z" fill="#808184"/>
<path d="M4.32715 52.1523H6.67256V52.7304H5.00435V53.7875H6.67256V54.3987H5.00435V55.753H6.67256V56.3642H4.32715" fill="#808184"/>
<path d="M9.94293 56.3642H9.24922V52.7304H8.14258V52.1523H11.0496V52.7304H9.94293" fill="#808184"/>
<path d="M13.4116 52.1523H12.7344V56.3642H13.4116V52.1523Z" fill="#808184"/>
<path d="M16.2526 56.3642H15.6084V52.1523H16.5664C17.0123 52.1523 17.3592 52.1854 17.6235 52.3836C17.8712 52.5818 18.0364 52.9121 18.0364 53.3085C18.0364 53.9857 17.7061 54.3656 17.0784 54.4482L18.5319 56.3642H17.7226L16.3186 54.4812H16.236L16.2526 56.3642ZM16.4177 53.9527C17.0123 53.9527 17.3262 53.8866 17.3262 53.3746C17.3262 52.8461 17.0454 52.747 16.4177 52.747H16.2856V53.9527H16.4177Z" fill="#808184"/>
<path d="M19.9355 52.1523H22.281V52.7304H20.6127V53.7875H22.281V54.3987H20.6127V55.753H22.281V56.3642H19.9355" fill="#808184"/>
<path d="M27.633 53.7051C27.5999 53.9033 27.5339 54.1015 27.4348 54.2832L26.3281 56.5295L25.2215 54.2336C25.1389 54.0684 25.0728 53.8868 25.0068 53.7051C25.0068 53.9033 24.9737 54.1015 24.9242 54.2832L24.4782 56.3643H23.8506L24.8416 51.9873L26.0804 54.63C26.1134 54.7126 26.196 54.8943 26.3116 55.2081C26.3942 54.9769 26.4933 54.7787 26.5594 54.63L27.7651 51.9873L28.7892 56.3643H28.145L27.6825 54.2832C27.699 54.2171 27.6825 54.0189 27.633 53.7051Z" fill="#808184"/>
<path d="M30.3252 52.1523H32.6871V52.7304H31.0189V53.7875H32.6871V54.3987H31.0189V55.753H32.6871V56.3642H30.3252" fill="#808184"/>
<path d="M34.6689 51.9873L37.3447 54.564C37.5099 54.7291 37.6585 54.8943 37.8072 55.076V52.1525H38.4348V56.5295L35.7095 53.9033C35.5609 53.7546 35.4287 53.606 35.2966 53.4408V56.3643H34.6689" fill="#808184"/>
<path d="M41.8541 56.3642H41.1603V52.7304H40.0537V52.1523H42.9607V52.7304H41.8541" fill="#808184"/>
<path d="M46.6768 51.3267H46.3135V57.2232H46.6768V51.3267Z" fill="#808184"/>
<path d="M50.6581 52.1523H51.7152C52.1612 52.1523 52.4915 52.1689 52.7558 52.3671C53.0201 52.5487 53.1687 52.8791 53.1687 53.259C53.1687 53.7049 52.954 54.0188 52.5576 54.1344C53.0531 54.217 53.3504 54.6134 53.3504 55.175C53.3504 55.5218 53.2183 55.8356 53.0035 56.0504C52.7062 56.3477 52.3098 56.3642 51.7152 56.3642H50.6416L50.6581 52.1523ZM51.5996 53.9362C52.2107 53.9362 52.4915 53.7875 52.4915 53.3581C52.4915 52.8295 52.2107 52.7304 51.5996 52.7304H51.3353V53.9362H51.5996ZM51.5666 55.8026C51.9464 55.8026 52.2272 55.7861 52.3924 55.6705C52.5576 55.5548 52.6567 55.3566 52.6567 55.1254C52.6567 54.8611 52.5411 54.6464 52.3263 54.5473C52.1612 54.4647 51.9795 54.4482 51.7648 54.4482H51.3188V55.7861H51.5666V55.8026Z" fill="#808184"/>
<path d="M55.1504 52.1523H57.4958V52.7304H55.8276V53.7875H57.4958V54.3987H55.8276V55.753H57.4958V56.3642H55.1504" fill="#808184"/>
<path d="M59.3955 51.9873L62.0713 54.564C62.2364 54.7291 62.3851 54.8943 62.5337 55.076V52.1525H63.1614V56.5295L60.4361 53.9033C60.2874 53.7546 60.1388 53.606 60.0232 53.4408V56.3643H59.3955" fill="#808184"/>
<path d="M65.2422 52.1523H67.6041V52.7304H65.9359V53.7875H67.6041V54.3987H65.9359V55.753H67.6041V56.3642H65.2422" fill="#808184"/>
<path d="M69.6191 52.1523H71.9646V52.7304H70.2963V53.7875H71.9646V54.3821H70.2963V56.3642H69.6191" fill="#808184"/>
<path d="M74.393 52.1523H73.7158V56.3642H74.393V52.1523Z" fill="#808184"/>
<path d="M77.7457 56.3642H77.0685V52.7304H75.9453V52.1523H78.8688V52.7304H77.7457" fill="#808184"/>
<path d="M80.5373 55.274C80.6364 55.6539 80.9172 55.8521 81.3467 55.8521C81.7596 55.8521 82.0073 55.6044 82.0073 55.2245C82.0073 54.8116 81.6935 54.7125 81.2641 54.4977C80.5208 54.1344 80.1079 53.8536 80.1079 53.2094C80.1079 52.5322 80.6034 52.0532 81.3797 52.0532C82.0073 52.0532 82.4368 52.301 82.5854 52.7469L82.0569 53.0277C81.8917 52.7635 81.6935 52.6478 81.4293 52.6478C81.0659 52.6478 80.8346 52.8626 80.8346 53.1764C80.8346 53.5893 81.165 53.7049 81.644 53.9196C82.3872 54.2665 82.7341 54.5638 82.7341 55.1749C82.7341 55.9512 82.2056 56.4798 81.3467 56.4798C80.6199 56.4798 80.1574 56.1329 80.0088 55.5218" fill="#808184"/>
<path d="M86.4825 51.3267H86.1191V57.2232H86.4825V51.3267Z" fill="#808184"/>
<path d="M90.5625 52.1523H91.2397V55.753H92.7758V56.3642H90.5625" fill="#808184"/>
<path d="M94.9897 52.1523H94.3125V56.3642H94.9897V52.1523Z" fill="#808184"/>
<path d="M96.9717 52.1523H99.3171V52.7304H97.6489V53.7875H99.3171V54.3821H97.6489V56.3642H96.9717" fill="#808184"/>
<path d="M100.654 52.1523H103V52.7304H101.331V53.7875H103V54.3987H101.331V55.753H103V56.3642H100.654" fill="#808184"/>
<path d="M1.76732 41.8951C2.09766 43.1173 3.00609 43.7615 4.39352 43.7615C5.7314 43.7615 6.54073 42.9521 6.54073 41.7464C6.54073 40.4085 5.53319 40.0947 4.11273 39.401C1.71777 38.2118 0.379891 37.3033 0.379891 35.2387C0.379891 33.0419 1.99856 31.5059 4.47611 31.5059C6.49118 31.5059 7.89512 32.3317 8.40715 33.7522L6.67287 34.6441C6.14432 33.8017 5.51668 33.4053 4.65779 33.4053C3.45205 33.4053 2.70879 34.099 2.70879 35.1231C2.70879 36.4444 3.78239 36.8408 5.30196 37.5511C7.71344 38.6577 8.83659 39.6322 8.83659 41.5977C8.83659 44.1414 7.13534 45.8096 4.31094 45.8096C1.98204 45.8096 0.462476 44.7029 0 42.7209" fill="black"/>
<path d="M17.3261 39.2028L12.7344 31.8032H15.0633L17.9207 36.4445C17.9868 36.5436 18.185 36.907 18.4988 37.5346C18.664 37.0887 18.8622 36.7088 19.0769 36.3949L22.0169 31.8197H24.2302L19.5394 39.2194V45.4628H17.3426" fill="black"/>
<path d="M39.5255 36.841C39.4099 37.4852 39.1951 38.0963 38.8978 38.724L35.3302 45.9915L31.7625 38.5753C31.4982 38.0303 31.267 37.4522 31.1018 36.841C31.0853 37.4852 30.9862 38.1129 30.8541 38.724L29.384 45.4299H27.3359L30.5568 31.2583L34.5869 39.8141C34.7025 40.0619 34.9503 40.673 35.3302 41.664C35.5944 40.9042 35.9083 40.2931 36.1065 39.8141L40.0375 31.2583L43.3409 45.4299H41.2763L39.7732 38.7075C39.7237 38.4597 39.6576 37.8486 39.5255 36.841Z" fill="black"/>
<path d="M49.6006 31.8032H57.1984V33.6862H51.8139V37.1052H57.1984V39.0542H51.8139V43.4477H57.1984V45.4463H49.6006" fill="black"/>
<path d="M68.81 45.4463H66.5967V33.6862H62.9795V31.8032H72.4272V33.6862H68.81" fill="black"/>
<path d="M79.5294 45.4463H77.4482V31.8032H80.5369C82.0069 31.8032 83.0971 31.9188 83.9229 32.563C84.7488 33.2072 85.2443 34.2808 85.2443 35.5526C85.2443 37.7493 84.1707 38.9881 82.1226 39.2359L86.8134 45.4297H84.3193L79.7771 39.335H79.5294V45.4463ZM80.0579 37.6172C82.0069 37.6172 82.9814 37.386 82.9814 35.7508C82.9814 34.0661 82.04 33.7027 80.0579 33.7027H79.6615V37.6172H80.0579Z" fill="black"/>
<path d="M99.1183 41.9283H93.7173L92.1316 45.4299H89.8027L96.393 31.2583L102.983 45.4299H100.638L99.1183 41.9283ZM98.3255 40.0784L96.9381 36.9732C96.7894 36.6098 96.6077 36.1143 96.426 35.4206C96.2609 36.1143 96.0792 36.6098 95.9305 36.9732L94.5431 40.0784H98.3255Z" fill="black"/>
<path d="M102.554 31.9518C102.835 32.2326 103 32.629 103 33.0419C103 33.4549 102.851 33.8348 102.554 34.1155C102.257 34.4128 101.86 34.578 101.464 34.578C101.051 34.578 100.671 34.4128 100.374 34.1155C100.076 33.8182 99.9277 33.4383 99.9277 33.0419C99.9277 32.629 100.093 32.2491 100.39 31.9518C100.671 31.671 101.051 31.5059 101.464 31.5059C101.877 31.5059 102.257 31.6545 102.554 31.9518ZM102.438 32.084C102.174 31.8197 101.844 31.6875 101.464 31.6875C101.1 31.6875 100.77 31.8197 100.522 32.0674C100.258 32.3317 100.109 32.6786 100.109 33.0419C100.109 33.3888 100.242 33.7357 100.506 33.9999C100.754 34.2642 101.1 34.3963 101.447 34.3963C101.811 34.3963 102.141 34.2642 102.405 33.9999C102.653 33.7522 102.802 33.4218 102.802 33.0585C102.818 32.6786 102.686 32.3317 102.438 32.084ZM102.24 32.6125C102.24 32.8603 102.091 33.0419 101.827 33.075L102.224 33.8843H101.893L101.53 33.1245H101.15V33.8843H100.853V32.1335H101.497C101.992 32.1335 102.24 32.2822 102.24 32.6125ZM101.15 32.3317V32.9428H101.464C101.794 32.9428 101.943 32.8768 101.943 32.6455C101.943 32.4143 101.794 32.3317 101.464 32.3317H101.15Z" fill="black"/>
</svg>
