<svg width="220" height="34" viewBox="0 0 220 34" fill="none" xmlns="http://www.w3.org/2000/svg">
<path d="M206.819 4.6867C206.819 4.6867 213.63 4.59136 216.817 2.43911C216.817 2.43911 218.179 4.12822 218.179 9.82213C218.179 15.5161 215.85 26.1683 206.873 30.7725C206.873 30.7725 196.493 26.9311 195.649 9.5497C195.491 7.05665 196.009 4.56714 197.147 2.34375C200.184 3.71595 203.45 4.51048 206.778 4.6867" fill="#0079C1"/>
<path d="M182 30.8131C182 30.3201 182.146 29.8381 182.42 29.4282C182.694 29.0183 183.083 28.6987 183.539 28.5101C183.994 28.3214 184.496 28.272 184.979 28.3682C185.463 28.4644 185.907 28.7018 186.255 29.0504C186.604 29.3991 186.841 29.8432 186.938 30.3268C187.034 30.8103 186.985 31.3116 186.796 31.7671C186.607 32.2226 186.288 32.6119 185.878 32.8858C185.468 33.1597 184.986 33.3059 184.493 33.3059C183.833 33.3023 183.201 33.0386 182.734 32.5718C182.267 32.1051 182.004 31.4731 182 30.8131ZM186.591 30.8131C186.591 30.3982 186.468 29.9926 186.237 29.6477C186.007 29.3027 185.679 29.0338 185.296 28.875C184.912 28.7163 184.49 28.6747 184.084 28.7557C183.677 28.8366 183.303 29.0364 183.009 29.3298C182.716 29.6232 182.516 29.9969 182.435 30.4039C182.354 30.8108 182.396 31.2326 182.555 31.6159C182.713 31.9992 182.982 32.3268 183.327 32.5573C183.672 32.7878 184.078 32.9109 184.493 32.9109C184.774 32.9263 185.054 32.8829 185.317 32.7833C185.58 32.6837 185.82 32.5302 186.02 32.3326C186.22 32.135 186.377 31.8978 186.48 31.6361C186.583 31.3744 186.63 31.0941 186.618 30.8131H186.591ZM183.962 32.1753H183.594V29.3283H184.82C185.555 29.3283 185.814 29.6144 185.814 30.1184C185.814 30.6224 185.419 30.8676 184.929 30.9085L185.773 32.1753H185.365L184.561 30.9085H183.893L183.962 32.1753ZM184.452 30.5815C184.861 30.5815 185.405 30.6496 185.405 30.1184C185.405 29.5871 185.079 29.6689 184.738 29.6689H183.893V30.5815H184.452Z" fill="white"/>
<path d="M173.16 26.3175C175.075 26.3148 176.947 25.7441 178.538 24.6777C180.129 23.6112 181.369 22.0969 182.099 20.3261C182.83 18.5554 183.019 16.6077 182.642 14.7296C182.266 12.8514 181.341 11.1269 179.985 9.77435C178.628 8.42177 176.901 7.50178 175.022 7.13072C173.143 6.75966 171.196 6.9542 169.427 7.68973C167.658 8.42527 166.148 9.66874 165.086 11.2629C164.024 12.8571 163.458 14.7305 163.461 16.646C163.459 17.9184 163.708 19.1786 164.195 20.3545C164.681 21.5303 165.394 22.5987 166.294 23.4984C167.193 24.3981 168.262 25.1114 169.438 25.5975C170.613 26.0836 171.874 26.3329 173.146 26.3311" fill="#0079C1"/>
<path d="M174.848 11.7156C174.848 10.98 175.801 10.871 175.338 9.26367C176.765 9.72077 178.035 10.5705 179.002 11.7156H174.848Z" fill="white"/>
<path d="M171.254 11.7156H167.086C167.988 10.4944 169.289 9.62711 170.764 9.26367C170.301 10.871 171.254 10.98 171.254 11.7156Z" fill="white"/>
<path d="M180.692 14.9159C180.937 16.1072 180.91 17.3384 180.612 18.5177C180.315 19.697 179.756 20.794 178.975 21.7268L175.883 15.8831C175.57 15.3109 175.883 15.2701 176.224 15.2292C176.564 15.1884 180.692 14.8887 180.692 14.8887" fill="white"/>
<path d="M165.411 14.916C165.411 14.916 169.607 15.2566 169.879 15.2566C170.151 15.2566 170.533 15.3383 170.22 15.9104L167.127 21.7542C166.344 20.8229 165.783 19.726 165.486 18.5461C165.189 17.3663 165.163 16.1344 165.411 14.9432" fill="white"/>
<path d="M176.294 23.7425C175.273 24.2006 174.166 24.4374 173.046 24.4374C171.926 24.4374 170.819 24.2006 169.797 23.7425C170.789 22.1135 171.876 20.5443 173.052 19.043C174.225 20.5444 175.307 22.1137 176.294 23.7425Z" fill="white"/>
<path d="M189.535 9.41357H180.368V0.246094H165.793V9.41357H156.652V24.0298H165.82V33.1973H180.395V24.0298H189.563L189.535 9.41357ZM166.732 10.299C168.396 8.62933 170.647 7.67619 173.003 7.6431C175.36 7.61002 177.636 8.4996 179.346 10.1219C180.174 10.8975 180.849 11.8216 181.335 12.8463H175.11C174.864 12.8623 174.616 12.8296 174.383 12.7502C174.149 12.6707 173.933 12.546 173.748 12.3831C173.38 12.0153 173.353 11.4568 173.857 10.8575C174.037 10.6969 174.164 10.4849 174.221 10.25C174.278 10.0151 174.261 9.76841 174.174 9.54312C174.086 9.31783 173.932 9.12466 173.732 8.98951C173.532 8.85436 173.295 8.78369 173.053 8.78698C172.127 8.78698 171.364 9.78135 172.249 10.8575C172.464 11.0465 172.596 11.3125 172.616 11.598C172.637 11.8834 172.544 12.1655 172.358 12.3831C171.981 12.7069 171.493 12.8728 170.996 12.8463H164.934C165.377 11.8846 165.986 11.0084 166.732 10.2581V10.299ZM164.09 16.6331C164.091 15.5843 164.271 14.5432 164.621 13.5546C166.828 13.5546 168.789 13.936 169.988 14.0041C171.187 14.0722 172.249 14.7669 171.35 16.4016L167.454 23.6892C166.4 22.8403 165.549 21.7658 164.964 20.5447C164.38 19.3236 164.076 17.987 164.076 16.6331H164.09ZM173.107 25.678C171.282 25.681 169.499 25.1248 167.999 24.0843C168.762 22.9809 172.086 18.2269 172.236 17.9C172.386 17.5731 172.658 17.287 173.039 17.287C173.421 17.287 173.611 17.5186 173.843 17.9C174.075 18.2814 178.134 24.1524 178.134 24.1524C176.646 25.1455 174.897 25.6763 173.107 25.678ZM178.652 23.771C178.543 23.5394 175.6 18.0498 174.715 16.4016C173.829 14.7533 174.797 14.0722 176.077 14.0041C177.357 13.936 179.333 13.5818 181.594 13.541C182.249 15.3394 182.315 17.2993 181.784 19.138C181.253 20.9766 180.151 22.599 178.638 23.771" fill="white"/>
<path d="M213.469 30.8131C213.469 30.3201 213.615 29.8381 213.889 29.4282C214.163 29.0183 214.552 28.6987 215.008 28.5101C215.463 28.3214 215.964 28.272 216.448 28.3682C216.931 28.4644 217.376 28.7018 217.724 29.0504C218.073 29.3991 218.31 29.8432 218.406 30.3268C218.503 30.8103 218.453 31.3116 218.265 31.7671C218.076 32.2226 217.756 32.6119 217.346 32.8858C216.937 33.1597 216.455 33.3059 215.962 33.3059C215.301 33.3023 214.67 33.0386 214.203 32.5718C213.736 32.1051 213.472 31.4731 213.469 30.8131ZM218.059 30.8131C218.059 30.3982 217.936 29.9926 217.706 29.6477C217.475 29.3027 217.148 29.0338 216.764 28.875C216.381 28.7163 215.959 28.6747 215.552 28.7557C215.145 28.8366 214.772 29.0364 214.478 29.3298C214.185 29.6232 213.985 29.9969 213.904 30.4039C213.823 30.8108 213.865 31.2326 214.023 31.6159C214.182 31.9992 214.451 32.3268 214.796 32.5573C215.141 32.7878 215.547 32.9109 215.962 32.9109C216.24 32.9224 216.518 32.876 216.778 32.7747C217.037 32.6734 217.273 32.5193 217.471 32.3221C217.668 32.125 217.822 31.8891 217.923 31.6294C218.024 31.3696 218.071 31.0917 218.059 30.8131ZM215.335 32.1753H214.967V29.3283H216.193C216.929 29.3283 217.187 29.6144 217.187 30.1184C217.187 30.6224 216.792 30.8676 216.302 30.9085L217.147 32.1753H216.738L215.934 30.9085H215.335V32.1753ZM215.839 30.5815C216.234 30.5815 216.792 30.6496 216.792 30.1184C216.792 29.5871 216.452 29.6689 216.111 29.6689H215.335V30.5815H215.839Z" fill="white"/>
<path d="M217.949 0C214.537 1.66696 210.789 2.53343 206.991 2.53343C203.193 2.53343 199.445 1.66696 196.032 0C194.561 2.95545 193.867 6.23717 194.016 9.53527C194.06 16.6754 196.709 23.5539 201.467 28.8783C202.938 30.4448 205.867 32.8695 206.998 33.1147C208.128 32.8695 211.084 30.3903 212.514 28.8783C217.283 23.5599 219.939 16.6787 219.979 9.53527C220.131 6.23539 219.433 2.95179 217.949 0ZM211.97 25.9904C210.495 27.6399 208.826 29.1037 206.998 30.3494C205.164 29.1105 203.494 27.6461 202.026 25.9904C198.321 21.2505 196.32 15.4013 196.345 9.38545C196.345 7.32856 196.659 4.34537 197.381 3.26925C200.417 4.5812 203.69 5.258 206.998 5.258C210.305 5.258 213.578 4.5812 216.615 3.26925C217.337 4.34537 217.65 7.3558 217.65 9.38545C217.675 15.4013 215.674 21.2505 211.97 25.9904Z" fill="white"/>
<path d="M205.69 8.97656C205.69 8.97656 205.608 9.1945 205.458 9.22175C205.332 9.22283 205.208 9.18476 205.104 9.11277C204.972 9.01932 204.824 8.95014 204.668 8.90845C205.004 8.79743 205.371 8.82187 205.69 8.97656Z" fill="white"/>
<path d="M215.999 4.83594C214.242 5.76222 210.551 6.27986 206.968 6.29348C203.386 6.3071 199.68 5.76222 197.937 4.83594C197.295 6.52861 197.048 8.34574 197.215 10.1485C197.501 19.6837 201.86 24.3424 202.487 25.1325C203.814 26.6671 205.318 28.0388 206.968 29.219C208.616 28.0353 210.119 26.6639 211.45 25.1325C212.063 24.3833 216.435 19.6837 216.708 10.1485C216.708 8.30951 216.64 5.81672 215.999 4.84957V4.83594ZM205.797 26.6445C205.776 26.6636 205.75 26.6743 205.722 26.6743C205.694 26.6743 205.667 26.6636 205.647 26.6445C205.456 26.5491 205.429 26.1541 205.429 26.0451C205.426 25.7855 205.493 25.5299 205.623 25.3048C205.752 25.0797 205.939 24.8932 206.164 24.7647V25.6637C205.878 25.9089 205.906 26.3857 205.769 26.6036L205.797 26.6445ZM207.132 27.2166C207.011 27.2776 206.878 27.3094 206.743 27.3094C206.608 27.3094 206.475 27.2776 206.355 27.2166C206.355 27.0804 206.355 26.3448 206.355 25.7454C206.355 25.1461 206.355 24.1108 206.26 23.2663L206.6 23.3616C206.81 23.4216 206.996 23.5454 207.132 23.7158C207.309 23.8929 207.268 24.8055 207.268 25.2142C207.268 26.2222 207.172 27.1621 207.159 27.2438L207.132 27.2166ZM207.459 25.0916V23.9746C207.462 23.8684 207.443 23.7626 207.403 23.6641C207.363 23.5655 207.303 23.4764 207.227 23.4025C207.085 23.271 206.924 23.1609 206.75 23.0755C206.562 22.9932 206.365 22.9293 206.164 22.8848C203.862 22.3127 204.421 20.1605 205.851 20.1605C205.851 20.3512 205.851 20.5419 205.851 20.7054C205.851 20.8688 205.851 21.0731 205.851 21.332C205.497 21.5227 205.756 21.5499 205.919 21.6044L206.777 21.9858C206.968 22.0812 207.377 22.231 207.527 22.2991C208.889 22.8576 208.698 24.4377 207.363 25.1325L207.459 25.0916ZM206.001 20.1605C205.987 19.8973 205.987 19.6336 206.001 19.3704H206.573C207.036 19.3704 207.036 19.3704 207.268 19.3704C207.268 19.4385 207.268 19.7246 207.268 19.8063C207.268 19.8881 207.268 20.2422 207.268 20.4193C207.268 20.5964 207.268 20.7462 207.268 21.0868V21.7951C207.058 21.7433 206.853 21.675 206.655 21.5908C206.452 21.4911 206.256 21.3773 206.069 21.2502C206.076 21.1414 206.076 21.0322 206.069 20.9233V20.5419L206.001 20.1605ZM207.459 21.2911C207.459 21.005 207.459 20.6917 207.459 20.392C207.455 20.2572 207.478 20.123 207.527 19.997C207.69 19.8199 208.031 19.7518 207.785 19.3977C207.54 19.0435 207.145 19.2478 206.682 19.1933C206.252 19.1678 205.824 19.1132 205.402 19.0299C205.054 18.9688 204.733 18.8009 204.485 18.5495C204.236 18.2981 204.072 17.9756 204.015 17.6268C203.958 17.278 204.011 16.9201 204.167 16.6028C204.323 16.2855 204.573 16.0245 204.884 15.856L205.238 16.7414L205.551 17.477C206.069 17.477 206.26 17.477 206.914 17.5723L207.568 17.7085C208.016 17.759 208.429 17.9764 208.725 18.3176C209.021 18.6588 209.178 19.0987 209.164 19.55C209.15 20.0013 208.967 20.431 208.651 20.7535C208.335 21.0761 207.909 21.268 207.459 21.2911ZM205.007 15.3928L205.592 14.4393L207.241 14.5755V17.368L205.797 17.2318L205.388 16.3191L205.007 15.3928ZM207.595 17.082C207.465 16.4964 207.433 15.8935 207.499 15.2975C208.262 15.2158 207.717 14.3985 207.499 14.3576C207.281 14.3167 206.955 14.3576 206.451 14.2622L205.265 14.1533C200.334 13.513 201.07 9.05872 203.467 8.70455C205.211 8.41849 206.192 9.08594 206.437 9.79428C206.156 9.92446 205.847 9.9852 205.538 9.97137C205.112 9.92982 204.683 9.92982 204.257 9.97137C204.516 10.2166 205.402 10.3528 205.769 10.6797C205.335 10.8444 204.861 10.8776 204.407 10.775C204.039 10.7341 203.678 10.6472 203.331 10.5162C203.195 10.9658 202.909 11.8784 205.102 12.3552C205.457 12.4402 205.816 12.5038 206.178 12.5459C206.558 12.5936 206.936 12.6618 207.309 12.7502L207.717 12.8728C208.285 12.8963 208.819 13.1441 209.204 13.5618C209.588 13.9795 209.791 14.5328 209.767 15.1C209.744 15.6672 209.496 16.2018 209.078 16.5863C208.661 16.9708 208.107 17.1736 207.54 17.1501L207.595 17.082ZM209.788 9.86239C208.507 11.102 207.908 11.7422 207.595 12.0828C207.595 12.0828 207.418 12.4233 207.268 12.505L205.483 12.2053C205.419 11.8001 205.396 11.3893 205.415 10.9794C205.663 10.9817 205.902 10.889 206.083 10.7206L206.001 10.4754C206.384 10.6192 206.79 10.693 207.2 10.6933L206.968 10.4481C206.723 10.4481 206.464 10.271 206.151 10.1757C206.343 10.156 206.529 10.0956 206.696 9.99862C206.648 9.82296 206.58 9.65371 206.491 9.4946C206.268 9.13687 205.953 8.84533 205.579 8.65005C205.531 8.51334 205.531 8.36448 205.579 8.22778C205.579 7.60117 205.906 7.7374 206.573 7.95534C206.657 7.99896 206.735 8.05395 206.805 8.1188C207.227 8.29588 207.636 8.5547 207.622 8.6773C207.608 8.7999 207.622 10.1757 207.745 10.0395C207.867 9.90326 208.821 9.19493 209.107 9.01784C209.611 8.6773 210.374 9.33114 209.883 9.79428" fill="white"/>
<path d="M145.754 30.8131C145.754 30.3206 145.9 29.8392 146.173 29.4296C146.446 29.0199 146.835 28.7004 147.29 28.5114C147.744 28.3223 148.245 28.2721 148.728 28.3672C149.211 28.4623 149.655 28.6984 150.005 29.0456C150.354 29.3929 150.592 29.8358 150.69 30.3184C150.788 30.8011 150.74 31.3019 150.554 31.7576C150.367 32.2133 150.05 32.6036 149.642 32.8791C149.233 33.1547 148.753 33.3032 148.26 33.3059C147.599 33.3023 146.966 33.039 146.497 32.5726C146.028 32.1063 145.761 31.4743 145.754 30.8131ZM150.344 30.8131C150.344 30.3976 150.221 29.9915 149.99 29.6462C149.759 29.3009 149.43 29.0321 149.046 28.8737C148.662 28.7154 148.24 28.6746 147.832 28.7567C147.425 28.8387 147.051 29.0399 146.759 29.3346C146.466 29.6294 146.267 30.0044 146.188 30.4122C146.108 30.82 146.152 31.2423 146.313 31.6253C146.473 32.0084 146.744 32.3351 147.091 32.5639C147.438 32.7928 147.845 32.9135 148.26 32.9108C148.538 32.9204 148.814 32.8727 149.072 32.7705C149.33 32.6683 149.565 32.5138 149.76 32.3169C149.956 32.12 150.109 31.8847 150.209 31.626C150.31 31.3672 150.356 31.0904 150.344 30.8131ZM147.62 32.1753H147.252V29.3283H148.478C149.214 29.3283 149.473 29.6143 149.473 30.1183C149.473 30.6223 149.091 30.8675 148.587 30.9084L149.445 32.1753H149.037L148.233 30.9084H147.62V32.1753ZM148.124 30.5815C148.519 30.5815 149.078 30.6496 149.078 30.1183C149.078 29.5871 148.751 29.6688 148.397 29.6688H147.62V30.5815H148.124Z" fill="white"/>
<path d="M105.912 15.5564C104.143 14.0958 101.897 13.3391 99.6051 13.4314C98.4197 13.4569 97.2521 13.7252 96.1744 14.2195C95.0967 14.7138 94.1317 15.4238 93.339 16.3056C91.4964 18.373 90.4952 21.0557 90.5329 23.8248C90.5084 25.1827 90.7533 26.5321 91.2537 27.7947C91.7541 29.0573 92.4999 30.2082 93.448 31.1806C94.3472 32.0619 95.412 32.7564 96.581 33.2239C97.75 33.6915 99 33.923 100.259 33.905C102.244 33.9241 104.169 33.2198 105.673 31.9239C107.177 30.6279 108.157 28.8288 108.432 26.8625V26.6854H106.906V26.8216C106.715 28.3715 105.967 29.7991 104.802 30.8389C103.637 31.8788 102.134 32.46 100.572 32.4747C97.6571 32.4747 95.9953 30.4723 95.9817 27.026V22.4218H108.745V22.2719C108.786 21.004 108.558 19.7418 108.077 18.5681C107.596 17.3943 106.872 16.3355 105.953 15.461L105.912 15.5564ZM103.228 20.9098H95.8999V18.9618C95.8673 18.3789 95.9517 17.7953 96.1482 17.2455C96.3447 16.6957 96.6494 16.1909 97.0442 15.7607C97.3755 15.4328 97.7692 15.1746 98.2021 15.0015C98.6349 14.8283 99.0981 14.7437 99.5642 14.7527C101.921 14.7527 103.215 16.2647 103.228 18.9755V20.9098Z" fill="white"/>
<path d="M65.9148 29.5186H64.5526V29.6412C64.5016 30.2954 64.2079 30.907 63.7289 31.3556C63.25 31.8043 62.6206 32.0576 61.9645 32.0658C60.5342 32.0658 59.7986 31.0578 59.7986 29.0827V15.3246H64.5117V13.9624H59.8258V7.99609H59.6624C58.559 8.11869 56.3114 8.28214 55.1399 8.28214H54.9901V13.9352H51.7617V15.2974H54.9084V27.271C54.9084 31.6844 56.8018 33.932 60.5205 33.932C61.7841 34.0251 63.0362 33.6377 64.0263 32.8471C65.0164 32.0565 65.6714 30.9212 65.8603 29.6684L65.9148 29.5186Z" fill="white"/>
<path d="M48.9432 32.065V19.8871C48.9734 19.0338 48.8322 18.1831 48.5281 17.3853C48.2239 16.5875 47.7629 15.8587 47.1723 15.2421C46.5482 14.6485 45.813 14.1841 45.0088 13.8755C44.2046 13.5669 43.3474 13.4203 42.4864 13.444C41.2928 13.4169 40.1108 13.6834 39.0443 14.2202C37.9778 14.757 37.0595 15.5476 36.3702 16.5225V14.1387V14.057H28.6058V15.4191H31.6162V32.1603H26.2765L15.2428 0.435149V0.326172H13.8806V0.435149L3.07853 32.1331H0V33.4953H9.03126V32.1331H4.94472L7.94152 23.0882H17.5994L20.6507 32.1331H16.3462V33.4953H39.3807V32.1331H36.3702V22.7749C36.3702 17.2308 39.3398 15.2148 41.3286 15.2148C43.3174 15.2148 44.23 16.468 44.23 18.92V32.065H41.4103V33.4272H52.0081V32.065H48.9432ZM12.5457 8.73083L17.0681 21.6443H8.32293L12.5457 8.73083Z" fill="white"/>
<path d="M86.8241 32.0651V19.6965C86.8241 16.8087 85.0669 13.4441 80.1222 13.4441C78.8725 13.3924 77.6269 13.6185 76.4751 14.1061C75.3233 14.5936 74.2939 15.3306 73.4611 16.2638V0.353516H65.7784V1.7157H68.6526V32.0515H65.5469V33.4137H76.4443V32.0515H73.4748V22.6388C73.3967 21.5559 73.5374 20.4684 73.8885 19.4411C74.2395 18.4137 74.7937 17.4675 75.518 16.6588C75.9435 16.2276 76.4504 15.8852 77.0093 15.6513C77.5681 15.4175 78.1679 15.2969 78.7737 15.2966C81.4163 15.2966 81.9748 17.4625 81.9748 19.2878V32.0924H79.0052V33.4545H89.9027V32.0924H86.8514L86.8241 32.0651Z" fill="white"/>
<path d="M144.391 32.0652H141.435V18.9474C141.435 15.5556 139.106 13.4987 135.373 13.4987C134.15 13.4436 132.931 13.6848 131.822 14.2018C130.712 14.7188 129.743 15.4964 128.998 16.4682C128.466 15.4881 127.659 14.6848 126.677 14.1572C125.694 13.6296 124.579 13.4007 123.468 13.4987C122.295 13.4709 121.13 13.688 120.047 14.136C118.963 14.5839 117.985 15.253 117.174 16.1004V14.1934V14.0572H109.355V15.4193H112.557V32.1605H109.396V33.5227H120.035V32.1605H117.311V22.9113C117.406 20.187 117.529 18.4843 118.496 17.1629C118.896 16.6208 119.414 16.177 120.011 15.8654C120.608 15.5538 121.269 15.3826 121.942 15.3649C122.405 15.3485 122.863 15.469 123.258 15.7113C123.652 15.9536 123.967 16.3069 124.162 16.7271C124.532 17.8077 124.671 18.9539 124.571 20.0916V32.1742H121.738V33.5364H132.131V32.1742H129.407V22.925C129.502 20.2006 129.625 18.4979 130.592 17.1766C130.992 16.6351 131.511 16.1919 132.108 15.8804C132.705 15.5689 133.365 15.3973 134.038 15.3785C134.501 15.3621 134.959 15.4826 135.354 15.7249C135.749 15.9672 136.063 16.3205 136.259 16.7407C136.628 17.8213 136.768 18.9675 136.667 20.1053V32.1878H133.847V33.55H144.527V32.1878L144.391 32.0652Z" fill="white"/>
</svg>
