<svg width="182" height="31" viewBox="0 0 182 31" fill="none" xmlns="http://www.w3.org/2000/svg">
<path d="M65.6385 22.3731H62.1596L61.1916 19.8321H55.565L54.5668 22.3731H51.1484L56.896 9.54688H59.8606L65.6385 22.3731ZM60.7076 18.5615L58.3481 12.4812H58.2573L56.049 18.5615H60.7076Z" fill="#002A4E"/>
<path d="M81.0706 22.163C79.9816 22.405 78.9228 22.526 77.8338 22.526C75.686 22.526 73.8105 22.1328 72.2375 21.316C70.6644 20.5295 69.8779 18.8355 69.8779 16.3247C69.8779 13.5719 70.6644 11.7266 72.2375 10.7586C73.8105 9.79055 75.7163 9.33679 77.9548 9.33679C78.8018 9.33679 79.8304 9.3973 81.0706 9.54855V11.1216C80.2539 10.9703 79.4976 10.8796 78.8018 10.8796C77.4103 10.8796 76.2003 11.2123 75.2323 11.9081C74.234 12.6039 73.75 13.9349 73.75 15.9314C73.75 17.1414 73.871 18.049 74.0828 18.7447C74.2945 19.4102 74.8088 19.9547 75.5953 20.348C76.3818 20.7413 77.3498 20.953 78.5598 20.953C79.2556 20.953 80.1329 20.8623 81.1311 20.6505V22.163H81.0706Z" fill="#002A4E"/>
<path d="M99.6141 22.374H95.863L91.6885 16.3541H91.386V22.374H87.7861V9.54773H92.7775C96.8311 9.54773 98.8881 10.6367 98.8881 12.845C98.8881 13.8433 98.5856 14.5996 97.9806 15.0836C97.3756 15.5978 96.4075 15.9609 95.0463 16.2331L99.6141 22.374ZM91.3557 15.1743C92.7472 15.1743 93.7455 14.9928 94.3808 14.6903C94.9858 14.3878 95.3185 13.8433 95.3185 13.0265C95.3185 12.2703 95.0463 11.6955 94.4715 11.3628C93.8968 11.03 92.9287 10.8788 91.5675 10.8788H91.3557V15.1743Z" fill="#002A4E"/>
<path d="M106.301 9.54688H109.901V22.3731H106.301V9.54688Z" fill="#002A4E"/>
<path d="M126.505 11.2115C125.325 10.9089 124.266 10.7577 123.328 10.7577C122.391 10.7577 121.604 10.909 120.939 11.2417C120.273 11.5745 119.94 11.9375 119.94 12.4215C119.94 12.7542 120.152 13.087 120.545 13.45C120.939 13.813 121.846 14.3878 123.207 15.2045C124.569 16.0213 125.658 16.7171 126.384 17.2918C127.11 17.8968 127.473 18.5623 127.473 19.3186C127.473 20.2564 126.868 21.0429 125.688 21.6479C124.478 22.2529 122.935 22.5252 120.999 22.5252C119.94 22.5252 118.64 22.3739 117.097 22.0714V20.5589C117.127 20.5589 117.188 20.5891 117.218 20.5891C117.43 20.6799 117.853 20.7706 118.549 20.9219C119.245 21.0731 119.88 21.1336 120.515 21.1336C121.574 21.1336 122.421 20.9824 123.117 20.6194C123.812 20.2866 124.145 19.8631 124.145 19.3186C124.145 18.9556 123.964 18.6228 123.631 18.2901C123.298 17.9876 122.663 17.5641 121.755 17.0196L119.335 15.5978C118.398 15.0533 117.702 14.539 117.278 14.0853C116.825 13.6315 116.613 13.087 116.613 12.4517C116.613 11.514 117.188 10.7577 118.307 10.1829C119.456 9.60818 120.908 9.30566 122.723 9.30566C123.994 9.30566 125.264 9.45692 126.535 9.75942L126.505 11.2115Z" fill="#002A4E"/>
<path d="M146.773 19.3471C146.773 21.4949 144.776 22.5537 140.783 22.5537C136.397 22.5537 134.219 21.4949 134.219 19.3471V9.57617H137.788V18.6513C137.788 19.6194 137.97 20.2849 138.303 20.6781C138.635 21.0411 139.422 21.2529 140.571 21.2529C141.751 21.2529 142.477 21.0411 142.78 20.6781C143.082 20.2849 143.233 19.5891 143.233 18.5908V9.60642H146.803L146.773 19.3471Z" fill="#002A4E"/>
<path d="M165.32 22.3731H161.569L157.395 16.3533H157.092V22.3731H153.492V9.54688H158.484C162.537 9.54688 164.564 10.6359 164.564 12.8442C164.564 13.8425 164.261 14.5987 163.656 15.0827C163.051 15.597 162.083 15.96 160.722 16.2323L165.32 22.3731ZM157.092 15.1735C158.484 15.1735 159.482 14.992 160.117 14.6895C160.722 14.387 161.055 13.8425 161.055 13.0257C161.055 12.2694 160.783 11.6947 160.208 11.3619C159.633 11.0292 158.665 10.8779 157.304 10.8779H157.092V15.1735Z" fill="#002A4E"/>
<path d="M181.503 22.374H172.004V9.54773H181.503V10.9998H175.574V15.0533H181.049V16.5054H175.574V20.9219H181.503V22.374Z" fill="#002A4E"/>
<path d="M26.9831 5.19193C26.136 7.21872 24.3815 8.85225 22.2337 9.66902C20.0859 8.85225 18.3616 7.21872 17.4844 5.19193C18.3314 3.16515 20.0859 1.53161 22.2337 0.714844C24.3815 1.56186 26.1058 3.16515 26.9831 5.19193Z" fill="#39607A"/>
<path d="M18.6645 12.1785C17.9687 13.812 16.5772 15.1128 14.8831 15.748C13.1891 15.1128 11.7976 13.7817 11.1018 12.1785C11.7976 10.5449 13.1891 9.24415 14.8831 8.60889C16.5772 9.24415 17.9687 10.5449 18.6645 12.1785Z" fill="#39607A"/>
<path d="M33.3977 12.1785C32.702 13.812 31.3407 15.1128 29.6164 15.748C27.9224 15.1128 26.5308 13.7817 25.8351 12.1785C26.5308 10.5449 27.9224 9.24415 29.6164 8.60889C31.3104 9.24415 32.702 10.5449 33.3977 12.1785Z" fill="#39607A"/>
<path d="M25.4697 16.901C24.895 18.2925 23.6849 19.4118 22.2329 19.9563C20.7809 19.4118 19.6011 18.2925 18.9961 16.901C19.5709 15.5095 20.7809 14.3902 22.2329 13.8457C23.7152 14.4205 24.895 15.5397 25.4697 16.901Z" fill="#39607A"/>
<path d="M11.3447 18.9557C10.77 20.3472 9.55993 21.4665 8.10791 22.011C6.65588 21.4665 5.44585 20.3472 4.87109 18.9557C5.44585 17.5642 6.65588 16.4449 8.10791 15.9004C9.55993 16.4752 10.77 17.5642 11.3447 18.9557Z" fill="#39607A"/>
<path d="M39.5992 18.9547C39.0245 20.3463 37.8144 21.4655 36.3624 22.01C34.9104 21.4655 33.7004 20.3463 33.1256 18.9547C33.7004 17.5632 34.9104 16.4439 36.3624 15.8994C37.8447 16.4742 39.0245 17.5632 39.5992 18.9547Z" fill="#39607A"/>
<path d="M18.6341 21.4978C18.1199 22.6776 17.1216 23.6153 15.8813 24.0993C14.6411 23.6153 13.6125 22.6776 13.1285 21.4978C13.6428 20.318 14.6411 19.35 15.8813 18.8962C17.1216 19.3802 18.1199 20.3483 18.6341 21.4978Z" fill="#39607A"/>
<path d="M31.3684 21.4978C30.8541 22.6776 29.8559 23.6153 28.6156 24.0993C27.3753 23.6153 26.3468 22.6776 25.8628 21.4978C26.3771 20.318 27.3753 19.35 28.6156 18.8962C29.8559 19.3802 30.8541 20.3483 31.3684 21.4978Z" fill="#39607A"/>
<path d="M24.3844 25.4598C23.9911 26.3673 23.2046 27.0933 22.2668 27.4563C21.2988 27.0933 20.5123 26.3673 20.1493 25.4598C20.5425 24.5523 21.3291 23.8263 22.2668 23.4633C23.2046 23.796 23.9911 24.5523 24.3844 25.4598Z" fill="#39607A"/>
<path d="M13.0666 26.0939C12.6128 27.1527 11.7053 27.9997 10.586 28.4535C9.46674 28.03 8.55923 27.1527 8.10547 26.0939C8.55923 25.0351 9.46674 24.1881 10.586 23.7344C11.7053 24.1881 12.6128 25.0351 13.0666 26.0939Z" fill="#39607A"/>
<path d="M36.3595 26.0939C35.9058 27.1527 34.9983 27.9997 33.879 28.4535C32.7597 28.03 31.8522 27.1527 31.3984 26.0939C31.8522 25.0351 32.7597 24.1881 33.879 23.7344C34.9983 24.1881 35.9058 25.0351 36.3595 26.0939Z" fill="#39607A"/>
<path d="M5.2636 25.1569C4.77959 26.2762 3.81157 27.1837 2.6318 27.6375C1.45203 27.1837 0.484009 26.2762 0 25.1569C0.484009 24.0377 1.45203 23.1302 2.6318 22.6764C3.81157 23.1604 4.77959 24.0679 5.2636 25.1569Z" fill="#39607A"/>
<path d="M44.4394 25.1563C43.9554 26.2756 42.9874 27.1831 41.8076 27.6369C40.6278 27.1831 39.6598 26.2756 39.1758 25.1563C39.6598 24.0371 40.6278 23.1295 41.8076 22.6758C43.0176 23.1598 43.9554 24.0673 44.4394 25.1563Z" fill="#39607A"/>
<path d="M19.4212 29.2702C19.1187 29.9963 18.4835 30.6013 17.6969 30.9038C16.9104 30.6013 16.2752 30.0265 15.9727 29.2702C16.2752 28.5442 16.9104 27.9392 17.6969 27.6367C18.4532 27.9392 19.0885 28.5442 19.4212 29.2702Z" fill="#39607A"/>
<path d="M28.4951 29.2711C28.1926 29.9971 27.5573 30.6021 26.7708 30.9046C25.9843 30.6021 25.349 30.0274 25.0465 29.2711C25.349 28.5451 25.9843 27.9401 26.7708 27.6376C27.5573 27.9401 28.1926 28.5451 28.4951 29.2711Z" fill="#39607A"/>
</svg>
