<svg width="105" height="34" viewBox="0 0 105 34" fill="none" xmlns="http://www.w3.org/2000/svg">
<path d="M55.8713 33.66C64.2036 33.66 66.0804 28.2319 66.0804 24.5045V13.5297H59.9368V24.0859C59.9368 26.9801 58.3166 28.246 55.8713 28.246C53.4229 28.246 51.8027 26.9801 51.8027 24.0859V13.5297H45.6592V24.5045C45.6592 28.2319 47.536 33.662 55.8733 33.662" fill="#004276"/>
<path d="M10.2141 33.66C18.5464 33.66 20.4242 28.2319 20.4242 24.5045V13.5297H14.2826V24.0859C14.2826 26.9801 12.6595 28.246 10.2141 28.246C7.76574 28.246 6.14155 26.9801 6.14155 24.0859V13.5297H0V24.5045C0 28.2319 1.88181 33.662 10.2141 33.662" fill="#004276"/>
<path d="M33.0422 12.7676C24.7079 12.7676 22.8281 18.1946 22.8281 21.922V32.8959H28.9717V22.3397C28.9717 19.4515 30.5949 18.1836 33.0432 18.1836C35.4886 18.1836 37.1088 19.4515 37.1088 22.3397V32.8959H43.2523V21.923C43.2523 18.1956 41.3745 12.7686 33.0442 12.7686" fill="#004276"/>
<path d="M84.4928 15.8772C84.2272 15.5229 82.6614 12.7676 77.6348 12.7676C72.5157 12.7676 68.4844 15.3287 68.4844 21.5176V32.896H74.4891V21.5075C74.4891 19.513 75.5085 17.9854 77.987 17.9854C80.4726 17.9854 81.487 19.513 81.487 21.5075V32.899H87.4947V21.5045C87.4947 19.51 88.5091 17.9824 90.9906 17.9824C93.4742 17.9824 94.4926 19.51 94.4926 21.5045V32.896H100.493V21.5145C100.493 15.3257 96.461 12.7656 91.3439 12.7656C86.3264 12.7656 84.7555 15.5209 84.4939 15.8751" fill="#004276"/>
<path d="M27.9922 5.36987C27.9922 8.16743 30.2262 10.3209 33.0409 10.3209C35.8284 10.3209 38.0221 8.16743 38.0221 5.36987C38.0221 2.57533 35.8284 0.423828 33.0409 0.423828C30.2252 0.423828 27.9922 2.57734 27.9922 5.37088" fill="#547083"/>
<path d="M50.8159 5.36963C50.8159 8.16719 53.0519 10.3207 55.8676 10.3207C58.6551 10.3207 60.8489 8.16719 60.8489 5.36963C60.8489 2.57509 58.6551 0.423584 55.8676 0.423584C53.0519 0.423584 50.8159 2.5771 50.8159 5.37063" fill="#547083"/>
<path d="M79.4395 5.36893C79.4395 8.16648 81.6755 10.32 84.4912 10.32C87.2787 10.32 89.4725 8.16648 89.4725 5.36893C89.4705 2.57539 87.2767 0.421875 84.4892 0.421875C81.6735 0.421875 79.4375 2.57539 79.4375 5.36893" fill="#547083"/>
<path d="M102.244 13.3918C102.163 13.3931 102.082 13.4053 102.004 13.428V14.3035H102.189C102.519 14.3035 102.776 14.1828 102.776 13.8185C102.776 13.4763 102.484 13.3918 102.245 13.3918H102.244ZM102.835 15.6359L102.077 14.532H102.004V15.6389H101.662V13.2378C101.823 13.1594 102.044 13.11 102.273 13.11C102.776 13.11 103.13 13.3918 103.13 13.8195C103.13 14.2321 102.836 14.4676 102.442 14.5078L103.25 15.6379H102.837L102.835 15.6359ZM102.357 12.6119C101.351 12.6119 100.55 13.4341 100.55 14.4354C100.55 15.4316 101.35 16.2427 102.356 16.2427C102.593 16.2427 102.828 16.196 103.047 16.1051C103.266 16.0143 103.465 15.8811 103.632 15.7133C103.799 15.5455 103.932 15.3464 104.022 15.1272C104.112 14.9081 104.158 14.6733 104.158 14.4364C104.158 13.4351 103.356 12.6129 102.356 12.6129L102.357 12.6119ZM102.357 16.5547C102.079 16.5555 101.803 16.5012 101.546 16.3951C101.288 16.2889 101.054 16.1329 100.857 15.9361C100.66 15.7392 100.504 15.5054 100.398 15.248C100.292 14.9907 100.237 14.7148 100.238 14.4364C100.237 14.1574 100.291 13.8811 100.397 13.6231C100.503 13.3651 100.659 13.1306 100.856 12.9328C101.053 12.7351 101.286 12.578 101.544 12.4707C101.801 12.3633 102.077 12.3077 102.356 12.307C103.524 12.307 104.475 13.26 104.475 14.4354C104.475 15.6128 103.523 16.5547 102.356 16.5547H102.357Z" fill="#004276"/>
</svg>
