<svg width="146" height="68" viewBox="0 0 146 68" fill="none" xmlns="http://www.w3.org/2000/svg">
<path d="M69.7617 1.80237C69.7617 1.80237 90.2056 6.34287 90.2056 21.4779C90.2056 36.6129 69.7617 41.2698 69.7617 41.2698" stroke="#918280" stroke-width="1.83715"/>
<path d="M69.6431 41.3149C69.6431 41.3149 49.1992 36.6347 49.1992 21.6161C49.1992 7.03997 69.6431 1.82422 69.6431 1.82422" stroke="#918280" stroke-width="1.83715"/>
<path d="M69.7615 41.2934C85.2189 41.2934 97.7497 32.4531 97.7497 21.5481C97.7497 10.643 85.2189 1.80273 69.7615 1.80273C54.3041 1.80273 41.7734 10.643 41.7734 21.5481C41.7734 32.4531 54.3041 41.2934 69.7615 41.2934Z" stroke="#918280" stroke-width="1.83715"/>
<path d="M139.613 46.7177C139.613 45.1577 140.847 43.9236 142.407 43.9236C143.968 43.9236 145.202 45.1577 145.202 46.7177C145.202 48.2778 143.968 49.5119 142.407 49.5119C140.847 49.5119 139.613 48.2778 139.613 46.7177ZM140.056 46.7177C140.056 48.045 141.127 49.0462 142.407 49.0462C143.688 49.0462 144.759 48.0217 144.759 46.7177C144.759 45.3905 143.688 44.3893 142.407 44.3893C141.127 44.3893 140.056 45.3905 140.056 46.7177ZM143.688 48.3244H143.176L142.361 46.8807H141.779V48.3244H141.336V45.181H142.664C143.222 45.181 143.735 45.3439 143.735 46.0192C143.735 46.6479 143.316 46.8574 142.896 46.8807L143.688 48.3244ZM141.779 45.6234V46.415H142.268C142.687 46.415 143.269 46.4849 143.269 46.0658C143.269 45.6699 142.943 45.6466 142.547 45.6466H141.779V45.6234Z" fill="#005097"/>
<path d="M41.4727 21.2461H56.9569" stroke="#918280" stroke-width="1.83715"/>
<path d="M82.7773 21.2461H97.7726" stroke="#918280" stroke-width="1.83715"/>
<path d="M48.082 33.9349C48.082 33.9349 56.6042 27.2988 69.6203 27.2988C82.6597 27.2988 91.6243 33.9349 91.6243 33.9349" stroke="#918280" stroke-width="1.83715"/>
<path d="M0 45.2742H8.24275V61.5734H14.2502V66.859H0V45.2742Z" fill="#005097"/>
<path d="M36.1856 56.1486C36.1856 63.0408 31.0164 67.1855 24.683 67.1855C18.3263 67.1855 13.1804 63.0408 13.1804 56.1486C13.1804 49.396 18.3263 44.809 24.6364 44.809C30.9466 44.809 36.1856 49.396 36.1856 56.1486ZM21.7026 55.9157C21.7026 58.3606 22.3778 61.5506 24.6597 61.5506C26.9416 61.5506 27.6169 58.3839 27.6169 55.9157C27.6169 53.6338 27.0581 50.3973 24.6597 50.3973C22.2614 50.3973 21.7026 53.6338 21.7026 55.9157Z" fill="#005097"/>
<path d="M53.9279 51.4218C52.7171 50.3973 51.4597 49.7686 49.5504 50.0247C46.4069 50.4438 44.777 53.1681 44.777 55.9623C44.777 58.8729 47.1521 61.4575 49.5504 61.667C51.2967 61.8999 52.5541 61.6437 53.9279 60.7124V66.3472C52.5541 66.9526 49.7832 67.2088 48.2464 67.2088C41.5637 67.2088 36.3247 62.4354 36.3247 56.2883C36.3247 50.0014 41.587 44.809 48.456 44.809C50.3886 44.809 52.1117 44.809 53.9279 45.3911V51.4218Z" fill="#005097"/>
<path d="M54.2969 45.2498H62.5862V53.8884C62.7492 53.5857 67.1966 45.2266 67.1966 45.2266H76.4405L69.9209 55.5649L76.6501 66.8347H67.0336L62.5862 58.0331V66.858H54.2969V45.2498Z" fill="#005097"/>
<path d="M76.5576 45.2517H94.1841V50.9332H89.5039L89.4806 66.8598H81.168V50.9332H76.5576V45.2517Z" fill="#005097"/>
<path d="M117.167 45.3451H126.202L131.115 56.056L131.022 45.3451H139.311V66.9532H130.184L125.643 56.5916V66.9765L117.167 66.9532V45.3451Z" fill="#005097"/>
<path d="M116.912 56.0784C116.912 62.9707 111.463 67.2085 104.967 67.2085C98.4704 67.2085 93.3711 62.9707 93.3711 56.0784C93.3711 49.3259 98.68 44.8087 105.153 44.8087C111.603 44.7854 116.912 49.3259 116.912 56.0784ZM102.103 55.8922C102.103 58.337 102.801 61.4106 105.13 61.4106C107.482 61.4106 108.157 58.337 108.157 55.8922C108.157 53.6103 107.575 50.3039 105.13 50.3039C102.685 50.3271 102.103 53.6103 102.103 55.8922Z" fill="#005097"/>
<path d="M69.7617 41.2931C69.7617 41.2931 82.6381 35.0761 82.6381 21.5012C82.6381 8.06593 69.7617 1.80237 69.7617 1.80237" stroke="#918280" stroke-width="1.83715"/>
<path d="M69.5287 1.80273C69.5287 1.80273 56.6523 8.22929 56.6523 21.5947C56.6523 34.8902 69.5287 41.2934 69.5287 41.2934" stroke="#918280" stroke-width="1.83715"/>
<path d="M81.7069 19.2894C81.9863 21.4316 81.7302 23.4806 81.7302 23.4806H58.725C55.7213 23.4806 55.8843 20.4071 55.8843 20.4071C56.9553 5.97062 69.5523 1.011 69.5523 1.011C70.4604 0.964426 72.5328 1.08085 72.5328 1.08085C72.5328 1.08085 61.7054 7.69368 60.5412 19.2894H81.7069Z" fill="#005097"/>
</svg>
