<svg width="473" height="286" viewBox="0 0 473 286" fill="none" xmlns="http://www.w3.org/2000/svg">
<path d="M154.63 231.65C305.614 242.286 482.843 226.241 472.219 116.773C462.636 18.0003 336.929 4.24256 236.813 5.53726C154.63 6.57786 73.6448 -27.048 18.0332 66.1946C-24.4378 137.427 5.04991 221.123 154.63 231.65Z" fill="#FFCCB8"/>
<path d="M265.321 87.2002C285.334 69.5463 302.831 52.9088 329.693 47.2702C393.544 33.815 398.892 87.418 398.892 87.418" stroke="#074C93" stroke-width="1.21" stroke-miterlimit="10"/>
<path d="M236.221 42.9503C233.523 47.2458 233.366 50.0288 234.455 52.8118C235.544 55.5948 229.542 52.1826 226.59 50.4886C223.637 48.7946 224.376 43.1197 225.803 39.526C227.231 35.9323 234.745 38.3523 236.221 42.9503Z" fill="white" stroke="#074C93" stroke-width="1.21" stroke-miterlimit="10"/>
<path d="M120.859 138.866C126.325 139.716 131.861 140.032 137.388 139.81C162.193 139.012 182.255 135.031 199.098 129.126" stroke="#074C93" stroke-width="1.21" stroke-miterlimit="10"/>
<path d="M131.132 64.9121C116.975 71.071 106.496 78.9118 99.6719 87.1761" stroke="#074C93" stroke-width="1.21" stroke-miterlimit="10"/>
<path d="M235.54 183.795C228.571 190.438 215.442 203.881 213.906 203.409C212.369 202.937 206.791 197.698 207.263 196.621C207.735 195.544 229.962 167.726 234.451 164.024C238.94 160.321 238.602 180.83 235.54 183.795Z" fill="#AFDCE2" stroke="#074C93" stroke-width="1.21" stroke-miterlimit="10"/>
<path d="M209.115 197.08C204.638 199.391 200.923 202.489 201.855 204.34C202.786 206.191 205.194 209.628 207.239 209.458C209.284 209.289 209.417 210.826 209.889 212.217C210.361 213.609 213.289 218.086 214.826 218.703C216.363 219.32 220.694 219.634 221.009 218.703C221.324 217.771 219.618 217.311 217.766 216.077C215.915 214.843 214.209 206.191 213.906 203.408C213.604 200.625 209.115 197.08 209.115 197.08Z" fill="#074C93" stroke="#204484" stroke-width="0.9075" stroke-miterlimit="10"/>
<path d="M222.405 121.697C228.891 133.797 232.448 165.414 233.065 168.342C233.682 171.271 247.271 172.517 248.045 169.432C248.819 166.346 249.255 118.914 246.653 113.36C244.052 107.806 221.316 116.76 222.405 121.697Z" fill="#AFDCE2" stroke="#074C93" stroke-width="1.21" stroke-miterlimit="10"/>
<path d="M232.87 167.229C229.785 177.732 230.123 212.06 230.898 212.374C231.672 212.689 240.578 213.294 240.578 213.294C240.578 213.294 248.31 174.066 247.995 169.432" fill="#AFDCE2"/>
<path d="M232.87 167.229C229.785 177.732 230.123 212.06 230.898 212.374C231.672 212.689 240.578 213.294 240.578 213.294C240.578 213.294 248.31 174.066 247.995 169.432" stroke="#074C93" stroke-width="1.21" stroke-miterlimit="10"/>
<path d="M232.263 210.052C229.843 213.767 230.666 220.712 230.666 220.712C230.666 220.712 237.382 221.172 238.458 220.712C239.535 220.252 240.624 219.018 242.476 219.792C244.327 220.567 252.978 221.329 254.37 220.252C255.761 219.175 254.987 216.392 254.37 216.392C253.753 216.392 243.843 213.815 241.06 211.008C238.277 208.201 232.263 210.052 232.263 210.052Z" fill="#074C93" stroke="#204484" stroke-width="0.9075" stroke-miterlimit="10"/>
<path d="M241.509 23.6143C244.8 34.9399 244.8 39.0539 241.509 41.7643C238.218 44.4747 234.503 42.3814 230.994 41.7643C227.485 41.1472 225.234 31.0558 227.497 24.667C229.76 18.2782 239.065 12.3129 241.509 23.6143Z" fill="white" stroke="#074C93" stroke-width="1.21" stroke-miterlimit="10"/>
<path d="M232.444 50.4884C242.475 60.3741 245.754 61.9229 247.109 70.7196C248.464 79.5163 244.484 84.0296 246.19 93.4313C247.896 102.833 248.041 117.353 248.041 117.353C248.041 117.353 225.487 121.697 220.392 126.029C215.298 130.361 216.533 83.5456 216.835 73.5026C217.138 63.4596 222.885 49.5567 225.087 48.3225C227.289 47.0883 232.444 50.4884 232.444 50.4884Z" fill="#F4C8CF" stroke="#074C93" stroke-width="1.21" stroke-miterlimit="10"/>
<path d="M229.517 77.6046C229.517 78.5968 229.517 79.6011 229.517 80.6054C229.517 89.7288 230.037 98.3682 230.4 101.466C230.763 104.563 235.882 125.968 235.555 126.307C235.228 126.646 226.601 129.114 226.601 129.114C226.601 129.114 219.075 107.637 216.497 99.2999C213.92 90.963 213.993 63.3145 222.378 63.1572" fill="#F4C8CF"/>
<path d="M229.517 77.6046C229.517 78.5968 229.517 79.6011 229.517 80.6054C229.517 89.7288 230.037 98.3682 230.4 101.466C230.763 104.563 235.882 125.968 235.555 126.307C235.228 126.646 226.601 129.114 226.601 129.114C226.601 129.114 219.075 107.637 216.497 99.2999C213.92 90.963 213.993 63.3145 222.378 63.1572" stroke="#074C93" stroke-width="1.21" stroke-miterlimit="10"/>
<path d="M245.417 138.685C240.008 130.966 228.477 130.966 219.934 138.685C211.392 146.405 190.604 172.819 182.424 176.534C167.19 183.431 165.484 180.66 165.484 180.66" stroke="#074C93" stroke-width="1.21" stroke-miterlimit="10"/>
<path d="M118.934 180.879C110.464 179.209 105.878 187.606 96.7186 188.865C87.5589 190.123 95.678 191.672 101.559 190.643C107.439 189.615 112.376 184.448 116.079 184.146C119.781 183.843 123.024 182.028 118.934 180.879Z" fill="#FFCCB8"/>
<path d="M118.934 180.879C110.464 179.209 105.878 187.606 96.7186 188.865C87.5589 190.123 95.678 191.672 101.559 190.643C107.439 189.615 112.376 184.448 116.079 184.146C119.781 183.843 123.024 182.028 118.934 180.879Z" fill="#074C93" stroke="#074C93" stroke-width="1.21" stroke-miterlimit="10"/>
<path d="M133.818 195.458C135.851 198.979 133.963 204.134 133.818 207.219C133.673 210.305 138.114 218.557 137.291 219.9C136.468 221.243 133.818 220.711 133.37 219.477C132.923 218.242 131.725 210.595 129.148 208.502C126.57 206.409 126.607 203.081 124.066 196.245C121.525 189.408 131.797 186.891 133.818 195.458Z" fill="#FFCCB8"/>
<path d="M133.818 195.458C135.851 198.979 133.963 204.134 133.818 207.219C133.673 210.305 138.114 218.557 137.291 219.9C136.468 221.243 133.818 220.711 133.37 219.477C132.923 218.242 131.725 210.595 129.148 208.502C126.57 206.409 126.607 203.081 124.066 196.245C121.525 189.408 131.797 186.891 133.818 195.458Z" stroke="#074C93" stroke-width="1.21" stroke-miterlimit="10"/>
<path d="M128.639 193.935C137.484 197.142 148.568 197.384 149.342 198.013C150.117 198.642 148.483 212.944 147.564 217.107C146.644 221.269 148.52 223.689 151.811 220.204C155.102 216.719 156.336 198.013 158.187 198.158C160.039 198.303 167.42 215.727 168.497 219.297C168.884 220.616 174.668 222.358 172.611 214.953C170.421 207.076 165.351 192.447 164.576 187.353C163.802 182.259 168.206 173.607 170.191 171.127C172.175 168.646 175.793 169.711 178.576 168.477C181.359 167.243 185.122 165.161 183.731 161.289C182.339 157.417 179.145 160.781 175.127 160.624C171.11 160.467 170.554 152.493 162.616 157.538C161.067 158.456 159.765 159.738 158.825 161.273C157.884 162.808 157.333 164.55 157.219 166.347C156.797 169.963 155.583 173.442 153.662 176.535C152.452 178.229 131.108 178.544 124.465 178.859C117.822 179.173 114.894 185.344 114.422 189.035C114.277 190.245 115.039 197.589 114.119 201.97C112.183 211.141 106.968 219.841 110.417 220.821C112.51 221.414 113.454 216.635 115.668 212.884C118.754 207.632 120.508 201.619 121.065 200.784C124.465 196.161 125.239 192.713 128.639 193.935Z" fill="#FFCCB8"/>
<path d="M128.639 193.935C137.484 197.142 148.568 197.384 149.342 198.013C150.117 198.642 148.483 212.944 147.564 217.107C146.644 221.269 148.52 223.689 151.811 220.204C155.102 216.719 156.336 198.013 158.187 198.158C160.039 198.303 167.42 215.727 168.497 219.297C168.884 220.616 174.668 222.358 172.611 214.953C170.421 207.076 165.351 192.447 164.576 187.353C163.802 182.259 168.206 173.607 170.191 171.127C172.175 168.646 175.793 169.711 178.576 168.477C181.359 167.243 185.122 165.161 183.731 161.289C182.339 157.417 179.145 160.781 175.127 160.624C171.11 160.467 170.554 152.493 162.616 157.538C161.067 158.456 159.765 159.738 158.825 161.273C157.884 162.808 157.333 164.55 157.219 166.347C156.797 169.963 155.583 173.442 153.662 176.535C152.452 178.229 131.108 178.544 124.465 178.859C117.822 179.173 114.894 185.344 114.422 189.035C114.277 190.245 115.039 197.589 114.119 201.97C112.183 211.141 106.968 219.841 110.417 220.821C112.51 221.414 113.454 216.635 115.668 212.884C118.754 207.632 120.508 201.619 121.065 200.784C124.465 196.161 125.239 192.713 128.639 193.935Z" stroke="#074C93" stroke-width="1.21" stroke-miterlimit="10"/>
<path d="M243.976 19.2825C246.651 28.8415 239.028 28.8899 236.716 30.1725C234.405 31.4551 228.44 31.5398 228.029 38.2916C227.617 45.0434 230.848 50.5973 224.471 54.2999C218.095 58.0025 225.681 67.4768 218.905 73.2485C212.129 79.0202 203.199 76.5397 206.249 64.2098C209.298 51.8799 218.191 52.5696 215.929 43.0953C214.74 38.5543 214.761 33.7811 215.99 29.2508C217.219 24.7205 219.613 20.5912 222.935 17.2739C231.852 8.6708 242.549 14.14 243.976 19.2825Z" fill="#074C93" stroke="#204484" stroke-width="0.9075" stroke-miterlimit="10"/>
<path d="M233.836 125.098C236.607 130.349 238.869 129.938 239.366 133.749C239.862 137.561 239.91 138.589 235.554 139.932C231.198 141.275 225.874 140.102 226.419 137.307C226.963 134.511 224.567 127.046 227.193 126.308C229.379 125.76 231.598 125.356 233.836 125.098Z" fill="white" stroke="#074C93" stroke-width="1.21" stroke-miterlimit="10"/>
<path d="M100.254 99.3125H63.5786C55.5594 99.3125 49.0586 105.813 49.0586 113.832V121.915C49.0586 129.934 55.5594 136.435 63.5786 136.435H100.254C108.273 136.435 114.774 129.934 114.774 121.915V113.832C114.774 105.813 108.273 99.3125 100.254 99.3125Z" fill="#FFCCB8" stroke="#074C93" stroke-width="0.9075" stroke-miterlimit="10"/>
<path d="M400.852 61.7786H364.177C356.157 61.7786 349.657 68.2794 349.657 76.2986V84.3814C349.657 92.4005 356.157 98.9014 364.177 98.9014H400.852C408.871 98.9014 415.372 92.4005 415.372 84.3814V76.2986C415.372 68.2794 408.871 61.7786 400.852 61.7786Z" fill="#FFCCB8" stroke="#074C93" stroke-width="0.9075" stroke-miterlimit="10"/>
<path d="M181.722 27.2685H145.047C137.028 27.2685 130.527 33.7693 130.527 41.7885V49.8713C130.527 57.8905 137.028 64.3913 145.047 64.3913H181.722C189.742 64.3913 196.242 57.8905 196.242 49.8713V41.7885C196.242 33.7693 189.742 27.2685 181.722 27.2685Z" fill="#FFCCB8" stroke="#074C93" stroke-width="0.9075" stroke-miterlimit="10"/>
<path d="M86.1065 106.759L85.9129 107.776C87.2973 108.162 88.6064 108.78 89.7849 109.603C89.984 109.743 90.1515 109.923 90.2767 110.132C90.4018 110.341 90.4818 110.574 90.5115 110.815C90.5411 111.057 90.5198 111.302 90.4488 111.535C90.3778 111.768 90.2588 111.984 90.0994 112.168C89.8227 112.487 89.4385 112.695 89.0194 112.75C88.6003 112.806 88.1753 112.707 87.8247 112.47C87.037 111.921 86.178 111.481 85.2716 111.164L84.4488 115.544C87.7279 116.754 90.0631 118.678 89.3976 121.799C88.6837 125.187 85.7677 126.543 82.4281 126.41L82.1982 127.62C82.1163 128.017 81.8815 128.367 81.5442 128.593C81.207 128.82 80.7944 128.904 80.3953 128.83C79.9949 128.748 79.6432 128.511 79.4165 128.171C79.1899 127.831 79.1068 127.415 79.1853 127.015L79.4031 125.889C77.7144 125.444 76.1199 124.698 74.6962 123.687C74.4982 123.535 74.3343 123.343 74.2153 123.124C74.0963 122.905 74.0248 122.663 74.0054 122.414C73.986 122.165 74.0191 121.915 74.1027 121.68C74.1863 121.445 74.3184 121.23 74.4905 121.049C74.7975 120.72 75.218 120.519 75.6671 120.488C76.1162 120.457 76.5605 120.597 76.9105 120.88C77.8512 121.603 78.9064 122.163 80.0323 122.538L80.8551 118.109H80.7099C77.4429 116.899 75.277 115.023 75.9667 111.756C76.6564 108.489 79.4273 107.11 82.9 107.279L83.0936 106.239C83.1753 105.839 83.412 105.487 83.7519 105.26C84.0919 105.033 84.5076 104.95 84.9086 105.029C85.2895 105.113 85.6244 105.338 85.8465 105.659C86.0686 105.98 86.1614 106.373 86.1065 106.759ZM81.4964 114.455L82.2103 110.655C80.8672 110.655 79.9476 111.26 79.7903 112.24C79.633 113.221 80.2138 113.862 81.4964 114.455ZM83.7591 119.21L83.0452 123.022C84.3762 122.949 85.3442 122.441 85.562 121.412C85.7798 120.384 85.0901 119.815 83.7591 119.21Z" fill="white"/>
<path d="M159.346 35.8484L159.855 36.7559C161.165 36.168 162.563 35.8001 163.993 35.6669C164.236 35.6484 164.481 35.6808 164.711 35.7622C164.941 35.8436 165.152 35.9721 165.329 36.1395C165.507 36.3069 165.648 36.5095 165.743 36.7344C165.837 36.9593 165.884 37.2016 165.88 37.4456C165.874 37.8685 165.713 38.2743 165.427 38.5864C165.142 38.8985 164.752 39.0953 164.332 39.1396C163.376 39.2142 162.435 39.4219 161.536 39.7567L163.714 43.6529C166.969 42.4429 170.031 42.4429 171.531 45.2864C173.14 48.3356 171.749 51.2759 169.111 53.2845L169.704 54.3493C169.805 54.5271 169.87 54.7231 169.894 54.926C169.919 55.1289 169.904 55.3347 169.848 55.5316C169.793 55.7284 169.7 55.9124 169.573 56.0729C169.447 56.2334 169.29 56.3673 169.111 56.4668C168.75 56.6664 168.324 56.7148 167.927 56.6014C167.531 56.488 167.195 56.2221 166.994 55.8618L166.437 54.8696C164.858 55.5976 163.161 56.0362 161.428 56.1643C161.178 56.1769 160.929 56.1364 160.696 56.0455C160.463 55.9546 160.252 55.8154 160.077 55.637C159.902 55.4586 159.767 55.2451 159.681 55.0106C159.594 54.7761 159.559 54.526 159.576 54.2767C159.606 53.8365 159.798 53.4231 160.116 53.1168C160.433 52.8104 160.853 52.633 161.294 52.619C162.48 52.5672 163.649 52.3219 164.755 51.893L162.553 47.9605H162.408C159.141 49.1705 156.261 49.0737 154.688 46.1334C153.115 43.1931 154.373 40.3496 157.108 38.2563L156.588 37.3246C156.487 37.1469 156.422 36.9509 156.397 36.748C156.372 36.5451 156.388 36.3393 156.443 36.1424C156.498 35.9456 156.592 35.7616 156.718 35.6011C156.845 35.4405 157.002 35.3067 157.18 35.2071C157.364 35.102 157.566 35.0351 157.776 35.0106C157.986 34.986 158.198 35.0042 158.401 35.0642C158.603 35.1242 158.791 35.2246 158.954 35.3594C159.116 35.4942 159.25 35.6605 159.346 35.8484ZM160.75 44.7056L158.862 41.3418C157.87 42.2493 157.507 43.2536 157.979 44.149C158.451 45.0444 159.383 45.0686 160.75 44.7056ZM165.59 46.9078L167.49 50.2837C168.458 49.3883 168.869 48.3719 168.385 47.4402C167.901 46.5085 166.945 46.5327 165.529 46.9078H165.59Z" fill="white"/>
<path d="M379.346 69.8578L379.855 70.7532C381.165 70.1688 382.563 69.805 383.993 69.6763C384.235 69.656 384.48 69.6868 384.71 69.7667C384.94 69.8467 385.151 69.974 385.329 70.1405C385.507 70.3069 385.648 70.5089 385.743 70.7332C385.838 70.9576 385.885 71.1993 385.88 71.4429C385.874 71.8658 385.713 72.2716 385.427 72.5837C385.142 72.8958 384.752 73.0926 384.332 73.1369C383.376 73.2215 382.436 73.4331 381.536 73.7661L383.714 77.6623C386.969 76.4523 390.031 76.4523 391.531 79.2837C393.14 82.345 391.749 85.3337 389.111 87.2818L389.704 88.3466C389.805 88.5244 389.87 88.7204 389.894 88.9233C389.919 89.1262 389.904 89.332 389.848 89.5288C389.793 89.7257 389.7 89.9097 389.573 90.0702C389.447 90.2307 389.29 90.3646 389.111 90.4641C388.933 90.565 388.737 90.6298 388.534 90.6546C388.331 90.6794 388.126 90.6638 387.929 90.6087C387.732 90.5535 387.548 90.46 387.387 90.3334C387.227 90.2069 387.093 90.0498 386.993 89.8712L386.437 88.8669C384.858 89.5949 383.161 90.0334 381.427 90.1616C381.178 90.1742 380.929 90.1337 380.696 90.0428C380.463 89.9519 380.252 89.8126 380.077 89.6342C379.902 89.4559 379.767 89.2424 379.681 89.0079C379.594 88.7734 379.559 88.5233 379.576 88.274C379.606 87.8338 379.798 87.4204 380.116 87.1141C380.433 86.8077 380.853 86.6303 381.294 86.6163C382.481 86.5707 383.651 86.3253 384.755 85.8903L382.553 81.9578H382.408C379.153 83.1678 376.261 83.0831 374.688 80.1428C373.115 77.2025 374.373 74.3469 377.108 72.2536L376.587 71.3219C376.487 71.1441 376.422 70.9482 376.397 70.7453C376.372 70.5423 376.388 70.3365 376.443 70.1397C376.498 69.9428 376.592 69.7589 376.718 69.5983C376.845 69.4378 377.002 69.3039 377.18 69.2044C377.364 69.0997 377.568 69.0335 377.778 69.0098C377.988 68.9861 378.201 69.0054 378.404 69.0665C378.606 69.1276 378.794 69.2293 378.956 69.3653C379.118 69.5013 379.251 69.6689 379.346 69.8578ZM380.75 78.715L378.862 75.3391C377.87 76.2466 377.507 77.2509 377.979 78.1463C378.451 79.0417 379.383 79.078 380.75 78.715ZM385.59 80.9051L387.477 84.2931C388.458 83.3856 388.857 82.3813 388.373 81.4496C387.889 80.5179 386.945 80.53 385.542 80.9051H385.59Z" fill="white"/>
<path d="M441.894 220.917H32.249" stroke="#074C93" stroke-width="1.21" stroke-miterlimit="10"/>
<path d="M319.593 108.424C306.694 108.497 307.565 120.343 309.61 121.795C308.836 115.091 297.982 118.407 299.023 124.215C292.573 123.585 274.085 129.405 286.548 130.023C299.011 130.64 338.916 130.023 345.559 130.023C352.202 130.023 350.339 126.695 343.067 125.86C343.384 124.534 343.274 123.141 342.752 121.881C342.231 120.62 341.324 119.557 340.163 118.842C336 116.108 333.302 121.783 333.302 121.783C333.302 121.783 332.261 108.351 319.593 108.424Z" fill="white"/>
<path d="M34.8251 56.5509C25.5928 56.5509 26.2099 65.0209 27.674 66.122C27.1174 61.282 19.3371 63.702 20.0873 67.8644C15.4651 67.4167 2.22771 71.5791 11.1575 72.0268C20.0873 72.4745 48.6675 72.0268 53.4228 72.0268C58.1781 72.0268 56.8471 69.6068 51.6441 69.0502C51.8681 68.0977 51.7864 67.0988 51.4106 66.1953C51.0349 65.2917 50.3842 64.5295 49.5508 64.0166C46.5742 62.0564 44.7108 66.122 44.7108 66.122C44.7108 66.122 43.9001 56.5025 34.8251 56.5509Z" fill="white"/>
<path d="M356.833 284.564C391.984 284.564 420.479 256.069 420.479 220.918C420.479 185.767 391.984 157.272 356.833 157.272C321.683 157.272 293.187 185.767 293.187 220.918C293.187 256.069 321.683 284.564 356.833 284.564Z" fill="white" stroke="#074C93" stroke-width="1.21" stroke-miterlimit="10"/>
<path d="M356.848 272.464C385.316 272.464 408.394 249.386 408.394 220.918C408.394 192.45 385.316 169.372 356.848 169.372C328.379 169.372 305.302 192.45 305.302 220.918C305.302 249.386 328.379 272.464 356.848 272.464Z" fill="white" stroke="#074C93" stroke-width="4.84" stroke-miterlimit="10" stroke-dasharray="1.21 24.2"/>
<path d="M356.844 220.918L389.066 197.081" stroke="#074C93" stroke-width="2.42" stroke-miterlimit="10"/>
<path d="M356.834 220.917L338.926 196.62" stroke="#074C93" stroke-width="2.42" stroke-miterlimit="10"/>
<path d="M356.841 225.189C359.2 225.189 361.113 223.277 361.113 220.918C361.113 218.559 359.2 216.647 356.841 216.647C354.483 216.647 352.57 218.559 352.57 220.918C352.57 223.277 354.483 225.189 356.841 225.189Z" fill="#FFCCB8" stroke="#074C93" stroke-width="1.21" stroke-miterlimit="10"/>
</svg>
