<svg width="19" height="20" viewBox="0 0 19 20" fill="none" xmlns="http://www.w3.org/2000/svg">
<path d="M12.3028 12.2317L12.6954 9.67192H10.2394V8.01079C10.2394 7.31048 10.5825 6.62787 11.6825 6.62787H12.7992V4.44861C12.7992 4.44861 11.7858 4.27565 10.8169 4.27565C8.79413 4.27565 7.47208 5.50157 7.47208 7.72096V9.67192H5.22363V12.2317H7.47208V18.4198C7.92293 18.4905 8.38502 18.5273 8.85574 18.5273C9.32646 18.5273 9.78855 18.4905 10.2394 18.4198V12.2317H12.3028Z" fill="#074C93"/>
<path d="M17.7108 9.67208C17.7108 4.78136 13.7461 0.816662 8.85542 0.816662C3.9647 0.816662 0 4.78136 0 9.67208C0 14.0921 3.2383 17.7556 7.47176 18.4199V12.2319H5.22331V9.67208H7.47176V7.72112C7.47176 5.50173 8.79381 4.27581 10.8166 4.27581C11.7854 4.27581 12.7988 4.44877 12.7988 4.44877V6.62803H11.6822C10.5821 6.62803 10.2391 7.31064 10.2391 8.01095V9.67208H12.6951L12.3025 12.2319H10.2391V18.4199C14.4725 17.7556 17.7108 14.0921 17.7108 9.67208Z" fill="white"/>
</svg>
