<svg width="142" height="27" viewBox="0 0 142 27" fill="none" xmlns="http://www.w3.org/2000/svg">
<path fill-rule="evenodd" clip-rule="evenodd" d="M17.8215 3.7948V0C17.8215 0 8.4642 0.00266489 8.3807 0.00621807C7.4428 0.038877 6.51857 0.241119 5.65275 0.603153C4.43921 1.1149 3.37289 1.92196 2.55082 2.95092C1.7339 3.9764 1.17274 5.18155 0.913689 6.46679C0.668539 7.69778 0.70223 8.96805 1.01229 10.1843C1.29923 11.3034 1.81928 12.3492 2.53838 13.2534C3.28744 14.1958 4.24131 14.9553 5.32763 15.4741C6.50595 16.0367 7.80873 16.2881 9.11177 16.2043C10.0421 16.1403 10.9537 15.9117 11.8042 15.5292L11.8433 15.5114L11.8895 15.4892C12.1954 15.3461 12.4918 15.1835 12.7769 15.0024C12.8364 14.9651 12.8941 14.926 12.9528 14.8878L12.9705 14.8754L12.9723 14.8745L12.9901 14.8612C13.8653 14.2618 14.6134 13.4953 15.1913 12.6058C15.3125 12.4198 15.4251 12.2283 15.5288 12.032C15.9373 11.261 16.2232 10.4312 16.3762 9.57227C16.637 8.09904 16.4997 6.58289 15.9783 5.18054C15.8312 4.7822 15.6505 4.39707 15.4382 4.02931C15.4036 3.97068 15.3138 3.8481 15.2819 3.79391H17.8215V3.7948ZM8.63298 12.4397H8.62854C6.30831 12.4397 4.42867 10.5041 4.42867 8.11724C4.42867 5.72951 6.30831 3.7948 8.62854 3.7948C8.66584 3.7948 8.70404 3.7948 8.74046 3.79746H8.75823C9.09939 3.80753 9.43788 3.86096 9.76555 3.95647C11.5333 4.46635 12.8284 6.13546 12.8284 8.11724C12.8284 10.3362 11.2028 12.1661 9.10999 12.4104L9.00073 12.4228H8.99807C8.89942 12.432 8.80044 12.4373 8.70138 12.4388L8.63298 12.4397Z" fill="#29AA6B"/>
<path fill-rule="evenodd" clip-rule="evenodd" d="M8.73905 26.6212C3.92094 26.6212 0 22.5865 0 17.6272C0 15.8497 0.503664 14.1904 1.3733 12.7948C2.22607 14.249 3.18632 15.0582 4.10215 15.5965C3.83499 16.2401 3.69792 16.9303 3.69886 17.6272C3.69886 20.4875 5.96046 22.8148 8.73905 22.8148C11.5194 22.8148 13.7792 20.4875 13.7792 17.6272C13.7817 16.6497 13.5116 15.6909 12.9993 14.8584C12.1101 13.4131 10.545 12.4493 8.76392 12.4404H8.69464L8.58626 12.4422C6.80879 12.4253 5.29513 11.2732 4.69908 9.65472C5.93982 8.9835 7.32839 8.63239 8.73905 8.63318C10.0775 8.63203 11.3971 8.94801 12.5898 9.55523C13.7438 10.1419 14.7541 10.976 15.5487 11.998C16.8039 13.6055 17.4833 15.5877 17.4781 17.6272C17.4781 22.5865 13.5581 26.6212 8.73905 26.6212Z" fill="#008EB1"/>
<path fill-rule="evenodd" clip-rule="evenodd" d="M16.1145 5.59614C14.5458 4.86063 11.9431 4.26103 9.76496 3.95723C9.43558 3.8611 9.09528 3.80737 8.75231 3.79734L15.2759 3.79556C15.3088 3.84886 15.3976 3.97322 15.4323 4.03185C15.6455 4.39694 15.8231 4.78424 15.9724 5.18219C16.023 5.31899 16.0701 5.45756 16.1145 5.59614ZM12.9948 14.8548C12.9918 14.8578 12.9885 14.8605 12.985 14.8628L12.9664 14.8762H12.9646L12.946 14.8895C12.8873 14.9277 12.8305 14.9668 12.7701 15.005C12.4853 15.1857 12.1891 15.348 11.8835 15.4909C11.4536 14.4489 10.2873 13.1076 8.78517 12.4769L8.69812 12.4413C8.72713 12.4405 8.75616 12.4405 8.78517 12.4413C10.5573 12.4564 12.1074 13.4158 12.9939 14.8548" fill="#0D7B4D"/>
<path fill-rule="evenodd" clip-rule="evenodd" d="M35.7732 12.4203V16.0907H40.1232C39.4872 17.854 37.7843 19.3401 35.2971 19.3401C31.7812 19.3401 29.5916 16.6645 29.5916 13.5484C29.5916 9.67631 32.0246 7.28502 35.4357 7.28502C36.8436 7.28502 38.6664 7.69008 39.743 9.45423H44.0992C42.7401 5.44358 39.1292 3.46979 35.3797 3.46979C29.9433 3.46979 25.6422 7.58881 25.6422 13.5759C25.6422 18.8098 29.644 23.182 35.2713 23.182C37.8074 23.182 39.7057 22.3114 40.9786 20.9283V22.7911H44.5647V12.4211H35.7732V12.4203ZM55.966 18.0298C55.0999 19.1162 54.0721 19.6998 53.1252 19.6998C51.3664 19.6998 50.3386 18.5593 50.3386 16.4433V9.45423H46.5776V16.8049C46.5776 20.6752 48.8498 23.2095 52.2582 23.2095C53.7195 23.2095 54.9098 22.7076 55.9651 21.8442V22.7911H59.7252V9.45423H55.9651V18.0298H55.966ZM71.4792 10.235C70.478 9.56616 69.2611 9.1762 67.7998 9.1762C64.2289 9.1762 61.3339 12.2106 61.3339 16.1369C61.3339 20.0072 64.2289 23.0691 67.7998 23.0691C69.2611 23.0691 70.478 22.6801 71.4792 22.0121V22.7911H75.2393V9.45423H71.4792V10.2342V10.235ZM71.4792 18.2528C70.6406 19.3943 69.5311 19.7842 68.4216 19.7842C66.447 19.7842 65.0674 18.0858 65.0674 16.1369C65.0674 14.1595 66.447 12.4336 68.4216 12.4336C69.532 12.4336 70.6406 12.8235 71.4792 13.9934V18.2528ZM81.3455 9.45423H77.5844V22.7911H81.3446V14.8275C82.4265 13.6017 83.8611 12.9888 85.89 12.9062V9.23127C83.9686 9.23127 82.5082 9.8442 81.3446 10.9581V9.45335L81.3455 9.45423ZM96.3843 10.235C95.3832 9.56616 94.1662 9.1762 92.7059 9.1762C89.1349 9.1762 86.2391 12.239 86.2391 16.1093C86.2391 20.0347 89.1349 23.0691 92.7059 23.0691C94.1662 23.0691 95.3832 22.6801 96.3852 22.0121V22.7911H100.145V3.73983H96.3852V10.2342L96.3843 10.235ZM96.3843 18.2528C95.5457 19.4218 94.4371 19.8118 93.3277 19.8118C91.353 19.8118 89.9726 18.0858 89.9726 16.1093C89.9726 14.1595 91.353 12.462 93.3277 12.462C94.4371 12.462 95.5457 12.8511 96.3852 13.9934V18.2528H96.3843ZM118.458 10.235C117.456 9.56616 116.239 9.1762 114.778 9.1762C111.207 9.1762 108.312 12.2106 108.312 16.1369C108.312 20.0072 111.207 23.0691 114.779 23.0691C116.239 23.0691 117.456 22.6801 118.458 22.0121V22.7911H122.218V9.45423H118.458V10.2342L118.458 10.235ZM118.458 18.2528C117.619 19.3943 116.51 19.7842 115.401 19.7842C113.426 19.7842 112.046 18.0858 112.046 16.1369C112.046 14.1595 113.426 12.4336 115.401 12.4336C116.51 12.4336 117.619 12.8235 118.458 13.9934V18.2528H118.458ZM131.915 9.03673C130.454 9.03673 129.264 9.53773 128.208 10.4012V9.45335H124.448V22.7902H128.208V14.2146C129.074 13.1291 130.102 12.5446 131.049 12.5446C132.808 12.5446 133.836 13.6861 133.836 15.802V22.7902H137.597V15.468C137.597 11.5693 135.324 9.03673 131.915 9.03673ZM102.788 22.7911H106.548V9.45335H102.788V22.7911ZM102.788 7.61013H106.548V3.74161H102.788V7.61013ZM142 8.49576C142 9.26236 141.387 9.83531 140.659 9.83531C139.931 9.83531 139.319 9.26236 139.319 8.49576C139.319 7.73005 139.931 7.15088 140.66 7.15088C141.388 7.15088 142 7.73005 142 8.49576ZM141.702 8.49576C141.703 8.21503 141.594 7.94497 141.398 7.74423C141.202 7.54348 140.934 7.42826 140.653 7.42359C140.096 7.42359 139.611 7.89439 139.611 8.49576C139.611 9.09181 140.096 9.55728 140.653 9.55728C141.217 9.55728 141.702 9.09181 141.702 8.49576ZM140.902 8.65566L141.227 9.08648H140.952L140.649 8.68319H140.433V9.08648H140.218V7.84287H140.725C140.99 7.84287 141.189 8.01342 141.189 8.26925C141.189 8.46201 141.074 8.59792 140.902 8.65477V8.65566ZM140.72 8.47889C140.864 8.47889 140.963 8.39361 140.963 8.26303C140.963 8.13867 140.864 8.05339 140.72 8.05339H140.433V8.47977H140.72V8.47889Z" fill="#123F50"/>
</svg>
