<svg width="357" height="361" viewBox="0 0 357 361" fill="none" xmlns="http://www.w3.org/2000/svg">
<rect width="357" height="360" fill="#F5F5F5"/>
<path d="M178 355C269.679 355 344 280.679 344 189C344 97.3207 269.679 23 178 23C86.3207 23 12 97.3207 12 189C12 280.679 86.3207 355 178 355Z" fill="#D0E2EA"/>
<path d="M102.085 199.514C94.4377 217.365 89.2473 236.129 93.0986 243.837L69.9685 360.041H184.551V174.817L170.241 163.197L102.085 199.514Z" fill="#3F8263"/>
<path d="M160.17 139.508C147.443 130.688 124.07 126.095 124.07 126.095L116.533 177.728L126.875 189.349C130.489 188.795 143.288 189.747 151.848 176.007C151.903 175.919 156.186 173.102 156.242 173.019L160.17 139.508Z" fill="#8D393A"/>
<path d="M130.29 142.219C130.732 141.77 131.078 141.235 131.307 140.647C131.535 140.059 131.641 139.43 131.618 138.8L131.496 133.864C131.529 133.82 137.583 127.367 137.638 127.318L139.99 102.943L75.0097 116.942C74.4563 117.291 75.1259 122.254 75.1812 123.029C75.5354 127.816 76.5369 132.707 79.0879 136.863C80.7479 139.602 83.7637 141.185 85.136 144.117C86.5581 147.161 86.5471 150.857 86.9289 154.144C87.2111 156.579 87.3937 159.03 87.5929 161.471C87.6697 162.707 88.2206 163.866 89.1308 164.706C90.0411 165.546 91.2405 166.003 92.479 165.98C93.6964 165.919 94.3272 165.427 95.5003 164.475L96.9224 163.236C97.3822 163.971 97.773 164.747 98.09 165.554C98.2449 166.041 98.6433 167.347 99.0473 168.581C99.2562 169.238 99.6906 169.8 100.274 170.168C100.857 170.535 101.552 170.685 102.235 170.59C102.655 170.522 103.054 170.359 103.402 170.114L104.05 169.848C103.159 172.809 103.635 173.722 104.481 174.231C106.606 175.553 107.563 174.319 108.006 174.054C108.332 173.937 108.687 173.928 109.018 174.028C109.35 174.127 109.641 174.33 109.849 174.607C109.997 174.859 110.113 175.128 110.192 175.409C110.646 176.975 111.885 180.008 115.371 180.771C118.857 181.535 132.243 168.924 132.243 168.924C136.482 164.785 137.278 158.964 134.799 153.087L130.29 142.219Z" fill="#9B4040"/>
<path d="M162.107 135.275C163.767 130.599 165.427 125.785 165.499 125.27C167.109 114.574 164.522 103.669 158.278 94.836C155.439 90.791 151.278 88.0629 148.412 84.1729C145.961 80.8528 144.273 76.5809 140.549 74.4173C136.371 71.9881 130.788 73.1888 126.084 72.2371C121.381 71.2853 116.733 67.9873 111.902 68.6181C107.243 69.2213 103.369 73.5983 98.8648 75.773C94.3605 77.9477 88.7163 78.2409 85.2468 81.5887C82.7678 83.9847 81.6777 87.5428 80.4658 90.9514C79.6417 93.2557 78.2119 95.2952 76.3268 96.8557C72.326 100.176 70.3672 102.622 69.4652 104.365C67.835 107.102 67.0524 110.262 67.2163 113.444C67.3801 116.626 68.4831 119.688 70.3858 122.244C72.2886 124.799 74.9059 126.734 77.9073 127.804C80.9087 128.873 84.1597 129.03 87.2499 128.253C91.0625 127.296 97.8522 121.192 99.977 118.293C99.7723 123.162 103.679 129.62 106.778 133.382H106.816C109.504 133.281 112.082 132.293 114.148 130.571C113.352 128.721 113.184 126.66 113.672 124.706C113.97 123.496 114.534 122.368 115.324 121.405C116.114 120.442 117.11 119.668 118.238 119.139C124.114 116.372 131.164 120.877 131.335 127.55L131.507 133.864C131.767 144.228 143.57 152.468 154.676 152.468C157.929 152.47 161.149 151.808 164.138 150.523C167.126 149.237 169.821 147.355 172.057 144.992C172.095 144.936 165.499 138.562 162.107 135.275Z" fill="#062434"/>
<path d="M98.7152 164.767L98.7957 164.8V164.725L98.7152 164.767Z" fill="#AC748C"/>
<path d="M218.709 218.106C218.709 218.106 186.189 205.728 183.804 206.253L175.924 208.334C175.621 208.414 175.339 208.557 175.096 208.753C174.853 208.95 174.654 209.196 174.513 209.476C174.371 209.755 174.291 210.061 174.277 210.373C174.263 210.686 174.315 210.998 174.43 211.289C175.701 214.441 176.645 217.716 177.246 221.061C178.298 228.221 176.87 232.61 174.541 239.416C174.358 239.969 174.164 240.495 173.987 241.026C171.148 248.69 163.883 260.836 157.519 271.411C154.598 276.269 153.945 281.221 154.172 287.596C154.531 297.623 158.504 360.085 158.504 360.085H218.709V218.106Z" fill="white"/>
<path d="M210.709 125.519C203.26 123.002 200.128 121.402 192.304 121.707C184.701 122 171.83 123.638 165.101 127.395C162.777 128.633 160.66 130.226 158.826 132.115L158.566 132.37C157.222 133.775 151.373 140.886 155.429 152.456C155.456 152.379 181.16 206.951 181.16 206.951C181.888 213.271 184.676 219.176 189.095 223.753C193.513 228.331 199.316 231.326 205.607 232.277L226.806 220.585L236.45 151.538C232.682 139.281 222.849 129.62 210.709 125.519Z" fill="#0E3F5E"/>
<path d="M195.58 172.034C195.177 170.4 194.195 168.967 192.817 168.002C191.439 167.036 189.757 166.603 188.083 166.783C186.41 166.962 184.859 167.743 183.717 168.979C182.575 170.215 181.92 171.824 181.873 173.506C167.879 167.087 160.923 150.608 159.186 144.234C159.13 144.311 154.493 153.917 153.707 157.16C153.201 159.118 153.014 161.146 153.154 163.164C153.326 165.172 153.779 167.153 153.829 169.179C153.945 173.921 150.105 179.139 147.189 181.856C145.861 183.084 145.916 184.352 146.89 185.602C147.316 186.127 147.84 186.563 148.434 186.886L150 187.766C150.152 187.847 150.285 187.96 150.39 188.097C150.494 188.235 150.566 188.394 150.603 188.562C150.639 188.731 150.638 188.906 150.6 189.074C150.562 189.242 150.487 189.4 150.382 189.536L148.866 191.927C148.787 192.479 148.888 193.042 149.153 193.532C149.241 193.676 149.351 193.804 149.48 193.914C149.873 194.206 150.339 194.385 150.826 194.431C151.314 194.478 151.805 194.391 152.247 194.179C152.424 194.113 152.147 194.151 152.247 194.179C151.289 194.732 149.618 195.745 149.917 197.084C150.017 197.555 150.426 197.859 150.747 198.191C150.747 198.191 152.562 200.039 153.032 200.598C153.851 201.577 153.824 202.773 153.486 203.918C152.075 208.765 156.408 213.724 165.178 211.15L181.065 206.956C180.971 205.988 180.91 205.008 180.91 204.012C180.903 199.037 182.186 194.145 184.634 189.813C186.465 189.554 188.19 188.803 189.628 187.64C191.065 186.478 192.16 184.947 192.796 183.212L195.325 176.306C195.364 176.212 195.391 176.112 195.425 176.018C195.871 174.735 195.925 173.348 195.58 172.034Z" fill="#EE907B"/>
<path d="M270.149 160.641C270.149 160.641 260.482 147.886 259.984 147.36C258.324 145.634 261.257 135.131 260.742 132.862C259.765 128.557 258.787 124.254 257.81 119.953L250.312 121.895L203.277 166.871C203.944 167.135 204.668 167.225 205.38 167.131C205.38 167.131 215.274 167.203 215.987 167.131C224.171 166.639 228.781 171.885 229.738 175.515C230.098 176.865 230.435 178.016 230.806 179.045L267.975 162.179C268.62 161.562 269.353 161.043 270.149 160.641Z" fill="#E09584"/>
<path d="M315.009 245.442C314.395 236.14 313.438 226.462 311.136 217.221C308.773 207.842 304.844 199.066 298.785 191.474C294.098 185.608 288.437 180.639 283.225 175.266C277.691 169.578 273.685 163.535 270.099 156.496L269.972 156.253L269.535 155.395C269.265 154.87 268.891 154.404 268.437 154.027C267.983 153.65 267.457 153.368 266.891 153.199C266.325 153.03 265.731 152.977 265.144 153.044C264.557 153.11 263.989 153.294 263.476 153.586C257.688 156.85 239.128 167.22 226.86 174.098C226.102 174.519 225.517 175.193 225.208 176.003C224.899 176.814 224.886 177.707 225.173 178.525C225.56 179.671 225.831 180.462 225.903 180.683C226.503 182.624 226.52 184.698 225.953 186.648C220.674 204.964 199.027 253.897 199.027 253.897C199.027 253.897 174.524 299.671 179.532 360.069H320.764C319.585 313.615 316.393 266.469 315.009 245.442Z" fill="#F27F7D"/>
<path d="M267 87.6867C266.276 81.5224 259.807 76.7414 254.932 73.6925C252.85 72.3991 250.646 71.313 248.353 70.4498C235.963 65.7519 221.122 66.7202 209.408 73.2166C202.144 77.2513 196.411 83.5655 193.095 91.1839C191.455 95.0099 190.518 99.0999 190.328 103.258C190.177 105.303 190.296 107.359 190.682 109.373C191.202 111.636 192.597 113.639 192.243 116.057C191.573 120.611 189.326 125.182 187.174 129.194C185.619 132.088 182.747 134.937 185.409 138.562C186.665 140.277 188.696 140.305 190.721 140.443C191.003 140.471 193.222 140.504 195.148 140.537C195.314 140.542 195.478 140.582 195.627 140.656C195.777 140.73 195.909 140.835 196.014 140.964C196.119 141.093 196.195 141.244 196.236 141.405C196.278 141.566 196.284 141.735 196.254 141.899L195.751 144.488C195.64 145.473 196.614 146.397 197.605 146.486C198.687 146.531 199.771 146.453 200.836 146.253L198.191 147.211C197.929 147.305 197.695 147.461 197.508 147.667C197.321 147.873 197.188 148.122 197.12 148.392C197.053 148.661 197.052 148.944 197.119 149.213C197.186 149.483 197.319 149.732 197.505 149.939L198.014 150.492C199.082 151.732 199.979 153.115 199.907 154.83C199.796 155.737 199.611 156.633 199.353 157.509C199.14 158.395 199.008 159.299 198.96 160.209C198.892 161.644 199.246 163.068 199.979 164.304C200.747 165.527 201.923 166.441 203.299 166.882C206.132 167.773 208.771 166.174 211.328 165.156L218.123 162.461L219.412 161.947L229.732 157.857L229.915 157.785C232.052 156.939 233.945 155.574 235.422 153.813C236.899 152.051 237.914 149.95 238.376 147.698L240.318 138.213C240.759 138.271 241.205 138.271 241.646 138.213C241.957 138.182 242.265 138.121 242.564 138.031C243.336 137.793 244.045 137.385 244.639 136.837C245.233 136.29 245.696 135.616 245.995 134.866L250.422 124.13L257.461 123.173L256.293 112.084C255.502 104.547 267.886 95.2234 267 87.6867Z" fill="#EEAC99"/>
<path d="M272.816 97.0883C272.422 95.6496 271.984 94.233 271.505 92.8386C267.554 81.4617 260.283 76.238 249.653 79.0048H249.603C248.602 79.2704 234.004 84.1288 234.004 84.1288C221.664 88.6442 216.441 101.952 222.439 113.102L227.01 121.591V121.629C227.539 122.68 228.373 123.546 229.403 124.114C230.433 124.682 231.611 124.925 232.781 124.811L231.675 121.226C231.151 119.552 231.041 117.777 231.352 116.051C231.663 114.325 232.387 112.7 233.462 111.315C234.353 110.161 235.491 109.221 236.792 108.562C238.093 107.904 239.524 107.543 240.982 107.508C248.596 107.32 253.98 115.515 250.992 122.731L247.257 131.756C247.641 135.312 249.048 138.682 251.307 141.456C253.565 144.23 256.579 146.29 259.984 147.388C261.262 147.797 266.569 140.106 267.15 139.281C275.76 127.063 276.64 111.193 272.816 97.0883Z" fill="white"/>
<path d="M83.52 185.32C83.3343 185.243 83.1342 185.208 82.9334 185.216C82.7327 185.224 82.5361 185.276 82.3572 185.367C82.1783 185.459 82.0215 185.588 81.8974 185.746C81.7734 185.904 81.6851 186.087 81.6386 186.283L75.751 203.63L80.3991 207.919L85.1801 186.786C84.7948 186.135 84.2139 185.622 83.52 185.32Z" fill="#8D393A"/>
<path d="M133.698 184.811L129 178.591C127.532 176.644 125.794 174.917 123.837 173.462L87.0894 209.065C87.4501 212.1 86.9255 215.174 85.5787 217.918L120.207 231.58C125.453 232.067 127.445 229.472 128.143 226.838C128.256 226.789 128.372 226.749 128.491 226.716H128.198C129.277 226.451 129.891 225.853 129.653 224.769C129.849 224.746 130.038 224.68 130.205 224.575C130.372 224.47 130.514 224.329 130.62 224.163C130.726 223.997 130.793 223.809 130.817 223.613C130.842 223.417 130.822 223.218 130.76 223.031L130.207 221.321C130.179 221.243 130.169 221.159 130.178 221.076C130.186 220.993 130.214 220.913 130.258 220.842C130.302 220.771 130.362 220.712 130.433 220.667C130.503 220.623 130.583 220.595 130.666 220.585L132.093 220.403C132.464 220.355 132.819 220.225 133.132 220.022C133.446 219.819 133.71 219.548 133.904 219.229C134.099 218.911 134.219 218.552 134.256 218.18C134.293 217.809 134.246 217.434 134.119 217.083L133.012 214.045C132.736 213.289 132.653 212.476 132.77 211.68C132.886 210.884 133.2 210.13 133.682 209.485C136.376 205.938 137.837 201.606 137.84 197.151C137.843 192.696 136.388 188.362 133.698 184.811Z" fill="#EEAC99"/>
<path d="M140.416 225.427L140.106 223.579C139.813 221.812 140.09 219.998 140.897 218.4L141.921 216.369C141.997 216.212 142.105 216.073 142.237 215.959C142.369 215.846 142.523 215.761 142.69 215.709C142.856 215.657 143.031 215.64 143.204 215.658C143.378 215.676 143.545 215.73 143.697 215.815L144.577 213.486C144.706 213.145 144.921 212.843 145.202 212.612C145.546 212.328 145.972 212.162 146.417 212.138C146.862 212.114 147.303 212.234 147.676 212.479L148.661 213.126H149.502C150.12 213.139 150.71 213.389 151.149 213.825C151.588 214.26 151.842 214.848 151.859 215.467V216.125L152.053 216.203C152.46 216.367 152.808 216.65 153.051 217.016C153.293 217.381 153.42 217.811 153.414 218.25C154.709 218.106 155.384 219.91 154.72 221.017L154.294 221.725C153.704 222.721 153.301 223.816 153.104 224.957C152.894 226.13 152.163 227.829 149.784 228.875C147.466 229.907 144.88 230.18 142.397 229.655" fill="#EEAC99"/>
<path d="M147.449 222.533C146.118 221.89 144.596 221.764 143.177 222.18C141.759 222.596 140.546 223.525 139.774 224.785L132.027 237.164L124.136 227.873C121.613 224.867 118.023 222.957 114.12 222.544L83.686 215.749L74.7992 231.608L71.7557 254.129C65.2704 264.931 65.0823 278.477 71.634 289.267C74.9541 294.701 79.5856 298.84 85.18 299.781L112.466 305.148L113.993 303.09C119.04 296.273 121.74 296.45 121.613 287.995L122.277 250.151L128.419 253.355C129.798 254.075 131.314 254.493 132.867 254.581C134.419 254.67 135.973 254.427 137.425 253.868C138.876 253.31 140.192 252.448 141.285 251.342C142.378 250.235 143.223 248.909 143.763 247.45L150.332 229.793C150.83 228.44 150.812 226.951 150.28 225.611C149.748 224.271 148.74 223.175 147.449 222.533Z" fill="#472D59"/>
<path d="M133.277 285.565C131.29 283.292 128.56 281.799 125.574 281.353C122.587 280.907 119.54 281.537 116.975 283.131L105.25 290.391C104.097 291.106 103.104 292.053 102.336 293.172C101.568 294.29 101.04 295.556 100.786 296.889C100.532 298.222 100.558 299.593 100.862 300.916C101.165 302.239 101.74 303.484 102.549 304.573C103.415 305.744 104.532 306.707 105.817 307.391C107.103 308.074 108.526 308.462 109.981 308.524L103.794 325.678L116.66 331.881L135.302 302.343C136.692 299.668 137.243 296.635 136.882 293.641C136.52 290.648 135.264 287.833 133.277 285.565Z" fill="#EEAC99"/>
<path d="M121.519 323.636C121.383 325.112 121.243 326.572 121.099 328.019C120.85 330.647 120.036 333.486 120.789 336.097C121.309 337.918 123.036 339.777 122.549 341.764C121.995 344.082 119.162 344.752 117.292 343.512C115.078 342.024 112.467 340.746 110.84 338.532C109.213 336.319 108.908 333.425 107.276 331.211C105.92 329.402 103.524 328.317 103.126 325.894C102.942 324.769 103.12 323.614 103.633 322.596C104.146 321.578 104.968 320.749 105.981 320.227L107.409 319.502L113.656 312.707" fill="white"/>
<path d="M128.519 189.21C130.957 189.083 133.378 188.73 135.751 188.153C135.311 187.257 134.806 186.393 134.241 185.569C134.124 185.381 133.969 185.165 133.687 184.811L132.027 182.598L129 178.591C126.035 174.664 122.003 171.672 117.386 169.971C112.768 168.27 107.758 167.931 102.954 168.996L102.672 169.063L102.279 169.157C78.8887 174.878 82.325 193.936 82.325 193.936C82.5411 195.904 83.0386 197.831 83.8025 199.657L86.0989 205.147C86.2594 205.551 86.9455 212.479 87.0728 212.894C88.7329 210.725 97.7691 217.597 102.085 213.923C105.693 210.846 108.543 204.372 110.939 202.922L110.175 202.369L120.324 193.045C122.067 191.43 124.157 190.236 126.433 189.553C127.114 189.365 127.813 189.25 128.519 189.21Z" fill="#E09584"/>
<path d="M102.079 322.103V322.147C102.083 322.144 102.085 322.141 102.087 322.137C102.089 322.133 102.09 322.129 102.09 322.125C102.09 322.121 102.089 322.117 102.087 322.113C102.085 322.109 102.083 322.106 102.079 322.103Z" fill="#9B4040"/>
<path d="M222.577 167.739L222.653 167.766V167.696L222.577 167.739Z" fill="#AC748C"/>
<path d="M233.295 253.842H233.263C233.263 253.842 233.333 253.96 233.295 253.842Z" fill="#062434"/>
<path d="M84.843 230.95L103.546 217.221C104.663 216.405 105.662 215.441 106.518 214.355L114.918 203.697C115.093 203.477 115.22 203.222 115.29 202.95C115.361 202.677 115.373 202.393 115.327 202.116C115.28 201.838 115.176 201.573 115.021 201.339C114.865 201.104 114.662 200.905 114.425 200.753C114.075 200.537 113.668 200.43 113.257 200.446C112.846 200.463 112.449 200.603 112.118 200.847C109.13 202.961 102.567 209.004 102.047 209.364L116.024 192.182C116.39 191.696 116.559 191.089 116.496 190.483C116.434 189.878 116.145 189.318 115.687 188.917C115.208 188.513 114.593 188.307 113.967 188.342C113.341 188.377 112.753 188.65 112.322 189.105L98.3171 201.412L113.407 184.33C113.793 183.811 113.974 183.167 113.914 182.522C113.854 181.878 113.558 181.279 113.083 180.839C112.608 180.4 111.987 180.151 111.34 180.142C110.693 180.133 110.065 180.363 109.578 180.788C109.578 180.788 93.4587 194.55 92.5899 195.176L105.926 180.7C106.292 180.181 106.444 179.54 106.349 178.911C106.254 178.282 105.919 177.715 105.415 177.328C104.911 176.94 104.277 176.763 103.645 176.832C103.013 176.902 102.432 177.213 102.025 177.701C102.025 177.701 89.6683 187.893 88.9434 188.69L76.7696 201.971C75.5581 203.295 74.7214 204.919 74.3459 206.674L69.9191 227.414C69.5795 228.646 69.4247 229.921 69.4598 231.199L71.4574 254.689L84.843 230.95Z" fill="#9B4040"/>
<path d="M154.643 298.359L116.29 304.999C114.076 302.924 107.552 296.881 107.48 296.809C104.824 294.22 103.939 292.936 101.914 291.564L82.6736 278.344C82.2347 278.013 81.7096 277.814 81.1612 277.773C80.6127 277.732 80.0639 277.849 79.5804 278.112C79.1794 278.335 78.8318 278.644 78.5616 279.015C78.2914 279.386 78.1052 279.812 78.0157 280.263C77.9263 280.713 77.9357 281.178 78.0435 281.624C78.1512 282.07 78.3546 282.488 78.6397 282.848L86.4973 292.986C86.4973 292.986 84.3503 290.678 75.303 287.53C73.4745 286.933 71.8216 285.894 70.4914 284.505C69.1611 283.116 68.1946 281.42 67.6778 279.567C67.4786 279.993 66.4438 282.494 66.3 282.942C65.8683 284.276 66.975 285.488 67.2406 286.744C67.6612 288.73 66.7371 288.764 66.6098 290.695C66.5468 291.714 66.6725 292.737 66.9806 293.711C67.2573 294.59 68.0264 295.492 68.0873 296.411C68.0424 296.919 67.8753 297.409 67.6003 297.839C67.047 299.095 66.4438 300.478 66.726 301.878C67.1355 303.936 69.2272 305.038 70.0461 306.897C70.5552 308.065 70.0461 308.734 69.6643 309.802C69.4393 310.458 69.3692 311.157 69.4596 311.844C69.7252 313.808 71.4738 315.54 73.2667 316.271L93.7739 324.444C96.0783 325.361 98.537 325.829 101.017 325.822L156.103 325.656C155.55 315.867 155.019 305.857 154.643 298.359Z" fill="#9B4040"/>
<path d="M249.039 293.882L242.061 272.362L234.009 250.809L195.867 277.746L208.19 281.221C210.597 282.168 214.277 286.86 215.085 295.293H244.739L249.039 293.882Z" fill="#AA5A4D"/>
<path d="M244.23 252.397L244.59 251.988L240.672 226.074L215.694 220.353C213.248 223.003 207.665 228.614 206.735 230.783C205.629 233.307 205.391 235.924 204.455 238.492C202.961 242.609 199.177 246.897 195.408 248.258C193.444 248.967 192.89 250.079 193.975 252.06L194.883 253.166C194.985 253.289 195.061 253.432 195.103 253.587C195.145 253.741 195.153 253.902 195.127 254.06C195.1 254.218 195.04 254.368 194.95 254.501C194.86 254.633 194.743 254.744 194.606 254.827L193.571 255.48C193.324 255.589 193.093 255.733 192.885 255.906C192.625 256.152 192.427 256.456 192.309 256.794C192.191 257.132 192.155 257.493 192.204 257.848C192.296 258.324 192.456 258.784 192.68 259.215C192.68 259.259 193.007 259.845 193.3 260.421C192.967 260.473 192.652 260.608 192.385 260.814C192.118 261.019 191.907 261.289 191.771 261.598C191.635 261.906 191.58 262.244 191.609 262.58C191.638 262.916 191.752 263.239 191.939 263.52C191.989 263.595 192.045 263.667 192.105 263.736L192.835 264.676C193.571 265.617 193.239 267.05 192.835 268.168L192.553 268.904C190.832 273.657 189.548 277.47 200.045 278.416L213.226 279.805C214.954 280.078 216.723 279.928 218.38 279.368C220.038 278.808 221.535 277.855 222.744 276.59L229.727 268.732C230.122 269.37 230.685 269.887 231.354 270.226C231.562 270.335 231.778 270.425 232.001 270.497C232.572 270.675 233.174 270.726 233.767 270.648C234.359 270.57 234.927 270.363 235.432 270.044L243.561 264.969C244.608 264.315 245.482 263.417 246.109 262.354C246.736 261.29 247.097 260.091 247.163 258.857C247.229 257.624 246.996 256.394 246.486 255.269C245.976 254.145 245.202 253.16 244.23 252.397Z" fill="#BD6956"/>
<path d="M275.666 335.987C275.429 334.672 275.029 333.391 274.477 332.174C273.131 328.747 271.546 325.419 269.734 322.214C266.641 316.73 253.809 293.932 253.809 293.932H212.391C211.923 293.933 211.461 294.044 211.044 294.255C210.626 294.467 210.264 294.773 209.986 295.149C209.708 295.526 209.522 295.962 209.443 296.423C209.364 296.884 209.393 297.358 209.53 297.805C210.587 301.181 211.621 304.28 211.655 305.309C211.931 313.476 208.334 322.103 206.387 329.933C204.107 338.997 203.277 360.035 203.277 360.035L279.114 360.129L275.683 336.014L275.666 335.987Z" fill="#D2504A"/>
<path d="M271.422 258.872C270.734 261.857 269.788 264.777 268.594 267.598C268.445 267.958 268.29 268.323 268.13 268.705L268.091 268.788C267.941 269.131 267.781 269.468 267.626 269.811C267.602 269.852 267.582 269.895 267.565 269.939C267.41 270.265 267.25 270.597 267.089 270.924L267.012 271.073C266.851 271.399 266.685 271.726 266.519 272.052L266.436 272.207C266.27 272.534 266.093 272.86 265.916 273.192L265.833 273.342C265.651 273.674 265.468 274.011 265.28 274.343L265.208 274.476C265.009 274.825 264.804 275.173 264.599 275.522L264.549 275.61C264.322 275.987 264.096 276.363 263.858 276.745C263.367 277.549 262.849 278.353 262.303 279.157C262.336 279.119 262.303 279.157 262.303 279.157L251.236 295.304C242.83 307.6 233.086 321.865 233.042 321.904L206.342 360.085H241.635L301.491 300.616C303.634 298.488 304.998 295.701 305.365 292.704L309.559 258.872H271.422Z" fill="#EEAC99"/>
<path d="M261.34 223.424C260.19 222.378 258.968 221.415 257.682 220.541C255.113 218.822 252.381 217.36 249.526 216.175C244.208 213.912 238.531 212.302 233.174 210.453C228.659 208.893 222.981 208.616 215.517 211.826C208.196 214.974 203.205 223.446 200.615 230.938L200.565 231.066C207.325 233.361 214.693 233.089 221.266 230.302C220.043 234.972 220.492 239.923 222.534 244.298C224.577 248.672 228.084 252.195 232.449 254.257L232.527 254.301H232.554C233.554 252.971 234.958 252 236.555 251.534C237.597 251.221 238.693 251.135 239.771 251.281C240.848 251.427 241.882 251.802 242.803 252.381C243.908 253.072 244.82 254.034 245.452 255.174C246.084 256.315 246.416 257.598 246.416 258.902C246.416 260.206 246.084 261.489 245.452 262.63C244.82 263.77 243.908 264.732 242.803 265.423L235.415 270.038C236.306 274.36 236.433 281.332 232.355 290.656C228.991 298.342 227.624 306.427 228.847 313.255C229.438 316.464 230.887 319.453 233.041 321.904L262.281 279.158C262.314 279.119 262.281 279.158 262.281 279.158C278.018 255.729 273.951 234.961 261.34 223.424Z" fill="#062434"/>
</svg>
