<svg width="72" height="23" viewBox="0 0 72 23" fill="none" xmlns="http://www.w3.org/2000/svg">
<path d="M13.9449 0C13.9449 5.98216 13.9449 11.9643 13.9449 17.96C12.7323 17.9465 12.126 17.9465 10.8999 17.9195C8.52862 14.7803 6.25163 11.5871 4.05548 8.31305C4.05548 11.4523 4.05548 14.5916 4.05548 17.7309C2.70814 17.677 1.34733 17.6097 0 17.5288C0 11.6814 0 5.84743 0 0C1.2126 0 1.8189 0 3.04497 0C5.36239 3.35486 7.61244 6.75014 9.88943 10.132C9.88943 6.75014 9.88943 3.38181 9.88943 0C11.2368 0 12.5976 0 13.9449 0Z" fill="#074C93"/>
<path d="M29.8582 5.22707C29.8582 9.40381 29.8582 13.5671 29.8582 17.7438C28.5917 17.7842 27.3252 17.8381 26.0587 17.8651C26.0587 17.4204 26.0587 17.1914 26.0587 16.7468C25.2233 17.7303 23.5257 18.3097 22.2861 18.2693C18.9987 18.1749 16.2231 15.3455 16.2231 12.0311C16.2231 8.67625 18.7427 5.18665 22.2861 5.05192C23.5392 4.99803 25.2233 5.57738 26.0587 6.5744C26.0587 6.08936 26.0587 5.83337 26.0587 5.34833C27.3252 5.30791 28.5917 5.26749 29.8582 5.22707ZM26.0587 11.7751C26.0587 10.1583 24.6709 8.77056 23.0407 8.78403C21.3295 8.79751 20.0226 10.2796 20.0226 11.9772C20.0226 13.6479 21.3969 14.9413 23.0407 14.8875C24.6844 14.8336 26.0587 13.3919 26.0587 11.7751Z" fill="#074C93"/>
<path d="M44.6898 4.68939C43.1942 8.77181 41.766 12.8677 40.3513 16.9771C39.3408 20.2646 36.7001 22.7167 33.1296 22.5281C33.1296 21.1673 33.1296 20.4801 33.1296 19.1059C34.5578 19.1732 35.8917 18.3379 36.2959 16.9367C34.6117 13.0159 32.9006 9.10865 31.2568 5.18791C32.6446 5.13401 34.0458 5.08012 35.4336 5.0397C36.3632 7.54574 37.3064 10.0518 38.2495 12.5578C39.031 9.98442 39.8259 7.41101 40.6343 4.85107C41.9816 4.78371 43.3289 4.72981 44.6898 4.68939Z" fill="#074C93"/>
<path d="M58.1233 4.5667C56.5874 8.56828 55.1592 12.5968 53.7849 16.6658C52.8553 19.9802 50.1606 22.6749 46.5632 22.5267C46.5632 21.2602 46.5632 20.0071 46.5632 18.7407C48.0318 18.808 49.3387 17.9188 49.7295 16.4771C48.1261 12.516 46.4285 8.59522 44.6904 4.68796C46.0782 4.64754 47.4794 4.59364 48.8672 4.58017C49.8238 7.04579 50.7804 9.49794 51.6831 11.977C52.4376 9.48447 53.2325 7.01884 54.0679 4.55322C55.4152 4.55322 56.7625 4.55322 58.1233 4.5667Z" fill="#074C93"/>
<path d="M72 4.99997C72 9.1767 72 13.34 72 17.5167C70.7335 17.4493 69.467 17.382 68.2005 17.3281C68.2005 16.843 68.2005 16.6005 68.2005 16.1155C67.3651 17.099 65.654 17.6245 64.4279 17.5706C60.9518 17.4224 58.3919 13.7307 58.3649 10.4836C58.338 7.2096 61.127 4.36672 64.4279 4.35325C65.681 4.33977 67.3651 4.94608 68.2005 5.95658C68.2005 5.49848 68.2005 5.26944 68.2005 4.81134C69.467 4.86524 70.7335 4.9326 72 4.99997ZM68.2005 10.9013C68.187 9.28449 66.8127 7.86979 65.1824 7.762C63.5656 7.66769 62.1375 8.93418 62.1644 10.5645C62.1914 12.2756 63.4579 13.7846 65.1824 13.8654C66.7993 13.9463 68.214 12.5046 68.2005 10.9013Z" fill="#074C93"/>
</svg>
