<svg width="110" height="35" viewBox="0 0 110 35" fill="none" xmlns="http://www.w3.org/2000/svg">
<path d="M21.3046 0.5C21.3046 9.63937 21.3046 18.7787 21.3046 27.9387C19.452 27.9181 18.5257 27.9181 16.6526 27.8769C13.0298 23.0808 9.55105 18.2024 6.19583 13.2004C6.19583 17.9965 6.19583 22.7926 6.19583 27.5888C4.13742 27.5064 2.05842 27.4035 0 27.28C0 18.3465 0 9.43353 0 0.5C1.85257 0.5 2.77886 0.5 4.65202 0.5C8.1925 5.62546 11.6301 10.8127 15.1088 15.9793C15.1088 10.8127 15.1088 5.66662 15.1088 0.5C17.1672 0.5 19.2462 0.5 21.3046 0.5Z" fill="white"/>
<path d="M45.6163 8.48576C45.6163 14.8669 45.6163 21.2274 45.6163 27.6084C43.6814 27.6702 41.7465 27.7525 39.8116 27.7937C39.8116 27.1144 39.8116 26.7645 39.8116 26.0852C38.5354 27.5879 35.9418 28.473 34.048 28.4112C29.0255 28.2671 24.7852 23.9445 24.7852 18.8808C24.7852 13.7553 28.6344 8.42401 34.048 8.21817C35.9624 8.13584 38.5354 9.02095 39.8116 10.5442C39.8116 9.80315 39.8116 9.41205 39.8116 8.67102C41.7465 8.60927 43.6814 8.54752 45.6163 8.48576ZM39.8116 18.4897C39.8116 16.0196 37.6914 13.8994 35.2007 13.92C32.5866 13.9406 30.5899 16.2048 30.5899 18.7984C30.5899 21.3509 32.6895 23.3269 35.2007 23.2446C37.712 23.1623 39.8116 20.9598 39.8116 18.4897Z" fill="white"/>
<path d="M68.2753 7.66431C65.9905 13.9013 63.8086 20.1589 61.6472 26.4371C60.1034 31.4596 56.0689 35.2059 50.6141 34.9177C50.6141 32.8387 50.6141 31.7889 50.6141 29.6894C52.796 29.7923 54.8339 28.5161 55.4514 26.3753C52.8784 20.3853 50.2642 14.4159 47.7529 8.42592C49.8731 8.34359 52.0139 8.26125 54.134 8.1995C55.5543 12.0282 56.9952 15.8568 58.4361 19.6855C59.63 15.7539 60.8445 11.8223 62.0795 7.91132C64.1379 7.8084 66.1963 7.72606 68.2753 7.66431Z" fill="white"/>
<path d="M88.7988 7.47682C86.4522 13.5903 84.2703 19.745 82.1707 25.9614C80.7504 31.0251 76.6335 35.1419 71.1376 34.9155C71.1376 32.9806 71.1376 31.0663 71.1376 29.1314C73.3812 29.2343 75.3779 27.8757 75.9748 25.6732C73.5253 19.6215 70.9317 13.6315 68.2764 7.66208C70.3965 7.60033 72.5373 7.51799 74.6575 7.49741C76.1189 11.2643 77.5804 15.0106 78.9595 18.7981C80.1123 14.99 81.3267 11.2231 82.6029 7.45624C84.6614 7.45624 86.7198 7.45624 88.7988 7.47682Z" fill="white"/>
<path d="M109.999 8.13877C109.999 14.5199 109.999 20.8804 109.999 27.2615C108.065 27.1585 106.13 27.0556 104.195 26.9733C104.195 26.2322 104.195 25.8617 104.195 25.1207C102.918 26.6233 100.304 27.4261 98.4311 27.3438C93.1204 27.1174 89.2094 21.4773 89.1683 16.5165C89.1271 11.5146 93.388 7.17131 98.4311 7.15073C100.345 7.13014 102.918 8.05643 104.195 9.60024C104.195 8.90038 104.195 8.55045 104.195 7.85059C106.13 7.93293 108.065 8.03585 109.999 8.13877ZM104.195 17.1546C104.174 14.6845 102.075 12.5232 99.5838 12.3585C97.1138 12.2144 94.9318 14.1493 94.973 16.64C95.0142 19.2542 96.9491 21.5596 99.5838 21.6831C102.054 21.8067 104.215 19.6041 104.195 17.1546Z" fill="white"/>
</svg>
