<svg width="17" height="17" viewBox="0 0 17 17" fill="none" xmlns="http://www.w3.org/2000/svg">
<path d="M14.8894 2.11308L12.7761 0L10.3105 2.46527L12.0717 7.04359L14.8894 2.11308Z" fill="#2F80ED"/>
<path d="M14.8861 2.10938L11.0117 5.98335L14.5339 6.68769L16.9995 4.22246L14.8861 2.10938Z" fill="#074C93"/>
<path d="M1.13624 13.4922L0 16.9951L3.72871 14.6756L1.13624 13.4922Z" fill="#373E9F"/>
<path d="M0 17.0004L3.50333 15.8643L3.0242 13.9766L0 17.0004Z" fill="#340D66"/>
<path d="M6.25402 12.1548L2.02736 10.7461L1.13477 13.4978L2.31833 14.6813L6.25402 12.1548Z" fill="#FFE7B5"/>
<path d="M2.32031 14.6839L3.50391 15.8674L6.25598 14.9749L5.55154 11.4531L2.32031 14.6839Z" fill="#FFD06A"/>
<path d="M4.14062 12.8585L6.25393 14.9715L14.5354 6.69116L12.422 4.57812L6.90394 7.2781L4.14062 12.8585Z" fill="#074C93"/>
<path d="M2.02734 10.7461L10.3075 2.467L12.4205 4.57974L4.14035 12.8588L2.02734 10.7461Z" fill="#2F80ED"/>
</svg>
