<svg width="35" height="35" viewBox="0 0 35 35" fill="none" xmlns="http://www.w3.org/2000/svg">
<path d="M9.71484 22.7714H10.7974V22.7903H9.71484V22.7714Z" fill="#CCD0D2"/>
<circle cx="17.5" cy="17.5" r="17.5" fill="#E97F5D"/>
<path d="M10.7969 20.4746H24.144V22.79H10.7969V20.4746Z" fill="#F4C8CF"/>
<path d="M12.2617 20.2212H22.6851V26.0192H12.2617V20.2212Z" fill="white"/>
<path d="M24.1445 22.7715H25.2271V22.7904H24.1445V22.7715Z" fill="#CCD0D2"/>
<path d="M10.8203 11.981H24.169V16.5277H10.8203V11.981Z" fill="#F4C8CF"/>
<path d="M12.4609 9.54547H22.5293V14.1832H12.4609V9.54547Z" fill="white"/>
<path d="M26.1009 14.0572H8.88841C8.36982 14.0571 7.94935 14.4773 7.94922 14.9959V14.9964V21.8507C7.94908 22.3693 8.36938 22.7898 8.88792 22.7899H8.88837H10.7928V20.4748H24.1401V22.7901H26.1009C26.6195 22.7903 27.04 22.37 27.0401 21.8514C27.0401 21.8512 27.0401 21.851 27.0401 21.8507V14.9964C27.0403 14.4778 26.62 14.0573 26.1014 14.0572C26.1012 14.0572 26.1011 14.0572 26.1009 14.0572Z" fill="url(#paint0_linear)"/>
<path d="M13.082 21.6233H21.8518V21.9749H13.082V21.6233Z" fill="#EFAFA2"/>
<path d="M13.082 22.9814H21.8518V23.333H13.082V22.9814Z" fill="#EFAFA2"/>
<path d="M13.082 24.3406H21.8518V24.6921H13.082V24.3406Z" fill="#EFAFA2"/>
<path d="M7.94922 16.7045H27.0401V17.5H7.94922V16.7045Z" fill="url(#paint1_linear)"/>
<path d="M10.0513 15.3484C10.0507 15.5783 9.864 15.7642 9.63408 15.7637C9.40416 15.7631 9.21821 15.5764 9.21875 15.3465C9.21924 15.1173 9.40492 14.9316 9.63408 14.9312C9.86422 14.9309 10.051 15.1173 10.0513 15.3474V15.3484Z" fill="white"/>
<path d="M11.6411 15.3483C11.6406 15.5782 11.4538 15.7642 11.2239 15.7636C10.994 15.7631 10.8081 15.5763 10.8086 15.3464C10.8091 15.1173 10.9948 14.9316 11.2239 14.9311C11.4541 14.9308 11.6409 15.1172 11.6411 15.3474V15.3483Z" fill="white"/>
<defs>
<linearGradient id="paint0_linear" x1="27.0401" y1="14.0573" x2="7.91473" y2="14.1335" gradientUnits="userSpaceOnUse">
<stop stop-color="#FFC1A2"/>
<stop offset="1" stop-color="#FFB0BB"/>
</linearGradient>
<linearGradient id="paint1_linear" x1="15.0339" y1="17.0481" x2="15.1398" y2="18.4421" gradientUnits="userSpaceOnUse">
<stop stop-color="#FFF5F7"/>
<stop offset="1" stop-color="#FFFBD8"/>
</linearGradient>
</defs>
</svg>
