<svg width="12" height="10" viewBox="0 0 12 10" fill="none" xmlns="http://www.w3.org/2000/svg">
<path fill-rule="evenodd" clip-rule="evenodd" d="M5.29289 0.292893C5.68342 -0.0976311 6.31658 -0.0976311 6.70711 0.292893L11.4142 5L6.70711 9.70711C6.31658 10.0976 5.68342 10.0976 5.29289 9.70711C4.90237 9.31658 4.90237 8.68342 5.29289 8.29289L8.58579 5L5.29289 1.70711C4.90237 1.31658 4.90237 0.683417 5.29289 0.292893Z" fill="black"/>
<path fill-rule="evenodd" clip-rule="evenodd" d="M-8.74229e-08 5C-3.91405e-08 4.44772 0.447715 4 1 4L10 4C10.5523 4 11 4.44772 11 5C11 5.55229 10.5523 6 10 6L1 6C0.447715 6 -1.35705e-07 5.55228 -8.74229e-08 5Z" fill="black"/>
</svg>
