<svg width="33" height="33" viewBox="0 0 33 33" fill="none" xmlns="http://www.w3.org/2000/svg">
<circle cx="16.5" cy="16.5" r="16.5" fill="#E97F5D"/>
<path d="M22.857 12.5353C22.7004 12.285 22.366 12.2272 22.1328 12.4005L20.5103 13.6178C20.3071 13.7707 20.2505 14.0519 20.3794 14.2712C20.791 14.9719 21 15.7219 21 16.5007C21 18.9821 18.9814 21.0667 16.5 21.0667C14.0186 21.0667 12 18.9821 12 16.5007C12 14.1882 13.7529 12.278 16 12.0285V13.5007C16 13.9151 16.4755 14.1459 16.7998 13.9006L20.7998 10.9006C21.0667 10.7009 21.0663 10.3001 20.7998 10.1008L16.7998 7.10078C16.4744 6.85434 16 7.08754 16 7.50068V9.01728C12.0967 9.27558 9 12.5334 9 16.5007C9 20.6364 12.3643 24.0667 16.5 24.0667C20.6357 24.0667 24 20.6364 24 16.5007C24 15.1013 23.6045 13.7302 22.857 12.5353Z" fill="url(#paint0_linear)"/>
<defs>
<linearGradient id="paint0_linear" x1="24" y1="24.0667" x2="14.9167" y2="4.17726" gradientUnits="userSpaceOnUse">
<stop stop-color="#FFFBD8"/>
<stop offset="1" stop-color="#FDDAE0"/>
</linearGradient>
</defs>
</svg>
