<svg width="20" height="20" viewBox="0 0 20 20" fill="none" xmlns="http://www.w3.org/2000/svg">
<g clip-path="url(#clip0)">
<path d="M20 18.4091C20 19.2728 19.2728 20 18.4091 20C17.9546 20 17.5455 19.8182 17.2273 19.5L12.1364 13.9546C11.9545 13.7727 11.9545 13.5 12.1364 13.3182L13.3182 12.1364C13.5001 11.9545 13.7727 11.9545 13.9546 12.1364L19.5 17.2728C19.8182 17.5455 20 18 20 18.4091Z" fill="#FFCCB8"/>
<path d="M12.27 13.1695L13.1699 12.2695L11.82 10.9196L10.9201 11.8196L12.27 13.1695Z" fill="#B0C4D8"/>
<path d="M12.5011 12.4991L12.7284 12.7264L13.1829 12.2718L11.8193 10.9082L10.9102 11.8173L11.592 12.4991C11.8647 12.2264 12.2284 12.2264 12.5011 12.4991Z" fill="#99B4CD"/>
<path d="M6.81816 0C3.04547 0 0 3.04547 0 6.81816C0 10.5909 3.04547 13.6363 6.81816 13.6363C10.5909 13.6363 13.6363 10.5909 13.6363 6.81816C13.6363 3.04547 10.5909 0 6.81816 0ZM6.81816 12.2727C3.81816 12.2727 1.36363 9.8182 1.36363 6.8182C1.36363 3.8182 3.81816 1.36363 6.81816 1.36363C9.81816 1.36363 12.2727 3.81816 12.2727 6.81816C12.2727 9.81816 9.81816 12.2727 6.81816 12.2727Z" fill="#C4D7E5"/>
<path d="M6.81977 12.2723C9.83222 12.2723 12.2743 9.83027 12.2743 6.81781C12.2743 3.80536 9.83222 1.36328 6.81977 1.36328C3.80731 1.36328 1.36523 3.80536 1.36523 6.81781C1.36523 9.83027 3.80731 12.2723 6.81977 12.2723Z" fill="url(#paint0_linear)"/>
<path d="M4.13729 7.45382C4.36455 5.72656 5.72818 4.36292 7.45545 4.13566H7.50092C8.27365 4.04476 8.31908 2.95382 7.59182 2.81749C7.13729 2.7266 6.68272 2.7266 6.22818 2.77203C4.45545 3.04476 3.04635 4.45386 2.81908 6.18113C2.72818 6.63566 2.77361 7.13566 2.86455 7.54476C3.00092 8.31749 4.09182 8.2266 4.18272 7.45386C4.13729 7.49929 4.13729 7.45382 4.13729 7.45382Z" fill="url(#paint1_linear)"/>
<path d="M1.81977 7.27234C1.81977 4.27234 4.2743 1.81781 7.2743 1.81781C8.6834 1.81781 9.91066 2.36328 10.9107 3.18145C9.91066 2.04508 8.45613 1.36328 6.81976 1.36328C3.81977 1.36328 1.36523 3.81781 1.36523 6.81781C1.36523 8.45418 2.0925 9.90871 3.1834 10.9087C2.36523 9.90871 1.81977 8.68145 1.81977 7.27234Z" fill="#4C9CD6"/>
<path d="M6.81836 13.6365C10.5911 13.6365 13.6365 10.5911 13.6365 6.81836C13.4093 6.81836 13.182 7.0002 13.182 7.27289C13.0911 8.81836 12.4093 10.2274 11.3638 11.2729C10.3184 12.3638 8.86383 13.0456 7.27293 13.182C7.0002 13.182 6.81836 13.4093 6.81836 13.6365Z" fill="#B0C9DB"/>
<path d="M6.81816 0C3.04547 0 0 3.04547 0 6.81816C0.227266 6.81816 0.454531 6.63633 0.454531 6.36363C0.545469 4.86363 1.18184 3.5 2.13637 2.5C3.22727 1.36363 4.72727 0.590898 6.36363 0.454531C6.63637 0.454531 6.81816 0.227266 6.81816 0Z" fill="#E2E7F0"/>
<path d="M19.4538 17.2271L19.1811 16.9998C19.4083 17.2726 19.5447 17.6362 19.5447 17.9998C19.5447 18.5907 18.8174 18.818 18.4083 18.4089L13.6356 13.6362C13.3629 13.3635 12.9538 13.3635 12.6811 13.6362L12.2266 14.0907L17.1811 19.4089C17.4538 19.6816 17.8175 19.9089 18.1811 19.9544C18.6811 19.9998 19.1811 19.818 19.4993 19.4998C19.8174 19.1817 19.9993 18.6817 19.9538 18.1817C19.9538 17.818 19.7265 17.4998 19.4538 17.2271Z" fill="#E97F5D"/>
<path d="M14.7711 14.0916C14.7257 14.0916 14.6348 14.0916 14.5893 14.0462L13.4529 12.9098C13.362 12.8189 13.362 12.6825 13.4529 12.5916C13.5438 12.5007 13.6802 12.5007 13.7711 12.5916L14.9075 13.728C14.9984 13.8189 14.9984 13.9553 14.9075 14.0462C14.9075 14.0916 14.8166 14.0916 14.7711 14.0916Z" fill="#E97F5D"/>
</g>
<defs>
<linearGradient id="paint0_linear" x1="11.2213" y1="2.05962" x2="-8.96292" y2="2.3395" gradientUnits="userSpaceOnUse">
<stop stop-color="#EDF5F6"/>
<stop offset="1" stop-color="#AFDCE2"/>
</linearGradient>
<linearGradient id="paint1_linear" x1="7.59452" y1="3.08296" x2="-2.28659" y2="3.22002" gradientUnits="userSpaceOnUse">
<stop stop-color="#EDF5F6"/>
<stop offset="1" stop-color="#AFDCE2"/>
</linearGradient>
<clipPath id="clip0">
<rect width="20" height="20" fill="white"/>
</clipPath>
</defs>
</svg>
