<svg width="20" height="20" viewBox="0 0 20 20" fill="none" xmlns="http://www.w3.org/2000/svg">
<path fill-rule="evenodd" clip-rule="evenodd" d="M13.1737 12.375H14.0625L19.6763 18L18 19.6763L12.375 14.0625V13.1737L12.0712 12.8588C10.7887 13.9613 9.12375 14.625 7.3125 14.625C3.27375 14.625 0 11.3512 0 7.3125C0 3.27375 3.27375 0 7.3125 0C11.3512 0 14.625 3.27375 14.625 7.3125C14.625 9.12375 13.9613 10.7887 12.8588 12.0712L13.1737 12.375ZM2.2511 7.31257C2.2511 10.1138 4.51235 12.3751 7.3136 12.3751C10.1148 12.3751 12.3761 10.1138 12.3761 7.31257C12.3761 4.51132 10.1148 2.25007 7.3136 2.25007C4.51235 2.25007 2.2511 4.51132 2.2511 7.31257Z" fill="#074C93"/>
</svg>
