<svg width="245" height="375" viewBox="0 0 245 375" fill="none" xmlns="http://www.w3.org/2000/svg">
<path d="M166 24H0V289H166V24Z" fill="#E0E0E0"/>
<path d="M111.811 244.785C111.811 244.785 51.1219 339.661 50.8077 339.82C50.4934 339.979 43.2812 330.567 43.2812 330.567C43.2812 330.567 57.7095 307.984 68.2155 282.433C78.7214 256.882 88.1294 244.793 88.1294 244.793L111.811 244.785Z" fill="#EFAFA2"/>
<path d="M136.59 239.612C135.647 252.313 145.049 288.915 145.049 288.915C145.049 288.915 165.39 288.915 165.782 288.915L160.1 241.963C160.1 241.963 137.214 232.395 136.59 239.612Z" fill="#EFAFA2"/>
<path d="M43.2816 330.565C39.049 329.467 33.7344 333.386 33.7344 333.386V374.315C33.7344 374.315 35.1466 376.356 38.508 372.748C41.8694 369.14 43.9102 352.639 43.9102 352.639L50.808 339.826L43.2816 330.565Z" fill="#074C93"/>
<path d="M132.423 58.6306C143.247 56.749 150.236 61.3834 147.937 69.9202C145.638 78.457 145.821 81.9179 150.288 86.6279C154.755 91.3379 154.29 98.3909 154.29 98.3909H127.956C127.956 98.3909 117.772 79.7459 120.867 72.2712C123.962 64.7965 132.423 58.6306 132.423 58.6306Z" fill="black"/>
<path d="M139.241 60.8253C143.478 67.7232 141.907 71.3312 143.617 73.368C145.328 75.4047 147.38 75.8781 146.442 77.4455C145.902 78.3659 145.269 78.6438 144.281 79.047C144.281 79.047 146.207 86.3841 142.953 89.2085C141.973 90.0326 140.822 90.6288 139.584 90.9542C138.346 91.2796 137.051 91.326 135.792 91.0901L133.756 107.714L117.663 104.273L121.966 91.0901C121.966 91.0901 113.201 77.4455 118.699 69.9191C124.197 62.3926 135.184 58.7846 139.241 60.8253Z" fill="#EFAFA2"/>
<path d="M139.889 74.6286C140.271 74.6679 140.629 74.2349 140.688 73.6614C140.747 73.0878 140.485 72.591 140.102 72.5517C139.72 72.5124 139.362 72.9454 139.303 73.5189C139.244 74.0924 139.506 74.5893 139.889 74.6286Z" fill="black"/>
<path d="M136.665 82.8126C138.341 82.985 139.84 81.7659 140.012 80.0895C140.185 78.4132 138.966 76.9144 137.289 76.7419C135.613 76.5695 134.114 77.7886 133.942 79.465C133.769 81.1414 134.988 82.6401 136.665 82.8126Z" fill="#FF968C"/>
<path d="M143.84 82.3136C141.674 86.0446 138.889 81.3792 138.889 81.3792" stroke="black" stroke-width="0.7" stroke-miterlimit="10"/>
<path d="M135.794 91.0916L130.359 89.9883L134.62 100.667L135.794 91.0916Z" fill="#49322E"/>
<path d="M123.719 78.3868C125.441 77.444 126.07 79.799 126.07 79.799L123.719 78.3868Z" fill="white"/>
<path d="M123.719 78.3868C125.441 77.444 126.07 79.799 126.07 79.799" stroke="#231F20" stroke-width="0.907557" stroke-miterlimit="10"/>
<path d="M132.421 56.514C143.245 59.0997 141.009 64.5098 131.132 69.4505C121.254 74.3912 135.718 78.2976 131.132 83.9862C126.545 89.6748 130.782 86.7708 131.597 100.666C121.596 101.135 102.848 98.3827 102.848 98.3827C102.848 98.3827 95.0073 52.7468 132.421 56.514Z" fill="black"/>
<path d="M165.747 64.744C165.747 37.2957 147.32 28.0508 147.32 28.0508" stroke="#219653" stroke-width="1.81511" stroke-miterlimit="10"/>
<path d="M118.447 101.535C107.941 103.89 69.627 147.716 59.1211 168.258C62.57 172.18 75.9004 181.903 75.9004 181.903L100.031 152.732C100.031 152.732 82.484 227.379 80.4473 246.028C107.577 245.714 161.678 243.363 161.678 243.363C161.678 243.363 143.487 130.61 137.997 114.3C132.508 97.9903 135.157 104.693 133.753 104.634C132.348 104.574 118.447 101.535 118.447 101.535Z" fill="#F8D253"/>
<path d="M105.35 132.652C104.753 133.746 100.047 152.721 100.047 152.721" stroke="white" stroke-width="0.907557" stroke-miterlimit="10"/>
<path d="M136.588 151.48C135.959 163.243 111.809 210.916 111.809 210.916" stroke="white" stroke-width="0.907557" stroke-miterlimit="10"/>
<path d="M142.072 180.488C142.545 187.251 126.391 225.042 126.391 225.042" stroke="white" stroke-width="0.907557" stroke-miterlimit="10"/>
<path d="M165.594 288.915V62.875" stroke="#219653" stroke-width="1.81511" stroke-miterlimit="10"/>
<path d="M165.594 100.978C172.496 74.4013 184.02 64.2852 184.02 64.2852" stroke="#219653" stroke-width="1.81511" stroke-miterlimit="10"/>
<path d="M165.594 70.4042C172.73 30.1825 184.02 14.6562 184.02 14.6562" stroke="#219653" stroke-width="1.81511" stroke-miterlimit="10"/>
<path d="M184.022 64.7358C187.55 69.9072 209.191 60.36 207.154 52.9768C205.117 45.5936 182.689 56.8951 184.022 64.7358Z" stroke="#219653" stroke-width="1.81511" stroke-miterlimit="10"/>
<path d="M184.022 15.1628C187.55 20.3342 209.191 10.787 207.154 3.39977C205.117 -3.98741 182.689 7.3221 184.022 15.1628Z" stroke="#219653" stroke-width="1.81511" stroke-miterlimit="10"/>
<path d="M147.576 27.6813C144.048 32.8528 122.407 23.3055 124.448 15.9183C126.489 8.53116 148.909 19.8486 147.576 27.6813Z" stroke="#219653" stroke-width="1.81511" stroke-miterlimit="10"/>
<rect x="28.1016" y="197" width="32.7167" height="17.9621" transform="rotate(38.1683 28.1016 197)" fill="white"/>
<path d="M45.7108 216.184C44.1735 215.511 43.0884 214.456 42.0255 212.806C41.1685 211.476 40.1707 210.705 38.5582 210.732C38.1479 210.738 38.2269 211.371 38.6334 211.363C41.105 211.322 41.6106 213.883 43.0911 215.315C43.7572 215.96 44.4868 216.406 45.2748 216.739L44.9242 217.185C43.3867 216.512 42.3018 215.457 41.2387 213.807C40.3816 212.477 39.384 211.706 37.7713 211.733C37.361 211.74 37.4401 212.372 37.8466 212.364C40.3183 212.323 40.8239 214.884 42.3043 216.316C42.9705 216.961 43.7001 217.407 44.4881 217.74L44.1374 218.186C42.6 217.513 41.5151 216.458 40.452 214.808C39.5949 213.478 38.5973 212.707 36.9846 212.734C36.5743 212.741 36.6536 213.373 37.0599 213.365C39.5315 213.324 40.0371 215.885 41.5175 217.317C42.1838 217.962 42.9135 218.408 43.7014 218.741L43.1569 219.434L46.7146 222.231L50.4949 217.421L46.9369 214.625L45.7108 216.184ZM45.8621 216.964C46.0278 217.022 46.1945 217.076 46.3649 217.126L46.0098 217.578C45.8367 217.528 45.6744 217.469 45.5109 217.411L45.8621 216.964ZM45.0756 217.965C45.2414 218.022 45.4081 218.077 45.5784 218.127L45.2232 218.579C45.0503 218.528 44.8878 218.469 44.7245 218.411L45.0756 217.965ZM44.2888 218.966C44.4546 219.023 44.6214 219.078 44.7917 219.128L44.6195 219.347L46.4541 220.789L49.0333 217.507L47.1987 216.065L46.7961 216.578C46.6232 216.527 46.4608 216.468 46.2974 216.41L47.0382 215.468L49.6516 217.522L46.6143 221.386L44.0009 219.332L44.2888 218.966Z" fill="#074C93"/>
<path d="M29.4994 216.025L21.2773 209.562L21.0043 209.91L29.2263 216.373L29.4994 216.025Z" fill="black"/>
<path d="M31.9636 215.436L22.5039 208L22.2309 208.347L31.6906 215.783L31.9636 215.436Z" fill="black"/>
<path d="M27.451 206.821C28.8035 207.884 30.7611 207.649 31.8238 206.297C32.8869 204.945 32.6519 202.987 31.2999 201.924C29.9479 200.862 27.9898 201.096 26.9271 202.448C25.8641 203.801 26.0985 205.758 27.451 206.821ZM30.785 202.579C31.7738 203.357 31.9461 204.793 31.1688 205.782C30.3915 206.771 28.9546 206.943 27.9658 206.166C26.977 205.389 26.8049 203.952 27.5821 202.963C28.3595 201.974 29.7962 201.802 30.785 202.579Z" fill="#ED6F56"/>
<path d="M28.3412 205.689C29.0677 206.26 30.1197 206.134 30.6908 205.407C31.262 204.681 31.1359 203.629 30.4093 203.058C29.6828 202.486 28.6308 202.612 28.0597 203.339C27.4885 204.066 27.6146 205.118 28.3412 205.689Z" fill="#ED6F56"/>
<path d="M72.7591 177.824C71.9197 178.938 50.1798 201.501 50.1798 201.501C50.1798 201.501 45.6764 210.905 45.2786 210.442L44.3759 209.766C44.3639 208.745 44.3759 207.46 44.3759 207.46C44.3759 207.46 37.6133 215.929 36.5352 215.774C35.4572 215.619 38.572 210.913 38.572 210.913C38.572 210.913 33.2414 217.182 32.1435 216.558C31.0456 215.933 36.5352 209.248 36.5352 209.248C36.5352 209.248 32.8914 214.203 31.9685 213.578C31.0456 212.954 35.5845 208.236 35.5845 208.236C35.5845 208.236 31.8414 211.85 31.3561 210.442C30.8708 209.033 41.3844 199.969 44.0537 197.205C46.7229 194.44 62.8737 169.191 62.8737 169.191L72.7591 177.824Z" fill="#EFAFA2"/>
<path d="M243.397 92.8908C238.256 100.138 225.77 114.595 193 109.78" stroke="#D8D8D8" stroke-width="1.7077"/>
</svg>
