<svg width="20" height="20" viewBox="0 0 20 20" fill="none" xmlns="http://www.w3.org/2000/svg">
<path d="M6.09324 17.4073C13.2784 17.4073 17.2077 11.4547 17.2077 6.29285C17.2077 6.1238 17.2042 5.95551 17.1966 5.78792C17.9593 5.23655 18.6223 4.54845 19.1451 3.76515C18.4452 4.07629 17.692 4.28573 16.9019 4.38016C17.7084 3.89657 18.3275 3.13154 18.6196 2.21957C17.8649 2.667 17.0291 2.9922 16.1392 3.16777C15.4263 2.40849 14.4115 1.93359 13.2878 1.93359C11.1306 1.93359 9.38124 3.68298 9.38124 5.83935C9.38124 6.1459 9.41555 6.44402 9.48257 6.73006C6.23597 6.56669 3.35712 5.01229 1.43043 2.64872C1.09494 3.22597 0.901482 3.89657 0.901482 4.61208C0.901482 5.96733 1.59112 7.16375 2.63982 7.86367C1.99893 7.84386 1.39689 7.66791 0.870687 7.3751C0.870112 7.39152 0.87011 7.40749 0.87011 7.425C0.87011 9.3168 2.21661 10.8963 4.00401 11.2542C3.67581 11.3437 3.33041 11.3916 2.97397 11.3916C2.72268 11.3916 2.47779 11.3669 2.2398 11.3212C2.73712 12.8733 4.1792 14.0028 5.88892 14.0344C4.55194 15.0823 2.86772 15.7064 1.03725 15.7064C0.722332 15.7064 0.411249 15.6885 0.105469 15.6523C1.83429 16.7604 3.88709 17.407 6.09343 17.407" fill="white"/>
</svg>
