<svg width="105" height="34" viewBox="0 0 105 34" fill="none" xmlns="http://www.w3.org/2000/svg">
<path d="M55.8713 33.2381C64.2036 33.2381 66.0804 27.8101 66.0804 24.0827V13.1078H59.9368V23.664C59.9368 26.5582 58.3166 27.8242 55.8713 27.8242C53.4229 27.8242 51.8027 26.5582 51.8027 23.664V13.1078H45.6592V24.0827C45.6592 27.8101 47.536 33.2402 55.8733 33.2402" fill="#004276"/>
<path d="M10.2141 33.2381C18.5464 33.2381 20.4242 27.8101 20.4242 24.0827V13.1078H14.2826V23.664C14.2826 26.5582 12.6595 27.8242 10.2141 27.8242C7.76574 27.8242 6.14155 26.5582 6.14155 23.664V13.1078H0V24.0827C0 27.8101 1.88181 33.2402 10.2141 33.2402" fill="#004276"/>
<path d="M33.0422 12.3457C24.7079 12.3457 22.8281 17.7728 22.8281 21.5002V32.474H28.9717V21.9178C28.9717 19.0297 30.5949 17.7617 33.0432 17.7617C35.4886 17.7617 37.1088 19.0297 37.1088 21.9178V32.474H43.2523V21.5012C43.2523 17.7738 41.3745 12.3467 33.0442 12.3467" fill="#004276"/>
<path d="M84.4928 15.4553C84.2272 15.1011 82.6614 12.3458 77.6348 12.3458C72.5157 12.3458 68.4844 14.9068 68.4844 21.0957V32.4741H74.4891V21.0856C74.4891 19.0911 75.5085 17.5635 77.987 17.5635C80.4726 17.5635 81.487 19.0911 81.487 21.0856V32.4771H87.4947V21.0826C87.4947 19.0881 88.5091 17.5605 90.9906 17.5605C93.4742 17.5605 94.4926 19.0881 94.4926 21.0826V32.4741H100.493V21.0927C100.493 14.9038 96.461 12.3438 91.3439 12.3438C86.3264 12.3438 84.7555 15.099 84.4939 15.4533" fill="#004276"/>
<path d="M27.9922 4.948C27.9922 7.74556 30.2262 9.89907 33.0409 9.89907C35.8284 9.89907 38.0221 7.74556 38.0221 4.948C38.0221 2.15346 35.8284 0.00195312 33.0409 0.00195312C30.2252 0.00195312 27.9922 2.15547 27.9922 4.949" fill="#547083"/>
<path d="M50.8159 4.94775C50.8159 7.74531 53.0519 9.89883 55.8676 9.89883C58.6551 9.89883 60.8489 7.74531 60.8489 4.94775C60.8489 2.15321 58.6551 0.00170898 55.8676 0.00170898C53.0519 0.00170898 50.8159 2.15523 50.8159 4.94876" fill="#547083"/>
<path d="M79.4395 4.94705C79.4395 7.74461 81.6755 9.89813 84.4912 9.89813C87.2787 9.89813 89.4725 7.74461 89.4725 4.94705C89.4705 2.15352 87.2767 0 84.4892 0C81.6735 0 79.4375 2.15352 79.4375 4.94705" fill="#547083"/>
<path d="M102.244 12.9699C102.163 12.9712 102.082 12.9834 102.004 13.0062V13.8817H102.19C102.52 13.8817 102.776 13.7609 102.776 13.3966C102.776 13.0545 102.484 12.9699 102.245 12.9699H102.244ZM102.836 15.214L102.077 14.1101H102.004V15.217H101.662V12.816C101.823 12.7375 102.045 12.6882 102.273 12.6882C102.776 12.6882 103.13 12.9699 103.13 13.3976C103.13 13.8102 102.837 14.0457 102.442 14.0859L103.25 15.216H102.838L102.836 15.214ZM102.358 12.19C101.351 12.19 100.55 13.0122 100.55 14.0135C100.55 15.0097 101.35 15.8208 102.357 15.8208C102.594 15.8208 102.828 15.7741 103.047 15.6832C103.266 15.5924 103.465 15.4593 103.632 15.2915C103.799 15.1237 103.932 14.9245 104.022 14.7054C104.112 14.4862 104.159 14.2515 104.158 14.0145C104.158 13.0132 103.356 12.1911 102.357 12.1911L102.358 12.19ZM102.358 16.1328C102.079 16.1336 101.803 16.0793 101.546 15.9732C101.288 15.867 101.055 15.711 100.858 15.5142C100.661 15.3173 100.505 15.0835 100.398 14.8262C100.292 14.5688 100.238 14.2929 100.238 14.0145C100.237 13.7356 100.292 13.4592 100.398 13.2012C100.504 12.9433 100.66 12.7087 100.856 12.511C101.053 12.3132 101.287 12.1562 101.544 12.0488C101.802 11.9414 102.078 11.8858 102.357 11.8851C103.524 11.8851 104.475 12.8381 104.475 14.0135C104.475 15.1909 103.523 16.1328 102.357 16.1328H102.358Z" fill="#004276"/>
</svg>
